{
.appVersion = "1357";
DisplayStrings = (
"a/Placeholder a/space b/Placeholder b/space c/Placeholder c/space d/Placeholder d/space e/Placeholder e/space f/Placeholder f/space g/Placeholder g/space h/Placeholder h/space i/Placeholder i/space jjj/space k/Placeholder k/space l/Placeholder l/space m/Placeholder m/space n/Placeholder n/space o/Placeholder o/space p/Placeholder p/space q/Placeholder q/space r/Placeholder r/space s/Placeholder s/space t/Placeholder t/space u/Placeholder u/space v/Placeholder v/space w/Placeholder w/space x/Placeholder x/space y/Placeholder y/space z/Placeholder z\012nn/Placeholder no/Placeholder oo\012aZococ/space cac/space acnnbYcdefghijklmnopqrstuvwxyz\012fear/space fall/space kilo/space long/space ovoide/space want/space wind/space oxo/space zapato\012Twombli/space Tgmaiwan/space Taiwan/space Tomato/space Temperture/space Tiro/space Twardock/space Walking/space Wonder/space Wc/space Wd/space/space Wrcnder/space/space You/space Family/space Fear/space Furor/space Vocal/space Viajar/space Zusam/space Pearl/space Point/space Pain/space Ayuda/space \012Kilo/space Londres/space Leon/space Lio/space Month\012abcdefghijklmnopqrstuvwxyz",
"HH/Placeholder HO/Placeholder OO\012A/Placeholder A/space B/Placeholder B/space C/Placeholder C/space D/Placeholder D/space E/Placeholder E/space F/Placeholder F/space G/Placeholder G/space H/Placeholder H/space I/Placeholder I/space/space J/Placeholder J/space K/Placeholder K/space L/Placeholder L/space M/Placeholder M/space N/Placeholder N/space O/Placeholder O/space P/Placeholder P/space Q/Placeholder Q/space R/Placeholder R/space S/Placeholder S/space T/Placeholder T/space U/Placeholder U/space V/Placeholder V/space W/Placeholder W/space X/Placeholder X/space Y/Placeholder Y/space Z/Placeholder Z/space HH/Placeholder HO/Placeholder OO\012ABCDEFGHIJKLMNOPQRSTUVWXYZ\012ABCDEFGHIJKLMNOPQRSTUVWXYZ/space Feo",

glyphs = (
{
glyphname = .notdef;
lastChange = "2021-11-06 03:09:09 +0000";
layers = (
{
background = {
paths = (
{
closed = 1;
nodes = (
"63 0 LINE",
"438 0 LINE",
"438 721 LINE",
"63 721 LINE"
);
},
{
closed = 1;
nodes = (
"252 314 LINE",
"371 63 LINE",
"133 63 LINE"
);
},
{
closed = 1;
nodes = (
"125 582 LINE",
"225 371 LINE",
"125 160 LINE"
);
},
{
closed = 1;
nodes = (
"279 371 LINE",
"375 573 LINE",
"375 169 LINE"
);
},
{
closed = 1;
nodes = (
"143 659 LINE",
"361 659 LINE",
"252 428 LINE"
);
}
);
};
layerId = "5D3CF454-A725-4551-B6FA-6F6FD8C18533";
paths = (
{
closed = 1;
nodes = (
"63 15 LINE",
"438 15 LINE",
"438 736 LINE",
"63 736 LINE"
);
},
{
closed = 1;
nodes = (
"252 329 LINE",
"371 78 LINE",
"133 78 LINE"
);
},
{
closed = 1;
nodes = (
"125 597 LINE",
"225 386 LINE",
"125 175 LINE"
);
},
{
closed = 1;
nodes = (
"279 386 LINE",
"375 588 LINE",
"375 184 LINE"
);
},
{
closed = 1;
nodes = (
"143 674 LINE",
"361 674 LINE",
"252 443 LINE"
);
}
);
userData = {
assembly = "NPUSHB[ ]	/* 31 values pushed */\0121 8 8 64 9 2 7 4 5 1 0 6 5 5 3 2 5 4 7 0 7 6 7 1 2 1 3 0 1 0 70 \012SROUND[ ]	/* SuperRound */\012MDAP[1]	/* MoveDirectAbsPt */\012SHZ[1]	/* ShiftZoneByLastPoint */\012RTG[ ]	/* RoundToGrid */\012SVTCA[0]	/* SetFreedomAndProjectionVectorToAxis */\012MDAP[1]	/* MoveDirectAbsPt */\012ALIGNRP[ ]	/* AlignRelativePt */\012MDAP[1]	/* MoveDirectAbsPt */\012ALIGNRP[ ]	/* AlignRelativePt */\012SRP0[ ]	/* SetRefPoint0 */\012MIRP[11101]	/* MoveIndirectRelPt */\012ALIGNRP[ ]	/* AlignRelativePt */\012SRP0[ ]	/* SetRefPoint0 */\012MIRP[11101]	/* MoveIndirectRelPt */\012ALIGNRP[ ]	/* AlignRelativePt */\012SVTCA[1]	/* SetFreedomAndProjectionVectorToAxis */\012MDAP[1]	/* MoveDirectAbsPt */\012ALIGNRP[ ]	/* AlignRelativePt */\012MIRP[11101]	/* MoveIndirectRelPt */\012ALIGNRP[ ]	/* AlignRelativePt */\012MDAP[1]	/* MoveDirectAbsPt */\012ALIGNRP[ ]	/* AlignRelativePt */\012MIRP[11101]	/* MoveIndirectRelPt */\012ALIGNRP[ ]	/* AlignRelativePt */\012SVTCA[0]	/* SetFreedomAndProjectionVectorToAxis */\012IUP[1]	/* InterpolateUntPts */\012IUP[0]	/* InterpolateUntPts */\012SVTCA[1]	/* SetFreedomAndProjectionVectorToAxis */\012MD[0]	/* MeasureDistance */\012ROUND[00]	/* Round */\012PUSHW[ ]	/* 2 values pushed */\0120 8 \012MD[0]	/* MeasureDistance */\012ROUND[00]	/* Round */\012SUB[ ]	/* Subtract */\012PUSHB[ ]	/* 1 value pushed */\01264 \012GT[ ]	/* GreaterThan */\012IF[ ]	/* If */\012SHPIX[ ]	/* ShiftZoneByPixel */\012SRP1[ ]	/* SetRefPoint1 */\012SHZ[1]	/* ShiftZoneByLastPoint */\012PUSHW[ ]	/* 2 values pushed */\0128 -64 \012SHPIX[ ]	/* ShiftZoneByPixel */\012EIF[ ]	/* EndIf */";
};
width = 500;
}
);
note = .notdef;
},
{
glyphname = A;
lastChange = "2021-11-06 04:46:03 +0000";
layers = (
{
background = {
paths = (
{
closed = 1;
nodes = (
"-24 -74 OFFCURVE",
"-19 -71 OFFCURVE",
"-16 -65 CURVE SMOOTH",
"-7 -51 OFFCURVE",
"-1 -40 OFFCURVE",
"3 -33 CURVE SMOOTH",
"27 3 OFFCURVE",
"59 43 OFFCURVE",
"99 87 CURVE SMOOTH",
"116 106 OFFCURVE",
"152 144 OFFCURVE",
"206 199 CURVE",
"299 214 OFFCURVE",
"407 223 OFFCURVE",
"530 226 CURVE",
"525 206 OFFCURVE",
"520 191 OFFCURVE",
"517 181 CURVE SMOOTH",
"501 124 OFFCURVE",
"487 66 OFFCURVE",
"476 7 CURVE SMOOTH",
"470 -22 LINE",
"470 -34 OFFCURVE",
"476 -40 OFFCURVE",
"489 -40 CURVE SMOOTH",
"498 -40 OFFCURVE",
"503 -35 OFFCURVE",
"503 -25 CURVE SMOOTH",
"503 -28 LINE",
"520 69 OFFCURVE",
"541 153 OFFCURVE",
"568 224 CURVE",
"591 224 OFFCURVE",
"602 230 OFFCURVE",
"602 242 CURVE SMOOTH",
"602 253 OFFCURVE",
"593 258 OFFCURVE",
"576 258 CURVE",
"620 387 LINE SMOOTH",
"660 504 OFFCURVE",
"680 573 OFFCURVE",
"680 593 CURVE SMOOTH",
"680 604 OFFCURVE",
"675 609 OFFCURVE",
"666 609 CURVE SMOOTH",
"662 609 OFFCURVE",
"659 608 OFFCURVE",
"658 607 CURVE",
"508 525 OFFCURVE",
"352 400 OFFCURVE",
"191 232 CURVE",
"167 227 OFFCURVE",
"149 223 OFFCURVE",
"137 221 CURVE",
"137 222 LINE",
"128 222 OFFCURVE",
"123 218 OFFCURVE",
"123 209 CURVE SMOOTH",
"123 196 OFFCURVE",
"129 190 OFFCURVE",
"140 190 CURVE SMOOTH",
"143 190 OFFCURVE",
"148 191 OFFCURVE",
"155 192 CURVE",
"46 85 OFFCURVE",
"-21 5 OFFCURVE",
"-46 -50 CURVE SMOOTH",
"-47 -52 OFFCURVE",
"-47 -55 OFFCURVE",
"-47 -58 CURVE SMOOTH",
"-47 -69 OFFCURVE",
"-41 -74 OFFCURVE",
"-30 -74 CURVE SMOOTH"
);
},
{
closed = 1;
nodes = (
"246 239 LINE",
"358 367 OFFCURVE",
"491 475 OFFCURVE",
"646 564 CURVE",
"627 505 OFFCURVE",
"612 461 OFFCURVE",
"601 432 CURVE SMOOTH",
"582 378 OFFCURVE",
"562 320 OFFCURVE",
"542 259 CURVE",
"421 256 OFFCURVE",
"323 250 OFFCURVE",
"246 240 CURVE"
);
}
);
};
layerId = "5D3CF454-A725-4551-B6FA-6F6FD8C18533";
paths = (
{
closed = 1;
nodes = (
"-24 -59 OFFCURVE",
"-19 -56 OFFCURVE",
"-16 -50 CURVE SMOOTH",
"-7 -36 OFFCURVE",
"-1 -25 OFFCURVE",
"3 -18 CURVE SMOOTH",
"27 18 OFFCURVE",
"59 58 OFFCURVE",
"99 102 CURVE SMOOTH",
"116 121 OFFCURVE",
"152 159 OFFCURVE",
"206 214 CURVE",
"299 229 OFFCURVE",
"407 238 OFFCURVE",
"530 241 CURVE",
"517 196 OFFCURVE",
"502 148 OFFCURVE",
"478 32 CURVE SMOOTH",
"473 10 OFFCURVE",
"470 -3 OFFCURVE",
"470 -7 CURVE SMOOTH",
"470 -18 OFFCURVE",
"475 -25 OFFCURVE",
"487 -25 CURVE SMOOTH",
"498 -25 OFFCURVE",
"502 -18 OFFCURVE",
"505 -4 CURVE SMOOTH",
"520 84 OFFCURVE",
"542 170 OFFCURVE",
"568 239 CURVE",
"591 239 OFFCURVE",
"602 245 OFFCURVE",
"602 257 CURVE SMOOTH",
"602 268 OFFCURVE",
"593 273 OFFCURVE",
"576 273 CURVE",
"620 402 LINE SMOOTH",
"660 519 OFFCURVE",
"680 588 OFFCURVE",
"680 608 CURVE SMOOTH",
"680 619 OFFCURVE",
"675 624 OFFCURVE",
"668 624 CURVE SMOOTH",
"661 624 OFFCURVE",
"652 619 OFFCURVE",
"640 612 CURVE SMOOTH",
"503 534 OFFCURVE",
"352 415 OFFCURVE",
"191 247 CURVE",
"167 242 OFFCURVE",
"153 240 OFFCURVE",
"140 238 CURVE SMOOTH",
"127 236 OFFCURVE",
"123 232 OFFCURVE",
"123 224 CURVE SMOOTH",
"123 211 OFFCURVE",
"129 205 OFFCURVE",
"140 205 CURVE SMOOTH",
"143 205 OFFCURVE",
"148 206 OFFCURVE",
"155 207 CURVE",
"46 100 OFFCURVE",
"-21 20 OFFCURVE",
"-46 -35 CURVE SMOOTH",
"-47 -37 OFFCURVE",
"-47 -40 OFFCURVE",
"-47 -43 CURVE SMOOTH",
"-47 -54 OFFCURVE",
"-41 -59 OFFCURVE",
"-30 -59 CURVE SMOOTH"
);
},
{
closed = 1;
nodes = (
"359 382 OFFCURVE",
"491 490 OFFCURVE",
"646 579 CURVE",
"627 520 OFFCURVE",
"612 476 OFFCURVE",
"601 447 CURVE SMOOTH",
"582 393 OFFCURVE",
"562 335 OFFCURVE",
"542 274 CURVE",
"421 271 OFFCURVE",
"324 265 OFFCURVE",
"247 255 CURVE"
);
}
);
userData = {
assembly = "NPUSHB[ ]	/* 40 values pushed */\0121 61 61 64 62 15 59 52 26 25 7 6 2 0 59 53 52 48 36 30 26 25 21 19 15 7 6 4 0 19 6 36 13 46 1 28 1 1 48 70 \012SROUND[ ]	/* SuperRound */\012MDAP[1]	/* MoveDirectAbsPt */\012SHZ[1]	/* ShiftZoneByLastPoint */\012RTG[ ]	/* RoundToGrid */\012SVTCA[0]	/* SetFreedomAndProjectionVectorToAxis */\012MIAP[1]	/* MoveIndirectAbsPt */\012MIAP[1]	/* MoveIndirectAbsPt */\012MDAP[1]	/* MoveDirectAbsPt */\012MDAP[1]	/* MoveDirectAbsPt */\012MIRP[11101]	/* MoveIndirectRelPt */\012SVTCA[1]	/* SetFreedomAndProjectionVectorToAxis */\012MDAP[0]	/* MoveDirectAbsPt */\012MDAP[0]	/* MoveDirectAbsPt */\012MDAP[0]	/* MoveDirectAbsPt */\012MDAP[0]	/* MoveDirectAbsPt */\012MDAP[0]	/* MoveDirectAbsPt */\012MDAP[0]	/* MoveDirectAbsPt */\012MDAP[0]	/* MoveDirectAbsPt */\012MDAP[0]	/* MoveDirectAbsPt */\012MDAP[0]	/* MoveDirectAbsPt */\012MDAP[0]	/* MoveDirectAbsPt */\012MDAP[0]	/* MoveDirectAbsPt */\012MDAP[0]	/* MoveDirectAbsPt */\012MDAP[0]	/* MoveDirectAbsPt */\012MDAP[0]	/* MoveDirectAbsPt */\012MDAP[0]	/* MoveDirectAbsPt */\012SVTCA[0]	/* SetFreedomAndProjectionVectorToAxis */\012MDAP[0]	/* MoveDirectAbsPt */\012MDAP[0]	/* MoveDirectAbsPt */\012MDAP[0]	/* MoveDirectAbsPt */\012MDAP[0]	/* MoveDirectAbsPt */\012MDAP[0]	/* MoveDirectAbsPt */\012MDAP[0]	/* MoveDirectAbsPt */\012MDAP[0]	/* MoveDirectAbsPt */\012MDAP[0]	/* MoveDirectAbsPt */\012IUP[1]	/* InterpolateUntPts */\012IUP[0]	/* InterpolateUntPts */\012SVTCA[1]	/* SetFreedomAndProjectionVectorToAxis */\012MD[0]	/* MeasureDistance */\012ROUND[00]	/* Round */\012PUSHW[ ]	/* 2 values pushed */\01248 61 \012MD[0]	/* MeasureDistance */\012ROUND[00]	/* Round */\012SUB[ ]	/* Subtract */\012PUSHB[ ]	/* 1 value pushed */\01264 \012GT[ ]	/* GreaterThan */\012IF[ ]	/* If */\012SHPIX[ ]	/* ShiftZoneByPixel */\012SRP1[ ]	/* SetRefPoint1 */\012SHZ[1]	/* ShiftZoneByLastPoint */\012PUSHW[ ]	/* 2 values pushed */\01261 -64 \012SHPIX[ ]	/* ShiftZoneByPixel */\012EIF[ ]	/* EndIf */";
};
width = 645;
}
);
note = A;
unicode = 0041;
},
{
glyphname = AE;
lastChange = "2021-11-06 03:09:09 +0000";
layers = (
{
background = {
paths = (
{
closed = 1;
nodes = (
"-24 -74 OFFCURVE",
"-19 -71 OFFCURVE",
"-16 -65 CURVE SMOOTH",
"-7 -51 OFFCURVE",
"-1 -40 OFFCURVE",
"3 -33 CURVE SMOOTH",
"27 2 OFFCURVE",
"68 52 OFFCURVE",
"127 117 CURVE SMOOTH",
"159 152 OFFCURVE",
"204 199 OFFCURVE",
"261 258 CURVE",
"410 281 OFFCURVE",
"512 295 OFFCURVE",
"566 300 CURVE",
"497 172 OFFCURVE",
"443 62 OFFCURVE",
"405 -30 CURVE",
"405 -45 OFFCURVE",
"411 -52 OFFCURVE",
"423 -52 CURVE SMOOTH",
"424 -52 LINE",
"637 -9 LINE SMOOTH",
"720 6 OFFCURVE",
"792 14 OFFCURVE",
"852 14 CURVE SMOOTH",
"890 14 OFFCURVE",
"911 11 OFFCURVE",
"914 6 CURVE",
"916 6 OFFCURVE",
"918 3 OFFCURVE",
"920 -4 CURVE SMOOTH",
"922 -11 OFFCURVE",
"927 -14 OFFCURVE",
"934 -14 CURVE SMOOTH",
"945 -14 OFFCURVE",
"951 -9 OFFCURVE",
"951 2 CURVE SMOOTH",
"951 33 OFFCURVE",
"919 48 OFFCURVE",
"855 48 CURVE SMOOTH",
"763 48 OFFCURVE",
"627 28 OFFCURVE",
"447 -12 CURVE",
"492 85 OFFCURVE",
"547 191 OFFCURVE",
"613 304 CURVE",
"704 313 OFFCURVE",
"800 317 OFFCURVE",
"902 318 CURVE SMOOTH",
"919 318 OFFCURVE",
"940 330 OFFCURVE",
"940 339 CURVE SMOOTH",
"940 346 OFFCURVE",
"930 350 OFFCURVE",
"910 351 CURVE SMOOTH",
"899 351 OFFCURVE",
"887 352 OFFCURVE",
"874 352 CURVE SMOOTH",
"816 352 OFFCURVE",
"735 347 OFFCURVE",
"632 337 CURVE",
"724 492 OFFCURVE",
"785 581 OFFCURVE",
"816 604 CURVE",
"881 615 OFFCURVE",
"936 620 OFFCURVE",
"980 620 CURVE SMOOTH",
"1038 620 OFFCURVE",
"1087 616 OFFCURVE",
"1126 609 CURVE",
"1130 609 LINE SMOOTH",
"1140 609 OFFCURVE",
"1145 615 OFFCURVE",
"1145 626 CURVE SMOOTH",
"1145 634 OFFCURVE",
"1141 639 OFFCURVE",
"1134 642 CURVE SMOOTH",
"1113 650 OFFCURVE",
"1068 654 OFFCURVE",
"997 654 CURVE SMOOTH",
"870 654 OFFCURVE",
"768 635 OFFCURVE",
"690 597 CURVE SMOOTH",
"501 504 OFFCURVE",
"353 402 OFFCURVE",
"246 290 CURVE",
"234 287 OFFCURVE",
"216 284 OFFCURVE",
"192 280 CURVE",
"192 281 LINE",
"183 281 OFFCURVE",
"178 276 OFFCURVE",
"178 267 CURVE SMOOTH",
"178 254 OFFCURVE",
"184 248 OFFCURVE",
"195 248 CURVE",
"210 251 LINE",
"65 106 OFFCURVE",
"-20 6 OFFCURVE",
"-46 -50 CURVE SMOOTH",
"-47 -52 OFFCURVE",
"-47 -55 OFFCURVE",
"-47 -58 CURVE SMOOTH",
"-47 -69 OFFCURVE",
"-41 -74 OFFCURVE",
"-30 -74 CURVE SMOOTH"
);
},
{
closed = 1;
nodes = (
"377 384 OFFCURVE",
"531 484 OFFCURVE",
"764 600 CURVE",
"715 547 OFFCURVE",
"655 457 OFFCURVE",
"584 332 CURVE",
"469 321 OFFCURVE",
"375 310 OFFCURVE",
"302 299 CURVE"
);
}
);
};
layerId = "5D3CF454-A725-4551-B6FA-6F6FD8C18533";
paths = (
{
closed = 1;
nodes = (
"-24 -59 OFFCURVE",
"-19 -56 OFFCURVE",
"-16 -50 CURVE SMOOTH",
"-7 -36 OFFCURVE",
"-1 -25 OFFCURVE",
"3 -18 CURVE SMOOTH",
"27 17 OFFCURVE",
"68 67 OFFCURVE",
"127 132 CURVE SMOOTH",
"159 167 OFFCURVE",
"204 214 OFFCURVE",
"261 273 CURVE",
"410 296 OFFCURVE",
"512 310 OFFCURVE",
"566 315 CURVE",
"497 187 OFFCURVE",
"443 77 OFFCURVE",
"405 -15 CURVE",
"405 -30 OFFCURVE",
"411 -37 OFFCURVE",
"423 -37 CURVE SMOOTH",
"424 -37 LINE",
"637 6 LINE SMOOTH",
"720 21 OFFCURVE",
"792 29 OFFCURVE",
"852 29 CURVE SMOOTH",
"890 29 OFFCURVE",
"911 26 OFFCURVE",
"914 21 CURVE",
"916 21 OFFCURVE",
"918 18 OFFCURVE",
"920 11 CURVE SMOOTH",
"922 4 OFFCURVE",
"927 1 OFFCURVE",
"934 1 CURVE SMOOTH",
"945 1 OFFCURVE",
"951 6 OFFCURVE",
"951 17 CURVE SMOOTH",
"951 48 OFFCURVE",
"919 63 OFFCURVE",
"855 63 CURVE SMOOTH",
"763 63 OFFCURVE",
"627 43 OFFCURVE",
"447 3 CURVE",
"492 100 OFFCURVE",
"547 206 OFFCURVE",
"613 319 CURVE",
"704 328 OFFCURVE",
"800 332 OFFCURVE",
"902 333 CURVE SMOOTH",
"919 333 OFFCURVE",
"940 345 OFFCURVE",
"940 354 CURVE SMOOTH",
"940 361 OFFCURVE",
"930 365 OFFCURVE",
"910 366 CURVE SMOOTH",
"899 366 OFFCURVE",
"887 367 OFFCURVE",
"874 367 CURVE SMOOTH",
"816 367 OFFCURVE",
"735 362 OFFCURVE",
"632 352 CURVE",
"724 507 OFFCURVE",
"785 596 OFFCURVE",
"816 619 CURVE",
"881 630 OFFCURVE",
"936 635 OFFCURVE",
"980 635 CURVE SMOOTH",
"1038 635 OFFCURVE",
"1087 631 OFFCURVE",
"1126 624 CURVE",
"1130 624 LINE SMOOTH",
"1140 624 OFFCURVE",
"1145 630 OFFCURVE",
"1145 641 CURVE SMOOTH",
"1145 649 OFFCURVE",
"1141 654 OFFCURVE",
"1134 657 CURVE SMOOTH",
"1113 665 OFFCURVE",
"1068 669 OFFCURVE",
"997 669 CURVE SMOOTH",
"870 669 OFFCURVE",
"768 650 OFFCURVE",
"690 612 CURVE SMOOTH",
"501 519 OFFCURVE",
"353 417 OFFCURVE",
"246 305 CURVE",
"234 302 OFFCURVE",
"216 299 OFFCURVE",
"192 295 CURVE",
"192 296 LINE",
"183 296 OFFCURVE",
"178 291 OFFCURVE",
"178 282 CURVE SMOOTH",
"178 269 OFFCURVE",
"184 263 OFFCURVE",
"195 263 CURVE",
"210 266 LINE",
"65 121 OFFCURVE",
"-20 21 OFFCURVE",
"-46 -35 CURVE SMOOTH",
"-47 -37 OFFCURVE",
"-47 -40 OFFCURVE",
"-47 -43 CURVE SMOOTH",
"-47 -54 OFFCURVE",
"-41 -59 OFFCURVE",
"-30 -59 CURVE SMOOTH"
);
},
{
closed = 1;
nodes = (
"377 399 OFFCURVE",
"531 499 OFFCURVE",
"764 615 CURVE",
"715 562 OFFCURVE",
"655 472 OFFCURVE",
"584 347 CURVE",
"469 336 OFFCURVE",
"375 325 OFFCURVE",
"302 314 CURVE"
);
}
);
userData = {
assembly = "NPUSHB[ ]	/* 46 values pushed */\0121 79 79 64 80 10 73 72 68 66 50 41 36 32 30 21 15 13 12 4 2 73 72 70 66 62 50 48 34 30 23 19 10 4 2 6 60 1 46 45 1 19 2 1 62 70 \012SROUND[ ]	/* SuperRound */\012MDAP[1]	/* MoveDirectAbsPt */\012SHZ[1]	/* ShiftZoneByLastPoint */\012RTG[ ]	/* RoundToGrid */\012SVTCA[0]	/* SetFreedomAndProjectionVectorToAxis */\012MIAP[1]	/* MoveIndirectAbsPt */\012MIAP[1]	/* MoveIndirectAbsPt */\012ALIGNRP[ ]	/* AlignRelativePt */\012MIAP[1]	/* MoveIndirectAbsPt */\012MDAP[1]	/* MoveDirectAbsPt */\012SVTCA[1]	/* SetFreedomAndProjectionVectorToAxis */\012MDAP[0]	/* MoveDirectAbsPt */\012MDAP[0]	/* MoveDirectAbsPt */\012MDAP[0]	/* MoveDirectAbsPt */\012MDAP[0]	/* MoveDirectAbsPt */\012MDAP[0]	/* MoveDirectAbsPt */\012MDAP[0]	/* MoveDirectAbsPt */\012MDAP[0]	/* MoveDirectAbsPt */\012MDAP[0]	/* MoveDirectAbsPt */\012MDAP[0]	/* MoveDirectAbsPt */\012MDAP[0]	/* MoveDirectAbsPt */\012MDAP[0]	/* MoveDirectAbsPt */\012MDAP[0]	/* MoveDirectAbsPt */\012MDAP[0]	/* MoveDirectAbsPt */\012MDAP[0]	/* MoveDirectAbsPt */\012SVTCA[0]	/* SetFreedomAndProjectionVectorToAxis */\012MDAP[0]	/* MoveDirectAbsPt */\012MDAP[0]	/* MoveDirectAbsPt */\012MDAP[0]	/* MoveDirectAbsPt */\012MDAP[0]	/* MoveDirectAbsPt */\012MDAP[0]	/* MoveDirectAbsPt */\012MDAP[0]	/* MoveDirectAbsPt */\012MDAP[0]	/* MoveDirectAbsPt */\012MDAP[0]	/* MoveDirectAbsPt */\012MDAP[0]	/* MoveDirectAbsPt */\012MDAP[0]	/* MoveDirectAbsPt */\012MDAP[0]	/* MoveDirectAbsPt */\012MDAP[0]	/* MoveDirectAbsPt */\012MDAP[0]	/* MoveDirectAbsPt */\012MDAP[0]	/* MoveDirectAbsPt */\012MDAP[0]	/* MoveDirectAbsPt */\012IUP[1]	/* InterpolateUntPts */\012IUP[0]	/* InterpolateUntPts */\012SVTCA[1]	/* SetFreedomAndProjectionVectorToAxis */\012MD[0]	/* MeasureDistance */\012ROUND[00]	/* Round */\012PUSHW[ ]	/* 2 values pushed */\01262 79 \012MD[0]	/* MeasureDistance */\012ROUND[00]	/* Round */\012SUB[ ]	/* Subtract */\012PUSHB[ ]	/* 1 value pushed */\01264 \012GT[ ]	/* GreaterThan */\012IF[ ]	/* If */\012SHPIX[ ]	/* ShiftZoneByPixel */\012SRP1[ ]	/* SetRefPoint1 */\012SHZ[1]	/* ShiftZoneByLastPoint */\012PUSHW[ ]	/* 2 values pushed */\01279 -64 \012SHPIX[ ]	/* ShiftZoneByPixel */\012EIF[ ]	/* EndIf */";
};
width = 983;
}
);
note = AE;
unicode = 00C6;
},
{
glyphname = B;
lastChange = "2021-11-06 04:46:16 +0000";
layers = (
{
background = {
paths = (
{
closed = 1;
nodes = (
"45 -89 OFFCURVE",
"50 -84 OFFCURVE",
"50 -73 CURVE SMOOTH",
"50 -69 OFFCURVE",
"53 -59 OFFCURVE",
"60 -44 CURVE",
"85 -46 OFFCURVE",
"110 -47 OFFCURVE",
"134 -47 CURVE SMOOTH",
"248 -47 OFFCURVE",
"349 -34 OFFCURVE",
"437 -7 CURVE SMOOTH",
"559 30 OFFCURVE",
"634 88 OFFCURVE",
"662 167 CURVE SMOOTH",
"669 186 OFFCURVE",
"672 203 OFFCURVE",
"672 220 CURVE SMOOTH",
"672 290 OFFCURVE",
"623 336 OFFCURVE",
"524 359 CURVE",
"672 404 OFFCURVE",
"761 458 OFFCURVE",
"790 522 CURVE SMOOTH",
"797 538 OFFCURVE",
"801 553 OFFCURVE",
"801 567 CURVE SMOOTH",
"801 628 OFFCURVE",
"735 658 OFFCURVE",
"602 658 CURVE SMOOTH",
"575 658 OFFCURVE",
"542 656 OFFCURVE",
"505 651 CURVE SMOOTH",
"480 646 LINE SMOOTH",
"469 644 OFFCURVE",
"461 643 OFFCURVE",
"455 643 CURVE SMOOTH",
"454 643 LINE",
"485 693 LINE",
"485 704 OFFCURVE",
"480 710 OFFCURVE",
"469 710 CURVE SMOOTH",
"460 710 OFFCURVE",
"440 685 OFFCURVE",
"408 635 CURVE",
"326 615 OFFCURVE",
"274 600 OFFCURVE",
"252 589 CURVE SMOOTH",
"245 586 OFFCURVE",
"241 581 OFFCURVE",
"241 575 CURVE SMOOTH",
"241 564 OFFCURVE",
"246 558 OFFCURVE",
"257 558 CURVE SMOOTH",
"251 558 OFFCURVE",
"293 570 OFFCURVE",
"383 594 CURVE",
"326 504 OFFCURVE",
"271 415 OFFCURVE",
"220 328 CURVE SMOOTH",
"122 162 OFFCURVE",
"61 49 OFFCURVE",
"37 -10 CURVE",
"18 -9 OFFCURVE",
"8 -14 OFFCURVE",
"8 -26 CURVE SMOOTH",
"8 -36 OFFCURVE",
"14 -41 OFFCURVE",
"25 -41 CURVE",
"20 -56 OFFCURVE",
"18 -67 OFFCURVE",
"18 -73 CURVE SMOOTH",
"18 -84 OFFCURVE",
"23 -89 OFFCURVE",
"34 -89 CURVE SMOOTH"
);
},
{
closed = 1;
nodes = (
"126 -14 OFFCURVE",
"104 -13 OFFCURVE",
"73 -12 CURVE",
"73 -13 LINE",
"152 154 OFFCURVE",
"272 359 OFFCURVE",
"431 604 CURVE",
"493 617 OFFCURVE",
"550 624 OFFCURVE",
"602 624 CURVE SMOOTH",
"713 624 OFFCURVE",
"768 604 OFFCURVE",
"768 564 CURVE SMOOTH",
"768 555 OFFCURVE",
"765 545 OFFCURVE",
"760 534 CURVE SMOOTH",
"737 485 OFFCURVE",
"673 443 OFFCURVE",
"570 408 CURVE SMOOTH",
"482 377 OFFCURVE",
"404 362 OFFCURVE",
"337 362 CURVE SMOOTH",
"326 362 OFFCURVE",
"321 358 OFFCURVE",
"321 350 CURVE SMOOTH",
"321 337 OFFCURVE",
"326 331 OFFCURVE",
"336 331 CURVE SMOOTH",
"337 331 OFFCURVE",
"347 333 OFFCURVE",
"366 338 CURVE",
"382 340 OFFCURVE",
"399 341 OFFCURVE",
"416 341 CURVE SMOOTH",
"467 341 OFFCURVE",
"513 333 OFFCURVE",
"556 317 CURVE SMOOTH",
"614 295 OFFCURVE",
"643 263 OFFCURVE",
"643 221 CURVE SMOOTH",
"643 208 OFFCURVE",
"640 194 OFFCURVE",
"634 179 CURVE SMOOTH",
"605 107 OFFCURVE",
"534 55 OFFCURVE",
"420 22 CURVE SMOOTH",
"338 -2 OFFCURVE",
"245 -14 OFFCURVE",
"141 -14 CURVE SMOOTH"
);
}
);
};
layerId = "5D3CF454-A725-4551-B6FA-6F6FD8C18533";
paths = (
{
closed = 1;
nodes = (
"45 -74 OFFCURVE",
"50 -69 OFFCURVE",
"50 -58 CURVE SMOOTH",
"50 -54 OFFCURVE",
"53 -44 OFFCURVE",
"60 -29 CURVE",
"85 -31 OFFCURVE",
"110 -32 OFFCURVE",
"134 -32 CURVE SMOOTH",
"248 -32 OFFCURVE",
"349 -19 OFFCURVE",
"437 8 CURVE SMOOTH",
"564 47 OFFCURVE",
"672 125 OFFCURVE",
"672 235 CURVE SMOOTH",
"672 305 OFFCURVE",
"623 351 OFFCURVE",
"524 374 CURVE",
"657 415 OFFCURVE",
"801 482 OFFCURVE",
"801 582 CURVE SMOOTH",
"801 643 OFFCURVE",
"735 673 OFFCURVE",
"602 673 CURVE SMOOTH",
"531 673 OFFCURVE",
"485 661 OFFCURVE",
"453 656 CURVE",
"466 679 OFFCURVE",
"485 703 OFFCURVE",
"485 711 CURVE SMOOTH",
"485 719 OFFCURVE",
"480 725 OFFCURVE",
"469 725 CURVE SMOOTH",
"461 725 OFFCURVE",
"454 717 OFFCURVE",
"439 697 CURVE SMOOTH",
"430 685 OFFCURVE",
"420 669 OFFCURVE",
"408 650 CURVE",
"326 630 OFFCURVE",
"274 615 OFFCURVE",
"252 604 CURVE SMOOTH",
"245 601 OFFCURVE",
"241 596 OFFCURVE",
"241 590 CURVE SMOOTH",
"241 579 OFFCURVE",
"246 573 OFFCURVE",
"257 573 CURVE SMOOTH",
"251 573 OFFCURVE",
"293 585 OFFCURVE",
"383 609 CURVE",
"326 519 OFFCURVE",
"271 430 OFFCURVE",
"220 343 CURVE SMOOTH",
"122 177 OFFCURVE",
"61 64 OFFCURVE",
"37 5 CURVE",
"18 6 OFFCURVE",
"8 1 OFFCURVE",
"8 -11 CURVE SMOOTH",
"8 -21 OFFCURVE",
"14 -26 OFFCURVE",
"25 -26 CURVE",
"20 -41 OFFCURVE",
"18 -52 OFFCURVE",
"18 -58 CURVE SMOOTH",
"18 -69 OFFCURVE",
"23 -74 OFFCURVE",
"34 -74 CURVE SMOOTH"
);
},
{
closed = 1;
nodes = (
"93 0 OFFCURVE",
"83 1 OFFCURVE",
"73 2 CURVE",
"152 169 OFFCURVE",
"272 374 OFFCURVE",
"431 619 CURVE",
"493 632 OFFCURVE",
"550 639 OFFCURVE",
"602 639 CURVE SMOOTH",
"713 639 OFFCURVE",
"768 619 OFFCURVE",
"768 579 CURVE SMOOTH",
"768 513 OFFCURVE",
"666 456 OFFCURVE",
"570 423 CURVE SMOOTH",
"482 392 OFFCURVE",
"404 377 OFFCURVE",
"337 377 CURVE SMOOTH",
"326 377 OFFCURVE",
"321 373 OFFCURVE",
"321 363 CURVE SMOOTH",
"321 352 OFFCURVE",
"326 346 OFFCURVE",
"336 346 CURVE SMOOTH",
"340 346 OFFCURVE",
"347 348 OFFCURVE",
"366 353 CURVE",
"382 355 OFFCURVE",
"399 356 OFFCURVE",
"416 356 CURVE SMOOTH",
"467 356 OFFCURVE",
"513 348 OFFCURVE",
"556 332 CURVE SMOOTH",
"613 310 OFFCURVE",
"641 278 OFFCURVE",
"641 236 CURVE SMOOTH",
"641 143 OFFCURVE",
"534 69 OFFCURVE",
"420 36 CURVE SMOOTH",
"338 12 OFFCURVE",
"245 0 OFFCURVE",
"141 0 CURVE SMOOTH"
);
}
);
userData = {
assembly = "NPUSHB[ ]	/* 41 values pushed */\0121 86 86 64 87 9 82 70 66 56 54 53 41 39 7 1 0 80 72 62 54 53 51 43 39 33 31 29 15 13 9 0 49 27 23 1 21 1 1 33 70 \012SROUND[ ]	/* SuperRound */\012MDAP[1]	/* MoveDirectAbsPt */\012SHZ[1]	/* ShiftZoneByLastPoint */\012RTG[ ]	/* RoundToGrid */\012SVTCA[0]	/* SetFreedomAndProjectionVectorToAxis */\012MIAP[1]	/* MoveIndirectAbsPt */\012MIAP[1]	/* MoveIndirectAbsPt */\012MDAP[1]	/* MoveDirectAbsPt */\012MDAP[1]	/* MoveDirectAbsPt */\012SVTCA[1]	/* SetFreedomAndProjectionVectorToAxis */\012MDAP[0]	/* MoveDirectAbsPt */\012MDAP[0]	/* MoveDirectAbsPt */\012MDAP[0]	/* MoveDirectAbsPt */\012MDAP[0]	/* MoveDirectAbsPt */\012MDAP[0]	/* MoveDirectAbsPt */\012MDAP[0]	/* MoveDirectAbsPt */\012MDAP[0]	/* MoveDirectAbsPt */\012MDAP[0]	/* MoveDirectAbsPt */\012MDAP[0]	/* MoveDirectAbsPt */\012MDAP[0]	/* MoveDirectAbsPt */\012MDAP[0]	/* MoveDirectAbsPt */\012MDAP[0]	/* MoveDirectAbsPt */\012MDAP[0]	/* MoveDirectAbsPt */\012MDAP[0]	/* MoveDirectAbsPt */\012MDAP[0]	/* MoveDirectAbsPt */\012SVTCA[0]	/* SetFreedomAndProjectionVectorToAxis */\012MDAP[0]	/* MoveDirectAbsPt */\012MDAP[0]	/* MoveDirectAbsPt */\012MDAP[0]	/* MoveDirectAbsPt */\012MDAP[0]	/* MoveDirectAbsPt */\012MDAP[0]	/* MoveDirectAbsPt */\012MDAP[0]	/* MoveDirectAbsPt */\012MDAP[0]	/* MoveDirectAbsPt */\012MDAP[0]	/* MoveDirectAbsPt */\012MDAP[0]	/* MoveDirectAbsPt */\012MDAP[0]	/* MoveDirectAbsPt */\012MDAP[0]	/* MoveDirectAbsPt */\012IUP[1]	/* InterpolateUntPts */\012IUP[0]	/* InterpolateUntPts */\012SVTCA[1]	/* SetFreedomAndProjectionVectorToAxis */\012MD[0]	/* MeasureDistance */\012ROUND[00]	/* Round */\012PUSHW[ ]	/* 2 values pushed */\01233 86 \012MD[0]	/* MeasureDistance */\012ROUND[00]	/* Round */\012SUB[ ]	/* Subtract */\012PUSHB[ ]	/* 1 value pushed */\01264 \012GT[ ]	/* GreaterThan */\012IF[ ]	/* If */\012SHPIX[ ]	/* ShiftZoneByPixel */\012SRP1[ ]	/* SetRefPoint1 */\012SHZ[1]	/* ShiftZoneByLastPoint */\012PUSHW[ ]	/* 2 values pushed */\01286 -64 \012SHPIX[ ]	/* ShiftZoneByPixel */\012EIF[ ]	/* EndIf */";
};
width = 733;
}
);
note = B;
unicode = 0042;
},
{
glyphname = C;
lastChange = "2021-11-06 04:46:26 +0000";
layers = (
{
background = {
paths = (
{
closed = 1;
nodes = (
"314 -60 OFFCURVE",
"372 -52 OFFCURVE",
"434 -37 CURVE SMOOTH",
"499 -20 OFFCURVE",
"554 1 OFFCURVE",
"599 27 CURVE SMOOTH",
"622 40 OFFCURVE",
"637 52 OFFCURVE",
"646 62 CURVE SMOOTH",
"659 77 OFFCURVE",
"665 90 OFFCURVE",
"665 101 CURVE SMOOTH",
"665 105 OFFCURVE",
"663 107 OFFCURVE",
"660 107 CURVE SMOOTH",
"654 107 OFFCURVE",
"643 99 OFFCURVE",
"626 83 CURVE SMOOTH",
"591 49 OFFCURVE",
"535 21 OFFCURVE",
"458 0 CURVE SMOOTH",
"391 -19 OFFCURVE",
"329 -29 OFFCURVE",
"271 -29 CURVE SMOOTH",
"192 -29 OFFCURVE",
"128 -10 OFFCURVE",
"79 27 CURVE SMOOTH",
"24 68 OFFCURVE",
"-3 126 OFFCURVE",
"-3 202 CURVE SMOOTH",
"-3 256 OFFCURVE",
"9 308 OFFCURVE",
"32 358 CURVE SMOOTH",
"46 388 OFFCURVE",
"71 421 OFFCURVE",
"107 457 CURVE SMOOTH",
"160 510 OFFCURVE",
"221 552 OFFCURVE",
"290 583 CURVE SMOOTH",
"362 614 OFFCURVE",
"434 630 OFFCURVE",
"506 630 CURVE SMOOTH",
"523 630 OFFCURVE",
"539 629 OFFCURVE",
"552 628 CURVE SMOOTH",
"589 624 OFFCURVE",
"621 612 OFFCURVE",
"650 593 CURVE SMOOTH",
"683 570 OFFCURVE",
"700 542 OFFCURVE",
"700 508 CURVE SMOOTH",
"700 485 OFFCURVE",
"691 465 OFFCURVE",
"673 447 CURVE SMOOTH",
"654 429 OFFCURVE",
"645 419 OFFCURVE",
"645 418 CURVE SMOOTH",
"645 407 OFFCURVE",
"658 396 OFFCURVE",
"669 396 CURVE SMOOTH",
"671 396 OFFCURVE",
"674 397 OFFCURVE",
"678 398 CURVE",
"717 425 OFFCURVE",
"737 458 OFFCURVE",
"737 499 CURVE SMOOTH",
"737 532 OFFCURVE",
"724 563 OFFCURVE",
"699 590 CURVE SMOOTH",
"676 615 OFFCURVE",
"648 633 OFFCURVE",
"614 644 CURVE SMOOTH",
"594 651 OFFCURVE",
"570 655 OFFCURVE",
"542 656 CURVE SMOOTH",
"538 657 OFFCURVE",
"532 657 OFFCURVE",
"525 657 CURVE SMOOTH",
"360 657 OFFCURVE",
"196 593 OFFCURVE",
"79 480 CURVE SMOOTH",
"44 446 OFFCURVE",
"17 410 OFFCURVE",
"-2 373 CURVE SMOOTH",
"-27 323 OFFCURVE",
"-40 268 OFFCURVE",
"-40 209 CURVE SMOOTH",
"-40 122 OFFCURVE",
"-11 55 OFFCURVE",
"46 7 CURVE SMOOTH",
"99 -38 OFFCURVE",
"171 -60 OFFCURVE",
"260 -60 CURVE SMOOTH"
);
}
);
};
layerId = "5D3CF454-A725-4551-B6FA-6F6FD8C18533";
paths = (
{
closed = 1;
nodes = (
"314 -45 OFFCURVE",
"371 -38 OFFCURVE",
"434 -22 CURVE SMOOTH",
"505 -4 OFFCURVE",
"582 26 OFFCURVE",
"629 62 CURVE SMOOTH",
"647 76 OFFCURVE",
"666 100 OFFCURVE",
"666 113 CURVE SMOOTH",
"666 120 OFFCURVE",
"663 122 OFFCURVE",
"659 122 CURVE SMOOTH",
"651 122 OFFCURVE",
"641 112 OFFCURVE",
"616 89 CURVE SMOOTH",
"589 65 OFFCURVE",
"535 35 OFFCURVE",
"458 14 CURVE SMOOTH",
"391 -5 OFFCURVE",
"329 -14 OFFCURVE",
"271 -14 CURVE SMOOTH",
"117 -14 OFFCURVE",
"-3 63 OFFCURVE",
"-3 217 CURVE SMOOTH",
"-3 323 OFFCURVE",
"34 400 OFFCURVE",
"108 474 CURVE SMOOTH",
"213 578 OFFCURVE",
"360 645 OFFCURVE",
"508 645 CURVE SMOOTH",
"620 645 OFFCURVE",
"700 595 OFFCURVE",
"700 523 CURVE SMOOTH",
"700 468 OFFCURVE",
"645 443 OFFCURVE",
"645 431 CURVE SMOOTH",
"645 424 OFFCURVE",
"658 411 OFFCURVE",
"669 411 CURVE SMOOTH",
"688 411 OFFCURVE",
"737 458 OFFCURVE",
"737 514 CURVE SMOOTH",
"737 600 OFFCURVE",
"650 672 OFFCURVE",
"527 672 CURVE SMOOTH",
"360 672 OFFCURVE",
"196 608 OFFCURVE",
"79 495 CURVE SMOOTH",
"1 419 OFFCURVE",
"-40 330 OFFCURVE",
"-40 224 CURVE SMOOTH",
"-40 53 OFFCURVE",
"77 -45 OFFCURVE",
"260 -45 CURVE SMOOTH"
);
}
);
userData = {
assembly = "NPUSHB[ ]	/* 22 values pushed */\0121 63 63 64 64 59 30 24 12 0 59 44 32 20 6 3 51 40 1 1 44 70 \012SROUND[ ]	/* SuperRound */\012MDAP[1]	/* MoveDirectAbsPt */\012SHZ[1]	/* ShiftZoneByLastPoint */\012RTG[ ]	/* RoundToGrid */\012SVTCA[0]	/* SetFreedomAndProjectionVectorToAxis */\012MIAP[1]	/* MoveIndirectAbsPt */\012MDAP[1]	/* MoveDirectAbsPt */\012SVTCA[1]	/* SetFreedomAndProjectionVectorToAxis */\012MDAP[0]	/* MoveDirectAbsPt */\012MDAP[0]	/* MoveDirectAbsPt */\012MDAP[0]	/* MoveDirectAbsPt */\012MDAP[0]	/* MoveDirectAbsPt */\012MDAP[0]	/* MoveDirectAbsPt */\012MDAP[0]	/* MoveDirectAbsPt */\012SVTCA[0]	/* SetFreedomAndProjectionVectorToAxis */\012MDAP[0]	/* MoveDirectAbsPt */\012MDAP[0]	/* MoveDirectAbsPt */\012MDAP[0]	/* MoveDirectAbsPt */\012MDAP[0]	/* MoveDirectAbsPt */\012IUP[1]	/* InterpolateUntPts */\012IUP[0]	/* InterpolateUntPts */\012SVTCA[1]	/* SetFreedomAndProjectionVectorToAxis */\012MD[0]	/* MeasureDistance */\012ROUND[00]	/* Round */\012PUSHW[ ]	/* 2 values pushed */\01244 63 \012MD[0]	/* MeasureDistance */\012ROUND[00]	/* Round */\012SUB[ ]	/* Subtract */\012PUSHB[ ]	/* 1 value pushed */\01264 \012GT[ ]	/* GreaterThan */\012IF[ ]	/* If */\012SHPIX[ ]	/* ShiftZoneByPixel */\012SRP1[ ]	/* SetRefPoint1 */\012SHZ[1]	/* ShiftZoneByLastPoint */\012PUSHW[ ]	/* 2 values pushed */\01263 -64 \012SHPIX[ ]	/* ShiftZoneByPixel */\012EIF[ ]	/* EndIf */";
};
width = 668;
}
);
note = C;
unicode = 0043;
},
{
color = 11;
glyphname = Ccedilla;
lastChange = "2021-11-06 03:09:09 +0000";
layers = (
{
background = {
paths = (
{
closed = 1;
nodes = (
"314 -60 OFFCURVE",
"372 -52 OFFCURVE",
"434 -37 CURVE SMOOTH",
"499 -20 OFFCURVE",
"554 1 OFFCURVE",
"599 27 CURVE SMOOTH",
"622 40 OFFCURVE",
"637 52 OFFCURVE",
"646 62 CURVE SMOOTH",
"659 77 OFFCURVE",
"665 90 OFFCURVE",
"665 101 CURVE SMOOTH",
"665 105 OFFCURVE",
"663 107 OFFCURVE",
"660 107 CURVE SMOOTH",
"654 107 OFFCURVE",
"643 99 OFFCURVE",
"626 83 CURVE SMOOTH",
"591 49 OFFCURVE",
"535 21 OFFCURVE",
"458 0 CURVE SMOOTH",
"391 -19 OFFCURVE",
"329 -29 OFFCURVE",
"271 -29 CURVE SMOOTH",
"192 -29 OFFCURVE",
"128 -10 OFFCURVE",
"79 27 CURVE SMOOTH",
"24 68 OFFCURVE",
"-3 126 OFFCURVE",
"-3 202 CURVE SMOOTH",
"-3 256 OFFCURVE",
"9 308 OFFCURVE",
"32 358 CURVE SMOOTH",
"46 388 OFFCURVE",
"71 421 OFFCURVE",
"107 457 CURVE SMOOTH",
"160 510 OFFCURVE",
"221 552 OFFCURVE",
"290 583 CURVE SMOOTH",
"362 614 OFFCURVE",
"434 630 OFFCURVE",
"506 630 CURVE SMOOTH",
"523 630 OFFCURVE",
"539 629 OFFCURVE",
"552 628 CURVE SMOOTH",
"589 624 OFFCURVE",
"621 612 OFFCURVE",
"650 593 CURVE SMOOTH",
"683 570 OFFCURVE",
"700 542 OFFCURVE",
"700 508 CURVE SMOOTH",
"700 485 OFFCURVE",
"691 465 OFFCURVE",
"673 447 CURVE SMOOTH",
"654 429 OFFCURVE",
"645 419 OFFCURVE",
"645 418 CURVE SMOOTH",
"645 407 OFFCURVE",
"658 396 OFFCURVE",
"669 396 CURVE SMOOTH",
"671 396 OFFCURVE",
"674 397 OFFCURVE",
"678 398 CURVE",
"717 425 OFFCURVE",
"737 458 OFFCURVE",
"737 499 CURVE SMOOTH",
"737 532 OFFCURVE",
"724 563 OFFCURVE",
"699 590 CURVE SMOOTH",
"676 615 OFFCURVE",
"648 633 OFFCURVE",
"614 644 CURVE SMOOTH",
"594 651 OFFCURVE",
"570 655 OFFCURVE",
"542 656 CURVE SMOOTH",
"538 657 OFFCURVE",
"532 657 OFFCURVE",
"525 657 CURVE SMOOTH",
"360 657 OFFCURVE",
"196 593 OFFCURVE",
"79 480 CURVE SMOOTH",
"44 446 OFFCURVE",
"17 410 OFFCURVE",
"-2 373 CURVE SMOOTH",
"-27 323 OFFCURVE",
"-40 268 OFFCURVE",
"-40 209 CURVE SMOOTH",
"-40 122 OFFCURVE",
"-11 55 OFFCURVE",
"46 7 CURVE SMOOTH",
"99 -38 OFFCURVE",
"171 -60 OFFCURVE",
"260 -60 CURVE SMOOTH"
);
},
{
closed = 1;
nodes = (
"245 -324 OFFCURVE",
"296 -310 OFFCURVE",
"339 -282 CURVE SMOOTH",
"378 -255 OFFCURVE",
"398 -227 OFFCURVE",
"398 -196 CURVE SMOOTH",
"398 -173 OFFCURVE",
"385 -154 OFFCURVE",
"359 -141 CURVE SMOOTH",
"334 -129 OFFCURVE",
"300 -122 OFFCURVE",
"256 -122 CURVE SMOOTH",
"248 -122 OFFCURVE",
"240 -123 OFFCURVE",
"231 -123 CURVE",
"248 -99 LINE SMOOTH",
"256 -88 OFFCURVE",
"260 -80 OFFCURVE",
"260 -75 CURVE SMOOTH",
"260 -68 OFFCURVE",
"257 -65 OFFCURVE",
"251 -65 CURVE SMOOTH",
"246 -65 OFFCURVE",
"242 -68 OFFCURVE",
"239 -73 CURVE",
"213 -104 LINE SMOOTH",
"198 -123 OFFCURVE",
"191 -136 OFFCURVE",
"191 -144 CURVE SMOOTH",
"191 -150 OFFCURVE",
"196 -153 OFFCURVE",
"205 -153 CURVE SMOOTH",
"309 -152 OFFCURVE",
"361 -167 OFFCURVE",
"361 -199 CURVE SMOOTH",
"361 -240 OFFCURVE",
"260 -294 OFFCURVE",
"181 -294 CURVE SMOOTH",
"174 -294 OFFCURVE",
"164 -292 OFFCURVE",
"151 -289 CURVE SMOOTH",
"138 -286 OFFCURVE",
"129 -284 OFFCURVE",
"124 -284 CURVE SMOOTH",
"112 -284 OFFCURVE",
"106 -289 OFFCURVE",
"106 -298 CURVE SMOOTH",
"106 -310 OFFCURVE",
"117 -318 OFFCURVE",
"140 -321 CURVE SMOOTH",
"155 -323 OFFCURVE",
"171 -324 OFFCURVE",
"186 -324 CURVE SMOOTH"
);
},
{
closed = 1;
nodes = (
"171 -60 OFFCURVE",
"99 -38 OFFCURVE",
"46 7 CURVE SMOOTH",
"-11 55 OFFCURVE",
"-40 122 OFFCURVE",
"-40 209 CURVE SMOOTH",
"-40 268 OFFCURVE",
"-27 323 OFFCURVE",
"-2 373 CURVE SMOOTH",
"17 410 OFFCURVE",
"44 446 OFFCURVE",
"79 480 CURVE SMOOTH",
"196 593 OFFCURVE",
"360 657 OFFCURVE",
"525 657 CURVE SMOOTH",
"532 657 OFFCURVE",
"538 657 OFFCURVE",
"542 656 CURVE SMOOTH",
"570 655 OFFCURVE",
"594 651 OFFCURVE",
"614 644 CURVE SMOOTH",
"648 633 OFFCURVE",
"676 615 OFFCURVE",
"699 590 CURVE SMOOTH",
"724 563 OFFCURVE",
"737 532 OFFCURVE",
"737 499 CURVE SMOOTH",
"737 458 OFFCURVE",
"717 425 OFFCURVE",
"678 398 CURVE",
"674 397 OFFCURVE",
"671 396 OFFCURVE",
"669 396 CURVE SMOOTH",
"658 396 OFFCURVE",
"645 407 OFFCURVE",
"645 418 CURVE SMOOTH",
"645 419 OFFCURVE",
"654 429 OFFCURVE",
"673 447 CURVE SMOOTH",
"691 465 OFFCURVE",
"700 485 OFFCURVE",
"700 508 CURVE SMOOTH",
"700 542 OFFCURVE",
"683 570 OFFCURVE",
"650 593 CURVE SMOOTH",
"621 612 OFFCURVE",
"589 624 OFFCURVE",
"552 628 CURVE SMOOTH",
"539 629 OFFCURVE",
"523 630 OFFCURVE",
"506 630 CURVE SMOOTH",
"434 630 OFFCURVE",
"362 614 OFFCURVE",
"290 583 CURVE SMOOTH",
"221 552 OFFCURVE",
"160 510 OFFCURVE",
"107 457 CURVE SMOOTH",
"71 421 OFFCURVE",
"46 388 OFFCURVE",
"32 358 CURVE SMOOTH",
"9 308 OFFCURVE",
"-3 256 OFFCURVE",
"-3 202 CURVE SMOOTH",
"-3 126 OFFCURVE",
"24 68 OFFCURVE",
"79 27 CURVE SMOOTH",
"128 -10 OFFCURVE",
"192 -29 OFFCURVE",
"271 -29 CURVE SMOOTH",
"329 -29 OFFCURVE",
"391 -19 OFFCURVE",
"458 0 CURVE SMOOTH",
"535 21 OFFCURVE",
"591 49 OFFCURVE",
"626 83 CURVE SMOOTH",
"643 99 OFFCURVE",
"654 107 OFFCURVE",
"660 107 CURVE SMOOTH",
"663 107 OFFCURVE",
"665 105 OFFCURVE",
"665 101 CURVE SMOOTH",
"665 90 OFFCURVE",
"659 77 OFFCURVE",
"646 62 CURVE SMOOTH",
"637 52 OFFCURVE",
"622 40 OFFCURVE",
"599 27 CURVE SMOOTH",
"554 1 OFFCURVE",
"499 -20 OFFCURVE",
"434 -37 CURVE SMOOTH",
"372 -52 OFFCURVE",
"314 -60 OFFCURVE",
"260 -60 CURVE SMOOTH"
);
}
);
};
layerId = "5D3CF454-A725-4551-B6FA-6F6FD8C18533";
paths = (
{
closed = 1;
nodes = (
"314 -45 OFFCURVE",
"372 -37 OFFCURVE",
"434 -22 CURVE SMOOTH",
"499 -5 OFFCURVE",
"554 16 OFFCURVE",
"599 42 CURVE SMOOTH",
"622 55 OFFCURVE",
"637 67 OFFCURVE",
"646 77 CURVE SMOOTH",
"659 92 OFFCURVE",
"665 105 OFFCURVE",
"665 116 CURVE SMOOTH",
"665 120 OFFCURVE",
"663 122 OFFCURVE",
"660 122 CURVE SMOOTH",
"654 122 OFFCURVE",
"643 114 OFFCURVE",
"626 98 CURVE SMOOTH",
"591 64 OFFCURVE",
"535 36 OFFCURVE",
"458 15 CURVE SMOOTH",
"391 -4 OFFCURVE",
"329 -14 OFFCURVE",
"271 -14 CURVE SMOOTH",
"192 -14 OFFCURVE",
"128 5 OFFCURVE",
"79 42 CURVE SMOOTH",
"24 83 OFFCURVE",
"-3 141 OFFCURVE",
"-3 217 CURVE SMOOTH",
"-3 271 OFFCURVE",
"9 323 OFFCURVE",
"32 373 CURVE SMOOTH",
"46 403 OFFCURVE",
"71 436 OFFCURVE",
"107 472 CURVE SMOOTH",
"160 525 OFFCURVE",
"221 567 OFFCURVE",
"290 598 CURVE SMOOTH",
"362 629 OFFCURVE",
"434 645 OFFCURVE",
"506 645 CURVE SMOOTH",
"523 645 OFFCURVE",
"539 644 OFFCURVE",
"552 643 CURVE SMOOTH",
"589 639 OFFCURVE",
"621 627 OFFCURVE",
"650 608 CURVE SMOOTH",
"683 585 OFFCURVE",
"700 557 OFFCURVE",
"700 523 CURVE SMOOTH",
"700 500 OFFCURVE",
"691 480 OFFCURVE",
"673 462 CURVE SMOOTH",
"654 444 OFFCURVE",
"645 434 OFFCURVE",
"645 433 CURVE SMOOTH",
"645 422 OFFCURVE",
"658 411 OFFCURVE",
"669 411 CURVE SMOOTH",
"671 411 OFFCURVE",
"674 412 OFFCURVE",
"678 413 CURVE",
"717 440 OFFCURVE",
"737 473 OFFCURVE",
"737 514 CURVE SMOOTH",
"737 547 OFFCURVE",
"724 578 OFFCURVE",
"699 605 CURVE SMOOTH",
"676 630 OFFCURVE",
"648 648 OFFCURVE",
"614 659 CURVE SMOOTH",
"594 666 OFFCURVE",
"570 670 OFFCURVE",
"542 671 CURVE SMOOTH",
"538 672 OFFCURVE",
"532 672 OFFCURVE",
"525 672 CURVE SMOOTH",
"360 672 OFFCURVE",
"196 608 OFFCURVE",
"79 495 CURVE SMOOTH",
"44 461 OFFCURVE",
"17 425 OFFCURVE",
"-2 388 CURVE SMOOTH",
"-27 338 OFFCURVE",
"-40 283 OFFCURVE",
"-40 224 CURVE SMOOTH",
"-40 137 OFFCURVE",
"-11 70 OFFCURVE",
"46 22 CURVE SMOOTH",
"99 -23 OFFCURVE",
"171 -45 OFFCURVE",
"260 -45 CURVE SMOOTH"
);
},
{
closed = 1;
nodes = (
"245 -309 OFFCURVE",
"296 -295 OFFCURVE",
"339 -267 CURVE SMOOTH",
"378 -240 OFFCURVE",
"398 -212 OFFCURVE",
"398 -181 CURVE SMOOTH",
"398 -158 OFFCURVE",
"385 -139 OFFCURVE",
"359 -126 CURVE SMOOTH",
"334 -114 OFFCURVE",
"300 -107 OFFCURVE",
"256 -107 CURVE SMOOTH",
"248 -107 OFFCURVE",
"240 -108 OFFCURVE",
"231 -108 CURVE",
"248 -84 LINE SMOOTH",
"256 -73 OFFCURVE",
"260 -65 OFFCURVE",
"260 -60 CURVE SMOOTH",
"260 -53 OFFCURVE",
"257 -50 OFFCURVE",
"251 -50 CURVE SMOOTH",
"246 -50 OFFCURVE",
"242 -53 OFFCURVE",
"239 -58 CURVE",
"213 -89 LINE SMOOTH",
"198 -108 OFFCURVE",
"191 -121 OFFCURVE",
"191 -129 CURVE SMOOTH",
"191 -135 OFFCURVE",
"196 -138 OFFCURVE",
"205 -138 CURVE SMOOTH",
"309 -137 OFFCURVE",
"361 -152 OFFCURVE",
"361 -184 CURVE SMOOTH",
"361 -225 OFFCURVE",
"260 -279 OFFCURVE",
"181 -279 CURVE SMOOTH",
"174 -279 OFFCURVE",
"164 -277 OFFCURVE",
"151 -274 CURVE SMOOTH",
"138 -271 OFFCURVE",
"129 -269 OFFCURVE",
"124 -269 CURVE SMOOTH",
"112 -269 OFFCURVE",
"106 -274 OFFCURVE",
"106 -283 CURVE SMOOTH",
"106 -295 OFFCURVE",
"117 -303 OFFCURVE",
"140 -306 CURVE SMOOTH",
"155 -308 OFFCURVE",
"171 -309 OFFCURVE",
"186 -309 CURVE SMOOTH"
);
},
{
closed = 1;
nodes = (
"171 -45 OFFCURVE",
"99 -23 OFFCURVE",
"46 22 CURVE SMOOTH",
"-11 70 OFFCURVE",
"-40 137 OFFCURVE",
"-40 224 CURVE SMOOTH",
"-40 283 OFFCURVE",
"-27 338 OFFCURVE",
"-2 388 CURVE SMOOTH",
"17 425 OFFCURVE",
"44 461 OFFCURVE",
"79 495 CURVE SMOOTH",
"196 608 OFFCURVE",
"360 672 OFFCURVE",
"525 672 CURVE SMOOTH",
"532 672 OFFCURVE",
"538 672 OFFCURVE",
"542 671 CURVE SMOOTH",
"570 670 OFFCURVE",
"594 666 OFFCURVE",
"614 659 CURVE SMOOTH",
"648 648 OFFCURVE",
"676 630 OFFCURVE",
"699 605 CURVE SMOOTH",
"724 578 OFFCURVE",
"737 547 OFFCURVE",
"737 514 CURVE SMOOTH",
"737 473 OFFCURVE",
"717 440 OFFCURVE",
"678 413 CURVE",
"674 412 OFFCURVE",
"671 411 OFFCURVE",
"669 411 CURVE SMOOTH",
"658 411 OFFCURVE",
"645 422 OFFCURVE",
"645 433 CURVE SMOOTH",
"645 434 OFFCURVE",
"654 444 OFFCURVE",
"673 462 CURVE SMOOTH",
"691 480 OFFCURVE",
"700 500 OFFCURVE",
"700 523 CURVE SMOOTH",
"700 557 OFFCURVE",
"683 585 OFFCURVE",
"650 608 CURVE SMOOTH",
"621 627 OFFCURVE",
"589 639 OFFCURVE",
"552 643 CURVE SMOOTH",
"539 644 OFFCURVE",
"523 645 OFFCURVE",
"506 645 CURVE SMOOTH",
"434 645 OFFCURVE",
"362 629 OFFCURVE",
"290 598 CURVE SMOOTH",
"221 567 OFFCURVE",
"160 525 OFFCURVE",
"107 472 CURVE SMOOTH",
"71 436 OFFCURVE",
"46 403 OFFCURVE",
"32 373 CURVE SMOOTH",
"9 323 OFFCURVE",
"-3 271 OFFCURVE",
"-3 217 CURVE SMOOTH",
"-3 141 OFFCURVE",
"24 83 OFFCURVE",
"79 42 CURVE SMOOTH",
"128 5 OFFCURVE",
"192 -14 OFFCURVE",
"271 -14 CURVE SMOOTH",
"329 -14 OFFCURVE",
"391 -4 OFFCURVE",
"458 15 CURVE SMOOTH",
"535 36 OFFCURVE",
"591 64 OFFCURVE",
"626 98 CURVE SMOOTH",
"643 114 OFFCURVE",
"654 122 OFFCURVE",
"660 122 CURVE SMOOTH",
"663 122 OFFCURVE",
"665 120 OFFCURVE",
"665 116 CURVE SMOOTH",
"665 105 OFFCURVE",
"659 92 OFFCURVE",
"646 77 CURVE SMOOTH",
"637 67 OFFCURVE",
"622 55 OFFCURVE",
"599 42 CURVE SMOOTH",
"554 16 OFFCURVE",
"499 -5 OFFCURVE",
"434 -22 CURVE SMOOTH",
"372 -37 OFFCURVE",
"314 -45 OFFCURVE",
"260 -45 CURVE SMOOTH"
);
}
);
userData = {
assembly = "NPUSHB[ ]	/* 43 values pushed */\0121 162 162 64 163 4 156 143 140 114 102 96 86 63 51 39 33 23 0 158 150 146 138 130 126 123 120 106 94 82 67 60 57 43 31 19 4 75 12 134 1 19 70 \012SROUND[ ]	/* SuperRound */\012MDAP[1]	/* MoveDirectAbsPt */\012SHZ[1]	/* ShiftZoneByLastPoint */\012RTG[ ]	/* RoundToGrid */\012SVTCA[0]	/* SetFreedomAndProjectionVectorToAxis */\012MDAP[1]	/* MoveDirectAbsPt */\012MDAP[1]	/* MoveDirectAbsPt */\012ALIGNRP[ ]	/* AlignRelativePt */\012SVTCA[1]	/* SetFreedomAndProjectionVectorToAxis */\012MDAP[0]	/* MoveDirectAbsPt */\012MDAP[0]	/* MoveDirectAbsPt */\012MDAP[0]	/* MoveDirectAbsPt */\012MDAP[0]	/* MoveDirectAbsPt */\012MDAP[0]	/* MoveDirectAbsPt */\012MDAP[0]	/* MoveDirectAbsPt */\012MDAP[0]	/* MoveDirectAbsPt */\012MDAP[0]	/* MoveDirectAbsPt */\012MDAP[0]	/* MoveDirectAbsPt */\012MDAP[0]	/* MoveDirectAbsPt */\012MDAP[0]	/* MoveDirectAbsPt */\012MDAP[0]	/* MoveDirectAbsPt */\012MDAP[0]	/* MoveDirectAbsPt */\012MDAP[0]	/* MoveDirectAbsPt */\012MDAP[0]	/* MoveDirectAbsPt */\012MDAP[0]	/* MoveDirectAbsPt */\012MDAP[0]	/* MoveDirectAbsPt */\012MDAP[0]	/* MoveDirectAbsPt */\012SVTCA[0]	/* SetFreedomAndProjectionVectorToAxis */\012MDAP[0]	/* MoveDirectAbsPt */\012MDAP[0]	/* MoveDirectAbsPt */\012MDAP[0]	/* MoveDirectAbsPt */\012MDAP[0]	/* MoveDirectAbsPt */\012MDAP[0]	/* MoveDirectAbsPt */\012MDAP[0]	/* MoveDirectAbsPt */\012MDAP[0]	/* MoveDirectAbsPt */\012MDAP[0]	/* MoveDirectAbsPt */\012MDAP[0]	/* MoveDirectAbsPt */\012MDAP[0]	/* MoveDirectAbsPt */\012MDAP[0]	/* MoveDirectAbsPt */\012MDAP[0]	/* MoveDirectAbsPt */\012MDAP[0]	/* MoveDirectAbsPt */\012IUP[1]	/* InterpolateUntPts */\012IUP[0]	/* InterpolateUntPts */\012SVTCA[1]	/* SetFreedomAndProjectionVectorToAxis */\012MD[0]	/* MeasureDistance */\012ROUND[00]	/* Round */\012PUSHW[ ]	/* 2 values pushed */\01219 162 \012MD[0]	/* MeasureDistance */\012ROUND[00]	/* Round */\012SUB[ ]	/* Subtract */\012PUSHB[ ]	/* 1 value pushed */\01264 \012GT[ ]	/* GreaterThan */\012IF[ ]	/* If */\012SHPIX[ ]	/* ShiftZoneByPixel */\012SRP1[ ]	/* SetRefPoint1 */\012SHZ[1]	/* ShiftZoneByLastPoint */\012PUSHW[ ]	/* 2 values pushed */\012162 -64 \012SHPIX[ ]	/* ShiftZoneByPixel */\012EIF[ ]	/* EndIf */";
};
width = 716;
}
);
note = Ccedilla;
unicode = 00C7;
},
{
glyphname = D;
lastChange = "2021-11-06 03:09:09 +0000";
layers = (
{
background = {
paths = (
{
closed = 1;
nodes = (
"20 -46 OFFCURVE",
"26 -40 OFFCURVE",
"26 -28 CURVE SMOOTH",
"26 -26 LINE",
"25 -25 OFFCURVE",
"25 -22 OFFCURVE",
"25 -19 CURVE SMOOTH",
"25 20 OFFCURVE",
"75 136 OFFCURVE",
"176 329 CURVE SMOOTH",
"204 381 OFFCURVE",
"232 433 OFFCURVE",
"259 486 CURVE SMOOTH",
"305 573 OFFCURVE",
"328 623 OFFCURVE",
"328 636 CURVE SMOOTH",
"328 639 OFFCURVE",
"327 643 OFFCURVE",
"324 647 CURVE",
"443 634 OFFCURVE",
"539 607 OFFCURVE",
"613 566 CURVE SMOOTH",
"724 503 OFFCURVE",
"780 424 OFFCURVE",
"780 328 CURVE SMOOTH",
"780 293 OFFCURVE",
"772 261 OFFCURVE",
"756 232 CURVE SMOOTH",
"721 169 OFFCURVE",
"632 114 OFFCURVE",
"491 65 CURVE SMOOTH",
"381 27 OFFCURVE",
"275 3 OFFCURVE",
"172 -8 CURVE SMOOTH",
"159 -9 OFFCURVE",
"148 -10 OFFCURVE",
"137 -10 CURVE SMOOTH",
"109 -10 OFFCURVE",
"89 -7 OFFCURVE",
"77 -2 CURVE SMOOTH",
"69 1 OFFCURVE",
"64 2 OFFCURVE",
"61 2 CURVE SMOOTH",
"52 2 OFFCURVE",
"47 -1 OFFCURVE",
"47 -8 CURVE SMOOTH",
"47 -9 OFFCURVE",
"48 -12 OFFCURVE",
"49 -16 CURVE",
"49 -17 LINE",
"61 -34 OFFCURVE",
"86 -43 OFFCURVE",
"124 -43 CURVE SMOOTH",
"141 -43 OFFCURVE",
"159 -42 OFFCURVE",
"178 -40 CURVE SMOOTH",
"290 -28 OFFCURVE",
"401 -3 OFFCURVE",
"512 36 CURVE SMOOTH",
"656 87 OFFCURVE",
"748 146 OFFCURVE",
"788 214 CURVE SMOOTH",
"806 245 OFFCURVE",
"815 279 OFFCURVE",
"815 318 CURVE SMOOTH",
"815 376 OFFCURVE",
"796 431 OFFCURVE",
"758 482 CURVE SMOOTH",
"724 527 OFFCURVE",
"679 564 OFFCURVE",
"624 595 CURVE",
"624 594 LINE",
"517 655 OFFCURVE",
"391 685 OFFCURVE",
"246 685 CURVE SMOOTH",
"235 685 OFFCURVE",
"230 680 OFFCURVE",
"230 671 CURVE SMOOTH",
"230 660 OFFCURVE",
"239 653 OFFCURVE",
"256 651 CURVE SMOOTH",
"295 649 LINE",
"294 648 OFFCURVE",
"293 646 OFFCURVE",
"293 643 CURVE SMOOTH",
"292 629 OFFCURVE",
"269 581 OFFCURVE",
"226 498 CURVE SMOOTH",
"146 347 LINE SMOOTH",
"44 152 OFFCURVE",
"-7 30 OFFCURVE",
"-7 -17 CURVE SMOOTH",
"-7 -20 OFFCURVE",
"-6 -26 OFFCURVE",
"-5 -34 CURVE",
"-5 -31 LINE SMOOTH",
"-5 -41 OFFCURVE",
"-1 -46 OFFCURVE",
"8 -46 CURVE SMOOTH"
);
}
);
};
layerId = "5D3CF454-A725-4551-B6FA-6F6FD8C18533";
paths = (
{
closed = 1;
nodes = (
"20 -31 OFFCURVE",
"26 -23 OFFCURVE",
"26 -16 CURVE SMOOTH",
"26 -11 OFFCURVE",
"25 -9 OFFCURVE",
"25 -4 CURVE SMOOTH",
"25 35 OFFCURVE",
"75 151 OFFCURVE",
"176 344 CURVE SMOOTH",
"239 462 OFFCURVE",
"328 627 OFFCURVE",
"328 651 CURVE SMOOTH",
"328 655 OFFCURVE",
"327 658 OFFCURVE",
"324 662 CURVE",
"443 649 OFFCURVE",
"539 622 OFFCURVE",
"613 581 CURVE SMOOTH",
"724 518 OFFCURVE",
"780 439 OFFCURVE",
"780 343 CURVE SMOOTH",
"780 207 OFFCURVE",
"659 138 OFFCURVE",
"491 80 CURVE SMOOTH",
"388 44 OFFCURVE",
"227 5 OFFCURVE",
"132 5 CURVE SMOOTH",
"81 5 OFFCURVE",
"74 17 OFFCURVE",
"59 17 CURVE SMOOTH",
"52 17 OFFCURVE",
"47 13 OFFCURVE",
"47 6 CURVE SMOOTH",
"47 -2 OFFCURVE",
"53 -10 OFFCURVE",
"68 -18 CURVE SMOOTH",
"82 -25 OFFCURVE",
"100 -28 OFFCURVE",
"124 -28 CURVE SMOOTH",
"227 -28 OFFCURVE",
"395 10 OFFCURVE",
"512 51 CURVE SMOOTH",
"683 111 OFFCURVE",
"815 189 OFFCURVE",
"815 333 CURVE SMOOTH",
"815 451 OFFCURVE",
"735 547 OFFCURVE",
"624 610 CURVE SMOOTH",
"517 670 OFFCURVE",
"391 700 OFFCURVE",
"246 700 CURVE SMOOTH",
"235 700 OFFCURVE",
"230 695 OFFCURVE",
"230 686 CURVE SMOOTH",
"230 676 OFFCURVE",
"239 667 OFFCURVE",
"256 666 CURVE SMOOTH",
"295 664 LINE",
"294 663 OFFCURVE",
"293 661 OFFCURVE",
"293 658 CURVE SMOOTH",
"291 637 OFFCURVE",
"262 581 OFFCURVE",
"146 362 CURVE SMOOTH",
"43 168 OFFCURVE",
"-7 45 OFFCURVE",
"-7 -6 CURVE SMOOTH",
"-7 -24 OFFCURVE",
"-1 -31 OFFCURVE",
"10 -31 CURVE SMOOTH"
);
}
);
userData = {
assembly = "NPUSHB[ ]	/* 39 values pushed */\0121 70 70 64 71 5 51 36 24 20 1 0 66 62 54 52 51 47 46 44 38 36 32 18 16 15 5 1 0 68 52 1 49 1 13 1 1 54 70 \012SROUND[ ]	/* SuperRound */\012MDAP[1]	/* MoveDirectAbsPt */\012SHZ[1]	/* ShiftZoneByLastPoint */\012RTG[ ]	/* RoundToGrid */\012SVTCA[0]	/* SetFreedomAndProjectionVectorToAxis */\012MIAP[1]	/* MoveIndirectAbsPt */\012MIAP[1]	/* MoveIndirectAbsPt */\012MIAP[1]	/* MoveIndirectAbsPt */\012MDAP[1]	/* MoveDirectAbsPt */\012SVTCA[1]	/* SetFreedomAndProjectionVectorToAxis */\012MDAP[0]	/* MoveDirectAbsPt */\012MDAP[0]	/* MoveDirectAbsPt */\012MDAP[0]	/* MoveDirectAbsPt */\012MDAP[0]	/* MoveDirectAbsPt */\012MDAP[0]	/* MoveDirectAbsPt */\012MDAP[0]	/* MoveDirectAbsPt */\012MDAP[0]	/* MoveDirectAbsPt */\012MDAP[0]	/* MoveDirectAbsPt */\012MDAP[0]	/* MoveDirectAbsPt */\012MDAP[0]	/* MoveDirectAbsPt */\012MDAP[0]	/* MoveDirectAbsPt */\012MDAP[0]	/* MoveDirectAbsPt */\012MDAP[0]	/* MoveDirectAbsPt */\012MDAP[0]	/* MoveDirectAbsPt */\012MDAP[0]	/* MoveDirectAbsPt */\012MDAP[0]	/* MoveDirectAbsPt */\012MDAP[0]	/* MoveDirectAbsPt */\012SVTCA[0]	/* SetFreedomAndProjectionVectorToAxis */\012MDAP[0]	/* MoveDirectAbsPt */\012MDAP[0]	/* MoveDirectAbsPt */\012MDAP[0]	/* MoveDirectAbsPt */\012MDAP[0]	/* MoveDirectAbsPt */\012MDAP[0]	/* MoveDirectAbsPt */\012MDAP[0]	/* MoveDirectAbsPt */\012IUP[1]	/* InterpolateUntPts */\012IUP[0]	/* InterpolateUntPts */\012SVTCA[1]	/* SetFreedomAndProjectionVectorToAxis */\012MD[0]	/* MeasureDistance */\012ROUND[00]	/* Round */\012PUSHW[ ]	/* 2 values pushed */\01254 70 \012MD[0]	/* MeasureDistance */\012ROUND[00]	/* Round */\012SUB[ ]	/* Subtract */\012PUSHB[ ]	/* 1 value pushed */\01264 \012GT[ ]	/* GreaterThan */\012IF[ ]	/* If */\012SHPIX[ ]	/* ShiftZoneByPixel */\012SRP1[ ]	/* SetRefPoint1 */\012SHZ[1]	/* ShiftZoneByLastPoint */\012PUSHW[ ]	/* 2 values pushed */\01270 -64 \012SHPIX[ ]	/* ShiftZoneByPixel */\012EIF[ ]	/* EndIf */";
};
width = 821;
}
);
note = D;
unicode = 0044;
},
{
glyphname = E;
lastChange = "2021-11-06 03:09:09 +0000";
layers = (
{
background = {
paths = (
{
closed = 1;
nodes = (
"32 -52 LINE SMOOTH",
"172 -23 OFFCURVE",
"243 -9 OFFCURVE",
"245 -9 CURVE SMOOTH",
"329 6 OFFCURVE",
"401 14 OFFCURVE",
"460 14 CURVE SMOOTH",
"498 14 OFFCURVE",
"519 11 OFFCURVE",
"522 6 CURVE",
"525 6 OFFCURVE",
"527 3 OFFCURVE",
"529 -4 CURVE SMOOTH",
"530 -11 OFFCURVE",
"535 -14 OFFCURVE",
"543 -14 CURVE SMOOTH",
"554 -14 OFFCURVE",
"559 -9 OFFCURVE",
"559 2 CURVE SMOOTH",
"559 33 OFFCURVE",
"527 48 OFFCURVE",
"463 48 CURVE SMOOTH",
"371 48 OFFCURVE",
"235 28 OFFCURVE",
"55 -12 CURVE",
"100 84 OFFCURVE",
"171 206 OFFCURVE",
"268 354 CURVE",
"534 354 LINE SMOOTH",
"545 354 OFFCURVE",
"550 359 OFFCURVE",
"550 370 CURVE SMOOTH",
"550 381 OFFCURVE",
"545 386 OFFCURVE",
"534 386 CURVE SMOOTH",
"289 386 LINE",
"374 509 OFFCURVE",
"430 580 OFFCURVE",
"458 601 CURVE",
"523 612 OFFCURVE",
"578 617 OFFCURVE",
"623 617 CURVE SMOOTH",
"681 617 OFFCURVE",
"730 613 OFFCURVE",
"769 606 CURVE",
"773 606 LINE SMOOTH",
"783 606 OFFCURVE",
"788 612 OFFCURVE",
"788 623 CURVE SMOOTH",
"788 630 OFFCURVE",
"784 635 OFFCURVE",
"776 638 CURVE SMOOTH",
"757 646 OFFCURVE",
"711 650 OFFCURVE",
"640 650 CURVE SMOOTH",
"572 650 OFFCURVE",
"506 644 OFFCURVE",
"443 631 CURVE",
"442 630 LINE SMOOTH",
"413 607 OFFCURVE",
"379 568 OFFCURVE",
"339 515 CURVE SMOOTH",
"322 491 OFFCURVE",
"292 448 OFFCURVE",
"251 386 CURVE",
"227 386 OFFCURVE",
"217 386 OFFCURVE",
"221 387 CURVE SMOOTH",
"208 386 OFFCURVE",
"202 380 OFFCURVE",
"202 370 CURVE SMOOTH",
"202 359 OFFCURVE",
"211 354 OFFCURVE",
"229 354 CURVE",
"121 185 OFFCURVE",
"49 57 OFFCURVE",
"13 -30 CURVE",
"13 -45 OFFCURVE",
"19 -52 OFFCURVE",
"31 -52 CURVE SMOOTH"
);
}
);
};
layerId = "5D3CF454-A725-4551-B6FA-6F6FD8C18533";
paths = (
{
closed = 1;
nodes = (
"52 -37 OFFCURVE",
"128 -12 OFFCURVE",
"245 6 CURVE SMOOTH",
"328 19 OFFCURVE",
"401 29 OFFCURVE",
"460 29 CURVE SMOOTH",
"506 29 OFFCURVE",
"527 26 OFFCURVE",
"529 11 CURVE SMOOTH",
"530 4 OFFCURVE",
"535 1 OFFCURVE",
"543 1 CURVE SMOOTH",
"554 1 OFFCURVE",
"559 6 OFFCURVE",
"559 17 CURVE SMOOTH",
"559 48 OFFCURVE",
"527 63 OFFCURVE",
"463 63 CURVE SMOOTH",
"371 63 OFFCURVE",
"235 43 OFFCURVE",
"55 3 CURVE",
"100 99 OFFCURVE",
"171 221 OFFCURVE",
"268 369 CURVE",
"534 369 LINE SMOOTH",
"545 369 OFFCURVE",
"550 374 OFFCURVE",
"550 385 CURVE SMOOTH",
"550 396 OFFCURVE",
"545 401 OFFCURVE",
"534 401 CURVE SMOOTH",
"289 401 LINE",
"374 524 OFFCURVE",
"430 595 OFFCURVE",
"458 616 CURVE",
"523 627 OFFCURVE",
"578 632 OFFCURVE",
"623 632 CURVE SMOOTH",
"716 632 OFFCURVE",
"757 621 OFFCURVE",
"773 621 CURVE SMOOTH",
"783 621 OFFCURVE",
"788 627 OFFCURVE",
"788 638 CURVE SMOOTH",
"788 647 OFFCURVE",
"783 652 OFFCURVE",
"766 656 CURVE SMOOTH",
"742 662 OFFCURVE",
"698 665 OFFCURVE",
"640 665 CURVE SMOOTH",
"572 665 OFFCURVE",
"506 659 OFFCURVE",
"443 646 CURVE",
"401 608 OFFCURVE",
"368 569 OFFCURVE",
"339 530 CURVE SMOOTH",
"322 506 OFFCURVE",
"292 463 OFFCURVE",
"251 401 CURVE",
"242 401 OFFCURVE",
"230 402 OFFCURVE",
"221 402 CURVE SMOOTH",
"208 402 OFFCURVE",
"202 395 OFFCURVE",
"202 385 CURVE SMOOTH",
"202 374 OFFCURVE",
"211 369 OFFCURVE",
"229 369 CURVE",
"137 225 OFFCURVE",
"71 110 OFFCURVE",
"31 26 CURVE SMOOTH",
"24 11 OFFCURVE",
"13 -9 OFFCURVE",
"13 -20 CURVE SMOOTH",
"13 -30 OFFCURVE",
"19 -37 OFFCURVE",
"31 -37 CURVE SMOOTH"
);
}
);
userData = {
assembly = "NPUSHB[ ]	/* 34 values pushed */\0121 54 54 64 55 42 52 51 47 45 44 31 29 16 11 7 5 3 2 51 42 27 25 23 9 5 0 38 21 20 1 1 23 70 \012SROUND[ ]	/* SuperRound */\012MDAP[1]	/* MoveDirectAbsPt */\012SHZ[1]	/* ShiftZoneByLastPoint */\012RTG[ ]	/* RoundToGrid */\012SVTCA[0]	/* SetFreedomAndProjectionVectorToAxis */\012MIAP[1]	/* MoveIndirectAbsPt */\012ALIGNRP[ ]	/* AlignRelativePt */\012MDAP[1]	/* MoveDirectAbsPt */\012SVTCA[1]	/* SetFreedomAndProjectionVectorToAxis */\012MDAP[0]	/* MoveDirectAbsPt */\012MDAP[0]	/* MoveDirectAbsPt */\012MDAP[0]	/* MoveDirectAbsPt */\012MDAP[0]	/* MoveDirectAbsPt */\012MDAP[0]	/* MoveDirectAbsPt */\012MDAP[0]	/* MoveDirectAbsPt */\012MDAP[0]	/* MoveDirectAbsPt */\012MDAP[0]	/* MoveDirectAbsPt */\012SVTCA[0]	/* SetFreedomAndProjectionVectorToAxis */\012MDAP[0]	/* MoveDirectAbsPt */\012MDAP[0]	/* MoveDirectAbsPt */\012MDAP[0]	/* MoveDirectAbsPt */\012MDAP[0]	/* MoveDirectAbsPt */\012MDAP[0]	/* MoveDirectAbsPt */\012MDAP[0]	/* MoveDirectAbsPt */\012MDAP[0]	/* MoveDirectAbsPt */\012MDAP[0]	/* MoveDirectAbsPt */\012MDAP[0]	/* MoveDirectAbsPt */\012MDAP[0]	/* MoveDirectAbsPt */\012MDAP[0]	/* MoveDirectAbsPt */\012MDAP[0]	/* MoveDirectAbsPt */\012MDAP[0]	/* MoveDirectAbsPt */\012IUP[1]	/* InterpolateUntPts */\012IUP[0]	/* InterpolateUntPts */\012SVTCA[1]	/* SetFreedomAndProjectionVectorToAxis */\012MD[0]	/* MeasureDistance */\012ROUND[00]	/* Round */\012PUSHW[ ]	/* 2 values pushed */\01223 54 \012MD[0]	/* MeasureDistance */\012ROUND[00]	/* Round */\012SUB[ ]	/* Subtract */\012PUSHB[ ]	/* 1 value pushed */\01264 \012GT[ ]	/* GreaterThan */\012IF[ ]	/* If */\012SHPIX[ ]	/* ShiftZoneByPixel */\012SRP1[ ]	/* SetRefPoint1 */\012SHZ[1]	/* ShiftZoneByLastPoint */\012PUSHW[ ]	/* 2 values pushed */\01254 -64 \012SHPIX[ ]	/* ShiftZoneByPixel */\012EIF[ ]	/* EndIf */";
};
width = 624;
}
);
note = E;
unicode = 0045;
},
{
glyphname = F;
lastChange = "2021-11-06 03:09:09 +0000";
layers = (
{
background = {
paths = (
{
closed = 1;
nodes = (
"26 -50 OFFCURVE",
"31 -46 OFFCURVE",
"34 -38 CURVE",
"49 35 OFFCURVE",
"118 166 OFFCURVE",
"241 353 CURVE",
"509 353 LINE",
"520 354 OFFCURVE",
"525 360 OFFCURVE",
"525 370 CURVE SMOOTH",
"525 381 OFFCURVE",
"520 386 OFFCURVE",
"509 386 CURVE SMOOTH",
"263 386 LINE",
"338 488 OFFCURVE",
"396 564 OFFCURVE",
"436 614 CURVE",
"705 614 LINE SMOOTH",
"716 614 OFFCURVE",
"721 620 OFFCURVE",
"721 632 CURVE SMOOTH",
"720 643 OFFCURVE",
"715 648 OFFCURVE",
"706 648 CURVE SMOOTH",
"704 648 LINE",
"369 648 LINE SMOOTH",
"348 648 OFFCURVE",
"338 642 OFFCURVE",
"338 630 CURVE SMOOTH",
"338 618 OFFCURVE",
"351 611 OFFCURVE",
"377 611 CURVE SMOOTH",
"381 611 OFFCURVE",
"386 612 OFFCURVE",
"392 612 CURVE",
"365 582 OFFCURVE",
"335 545 OFFCURVE",
"304 502 CURVE SMOOTH",
"289 481 OFFCURVE",
"262 442 OFFCURVE",
"223 386 CURVE",
"195 386 LINE",
"183 385 OFFCURVE",
"177 379 OFFCURVE",
"177 370 CURVE SMOOTH",
"177 359 OFFCURVE",
"185 354 OFFCURVE",
"202 354 CURVE",
"99 197 OFFCURVE",
"35 77 OFFCURVE",
"8 -6 CURVE SMOOTH",
"3 -21 OFFCURVE",
"1 -29 OFFCURVE",
"1 -32 CURVE SMOOTH",
"1 -44 OFFCURVE",
"7 -50 OFFCURVE",
"19 -50 CURVE SMOOTH"
);
}
);
};
layerId = "5D3CF454-A725-4551-B6FA-6F6FD8C18533";
paths = (
{
closed = 1;
nodes = (
"26 -35 OFFCURVE",
"32 -30 OFFCURVE",
"34 -23 CURVE SMOOTH",
"52 58 OFFCURVE",
"118 181 OFFCURVE",
"241 368 CURVE",
"509 368 LINE",
"520 369 OFFCURVE",
"525 375 OFFCURVE",
"525 385 CURVE SMOOTH",
"525 396 OFFCURVE",
"520 401 OFFCURVE",
"509 401 CURVE SMOOTH",
"263 401 LINE",
"338 507 OFFCURVE",
"386 567 OFFCURVE",
"436 629 CURVE",
"705 629 LINE SMOOTH",
"716 629 OFFCURVE",
"721 635 OFFCURVE",
"721 647 CURVE SMOOTH",
"720 658 OFFCURVE",
"715 663 OFFCURVE",
"704 663 CURVE SMOOTH",
"369 663 LINE SMOOTH",
"348 663 OFFCURVE",
"338 657 OFFCURVE",
"338 645 CURVE SMOOTH",
"338 633 OFFCURVE",
"351 626 OFFCURVE",
"377 626 CURVE SMOOTH",
"381 626 OFFCURVE",
"386 627 OFFCURVE",
"392 627 CURVE",
"365 596 OFFCURVE",
"337 560 OFFCURVE",
"310 524 CURVE SMOOTH",
"289 496 OFFCURVE",
"262 457 OFFCURVE",
"223 401 CURVE",
"195 401 LINE",
"183 400 OFFCURVE",
"177 394 OFFCURVE",
"177 385 CURVE SMOOTH",
"177 374 OFFCURVE",
"185 369 OFFCURVE",
"202 369 CURVE",
"99 212 OFFCURVE",
"35 92 OFFCURVE",
"8 9 CURVE SMOOTH",
"3 -6 OFFCURVE",
"1 -14 OFFCURVE",
"1 -18 CURVE SMOOTH",
"1 -29 OFFCURVE",
"7 -35 OFFCURVE",
"18 -35 CURVE SMOOTH"
);
}
);
userData = {
assembly = "NPUSHB[ ]	/* 29 values pushed */\0121 39 39 64 40 34 37 36 22 20 6 5 1 0 34 28 26 18 16 12 3 0 32 30 10 1 1 12 70 \012SROUND[ ]	/* SuperRound */\012MDAP[1]	/* MoveDirectAbsPt */\012SHZ[1]	/* ShiftZoneByLastPoint */\012RTG[ ]	/* RoundToGrid */\012SVTCA[0]	/* SetFreedomAndProjectionVectorToAxis */\012MIAP[1]	/* MoveIndirectAbsPt */\012MDAP[1]	/* MoveDirectAbsPt */\012ALIGNRP[ ]	/* AlignRelativePt */\012SVTCA[1]	/* SetFreedomAndProjectionVectorToAxis */\012MDAP[0]	/* MoveDirectAbsPt */\012MDAP[0]	/* MoveDirectAbsPt */\012MDAP[0]	/* MoveDirectAbsPt */\012MDAP[0]	/* MoveDirectAbsPt */\012MDAP[0]	/* MoveDirectAbsPt */\012MDAP[0]	/* MoveDirectAbsPt */\012MDAP[0]	/* MoveDirectAbsPt */\012MDAP[0]	/* MoveDirectAbsPt */\012SVTCA[0]	/* SetFreedomAndProjectionVectorToAxis */\012MDAP[0]	/* MoveDirectAbsPt */\012MDAP[0]	/* MoveDirectAbsPt */\012MDAP[0]	/* MoveDirectAbsPt */\012MDAP[0]	/* MoveDirectAbsPt */\012MDAP[0]	/* MoveDirectAbsPt */\012MDAP[0]	/* MoveDirectAbsPt */\012MDAP[0]	/* MoveDirectAbsPt */\012MDAP[0]	/* MoveDirectAbsPt */\012IUP[1]	/* InterpolateUntPts */\012IUP[0]	/* InterpolateUntPts */\012SVTCA[1]	/* SetFreedomAndProjectionVectorToAxis */\012MD[0]	/* MeasureDistance */\012ROUND[00]	/* Round */\012PUSHW[ ]	/* 2 values pushed */\01212 39 \012MD[0]	/* MeasureDistance */\012ROUND[00]	/* Round */\012SUB[ ]	/* Subtract */\012PUSHB[ ]	/* 1 value pushed */\01264 \012GT[ ]	/* GreaterThan */\012IF[ ]	/* If */\012SHPIX[ ]	/* ShiftZoneByPixel */\012SRP1[ ]	/* SetRefPoint1 */\012SHZ[1]	/* ShiftZoneByLastPoint */\012PUSHW[ ]	/* 2 values pushed */\01239 -64 \012SHPIX[ ]	/* ShiftZoneByPixel */\012EIF[ ]	/* EndIf */";
};
width = 461;
}
);
note = F;
unicode = 0046;
},
{
glyphname = G;
lastChange = "2021-11-06 03:09:09 +0000";
layers = (
{
background = {
paths = (
{
closed = 1;
nodes = (
"391 -58 OFFCURVE",
"448 -48 OFFCURVE",
"511 -27 CURVE SMOOTH",
"569 -8 OFFCURVE",
"622 16 OFFCURVE",
"669 46 CURVE",
"660 22 OFFCURVE",
"655 6 OFFCURVE",
"655 -3 CURVE SMOOTH",
"655 -15 OFFCURVE",
"662 -21 OFFCURVE",
"675 -21 CURVE SMOOTH",
"681 -21 OFFCURVE",
"685 -17 OFFCURVE",
"687 -10 CURVE SMOOTH",
"693 11 OFFCURVE",
"702 34 OFFCURVE",
"714 58 CURVE SMOOTH",
"721 72 OFFCURVE",
"733 94 OFFCURVE",
"750 123 CURVE SMOOTH",
"793 196 OFFCURVE",
"822 247 OFFCURVE",
"837 276 CURVE",
"852 276 OFFCURVE",
"869 274 OFFCURVE",
"889 271 CURVE SMOOTH",
"908 268 LINE",
"919 268 OFFCURVE",
"924 273 OFFCURVE",
"924 283 CURVE SMOOTH",
"924 294 OFFCURVE",
"919 300 OFFCURVE",
"908 300 CURVE SMOOTH",
"909 300 LINE SMOOTH",
"888 305 OFFCURVE",
"868 307 OFFCURVE",
"851 308 CURVE",
"848 319 OFFCURVE",
"842 324 OFFCURVE",
"831 324 CURVE SMOOTH",
"826 324 OFFCURVE",
"823 322 OFFCURVE",
"820 317 CURVE",
"820 318 LINE",
"815 308 LINE",
"765 309 OFFCURVE",
"713 305 OFFCURVE",
"660 295 CURVE SMOOTH",
"597 284 OFFCURVE",
"548 268 OFFCURVE",
"513 247 CURVE SMOOTH",
"508 244 OFFCURVE",
"505 240 OFFCURVE",
"505 235 CURVE SMOOTH",
"505 222 OFFCURVE",
"511 216 OFFCURVE",
"524 216 CURVE",
"630 247 LINE SMOOTH",
"700 267 OFFCURVE",
"756 277 OFFCURVE",
"798 277 CURVE",
"769 224 OFFCURVE",
"746 184 OFFCURVE",
"730 157 CURVE SMOOTH",
"700 106 LINE",
"693 99 OFFCURVE",
"678 87 OFFCURVE",
"654 71 CURVE SMOOTH",
"611 43 OFFCURVE",
"562 20 OFFCURVE",
"508 2 CURVE SMOOTH",
"451 -17 OFFCURVE",
"398 -27 OFFCURVE",
"350 -27 CURVE SMOOTH",
"329 -27 OFFCURVE",
"308 -25 OFFCURVE",
"288 -20 CURVE SMOOTH",
"161 10 OFFCURVE",
"97 84 OFFCURVE",
"97 202 CURVE SMOOTH",
"97 255 OFFCURVE",
"109 306 OFFCURVE",
"132 356 CURVE SMOOTH",
"147 389 OFFCURVE",
"172 422 OFFCURVE",
"207 457 CURVE SMOOTH",
"260 510 OFFCURVE",
"321 552 OFFCURVE",
"390 583 CURVE SMOOTH",
"461 614 OFFCURVE",
"533 630 OFFCURVE",
"606 630 CURVE SMOOTH",
"623 630 OFFCURVE",
"639 629 OFFCURVE",
"652 628 CURVE SMOOTH",
"689 624 OFFCURVE",
"721 612 OFFCURVE",
"750 593 CURVE SMOOTH",
"783 570 OFFCURVE",
"800 542 OFFCURVE",
"800 508 CURVE SMOOTH",
"800 485 OFFCURVE",
"791 465 OFFCURVE",
"773 447 CURVE SMOOTH",
"754 429 OFFCURVE",
"745 419 OFFCURVE",
"745 418 CURVE SMOOTH",
"745 407 OFFCURVE",
"758 396 OFFCURVE",
"769 396 CURVE SMOOTH",
"771 396 OFFCURVE",
"774 397 OFFCURVE",
"778 398 CURVE",
"817 424 OFFCURVE",
"837 458 OFFCURVE",
"837 499 CURVE SMOOTH",
"837 546 OFFCURVE",
"816 584 OFFCURVE",
"773 614 CURVE SMOOTH",
"735 640 OFFCURVE",
"691 654 OFFCURVE",
"642 656 CURVE",
"639 657 OFFCURVE",
"633 657 OFFCURVE",
"625 657 CURVE SMOOTH",
"457 657 OFFCURVE",
"313 602 OFFCURVE",
"192 492 CURVE SMOOTH",
"150 454 OFFCURVE",
"119 414 OFFCURVE",
"98 373 CURVE SMOOTH",
"73 323 OFFCURVE",
"60 268 OFFCURVE",
"60 209 CURVE SMOOTH",
"60 48 OFFCURVE",
"176 -58 OFFCURVE",
"340 -58 CURVE SMOOTH"
);
}
);
};
layerId = "5D3CF454-A725-4551-B6FA-6F6FD8C18533";
paths = (
{
closed = 1;
nodes = (
"442 -43 OFFCURVE",
"578 3 OFFCURVE",
"669 61 CURVE",
"660 37 OFFCURVE",
"655 21 OFFCURVE",
"655 12 CURVE SMOOTH",
"655 0 OFFCURVE",
"662 -6 OFFCURVE",
"675 -6 CURVE SMOOTH",
"681 -6 OFFCURVE",
"685 -2 OFFCURVE",
"687 5 CURVE SMOOTH",
"693 26 OFFCURVE",
"702 49 OFFCURVE",
"714 73 CURVE SMOOTH",
"721 87 OFFCURVE",
"733 109 OFFCURVE",
"750 138 CURVE SMOOTH",
"793 211 OFFCURVE",
"822 262 OFFCURVE",
"837 291 CURVE",
"869 291 OFFCURVE",
"900 283 OFFCURVE",
"909 283 CURVE SMOOTH",
"919 283 OFFCURVE",
"924 288 OFFCURVE",
"924 298 CURVE SMOOTH",
"924 309 OFFCURVE",
"919 314 OFFCURVE",
"908 316 CURVE SMOOTH",
"885 320 OFFCURVE",
"868 322 OFFCURVE",
"851 323 CURVE",
"848 334 OFFCURVE",
"842 339 OFFCURVE",
"832 339 CURVE SMOOTH",
"826 339 OFFCURVE",
"821 336 OFFCURVE",
"818 329 CURVE SMOOTH",
"815 323 LINE",
"765 324 OFFCURVE",
"713 320 OFFCURVE",
"660 310 CURVE SMOOTH",
"601 299 OFFCURVE",
"552 283 OFFCURVE",
"521 266 CURVE SMOOTH",
"508 259 OFFCURVE",
"505 255 OFFCURVE",
"505 249 CURVE SMOOTH",
"505 237 OFFCURVE",
"511 231 OFFCURVE",
"522 231 CURVE SMOOTH",
"533 231 OFFCURVE",
"581 249 OFFCURVE",
"622 260 CURVE SMOOTH",
"690 279 OFFCURVE",
"756 292 OFFCURVE",
"798 292 CURVE",
"769 239 OFFCURVE",
"746 199 OFFCURVE",
"730 172 CURVE SMOOTH",
"700 121 LINE",
"693 114 OFFCURVE",
"678 102 OFFCURVE",
"654 86 CURVE SMOOTH",
"570 31 OFFCURVE",
"445 -12 OFFCURVE",
"350 -12 CURVE SMOOTH",
"295 -12 OFFCURVE",
"231 4 OFFCURVE",
"181 40 CURVE SMOOTH",
"131 76 OFFCURVE",
"97 131 OFFCURVE",
"97 217 CURVE SMOOTH",
"97 320 OFFCURVE",
"136 401 OFFCURVE",
"207 472 CURVE SMOOTH",
"313 578 OFFCURVE",
"459 645 OFFCURVE",
"606 645 CURVE SMOOTH",
"703 645 OFFCURVE",
"800 605 OFFCURVE",
"800 523 CURVE SMOOTH",
"800 500 OFFCURVE",
"791 480 OFFCURVE",
"773 462 CURVE SMOOTH",
"754 444 OFFCURVE",
"745 437 OFFCURVE",
"745 431 CURVE SMOOTH",
"745 422 OFFCURVE",
"758 411 OFFCURVE",
"769 411 CURVE SMOOTH",
"782 411 OFFCURVE",
"804 433 OFFCURVE",
"812 444 CURVE SMOOTH",
"829 464 OFFCURVE",
"837 488 OFFCURVE",
"837 514 CURVE SMOOTH",
"837 614 OFFCURVE",
"731 672 OFFCURVE",
"625 672 CURVE SMOOTH",
"457 672 OFFCURVE",
"313 617 OFFCURVE",
"192 507 CURVE SMOOTH",
"106 429 OFFCURVE",
"60 337 OFFCURVE",
"60 224 CURVE SMOOTH",
"60 63 OFFCURVE",
"176 -43 OFFCURVE",
"340 -43 CURVE SMOOTH"
);
}
);
userData = {
assembly = "NPUSHB[ ]	/* 42 values pushed */\0121 97 97 64 98 79 93 85 81 77 76 60 57 47 35 23 0 95 79 77 76 70 69 62 57 43 29 26 19 7 0 13 72 2 70 69 2 4 1 1 7 70 \012SROUND[ ]	/* SuperRound */\012MDAP[1]	/* MoveDirectAbsPt */\012SHZ[1]	/* ShiftZoneByLastPoint */\012RTG[ ]	/* RoundToGrid */\012SVTCA[0]	/* SetFreedomAndProjectionVectorToAxis */\012MIAP[1]	/* MoveIndirectAbsPt */\012MIAP[1]	/* MoveIndirectAbsPt */\012ALIGNRP[ ]	/* AlignRelativePt */\012MIAP[1]	/* MoveIndirectAbsPt */\012MDAP[1]	/* MoveDirectAbsPt */\012SVTCA[1]	/* SetFreedomAndProjectionVectorToAxis */\012MDAP[0]	/* MoveDirectAbsPt */\012MDAP[0]	/* MoveDirectAbsPt */\012MDAP[0]	/* MoveDirectAbsPt */\012MDAP[0]	/* MoveDirectAbsPt */\012MDAP[0]	/* MoveDirectAbsPt */\012MDAP[0]	/* MoveDirectAbsPt */\012MDAP[0]	/* MoveDirectAbsPt */\012MDAP[0]	/* MoveDirectAbsPt */\012MDAP[0]	/* MoveDirectAbsPt */\012MDAP[0]	/* MoveDirectAbsPt */\012MDAP[0]	/* MoveDirectAbsPt */\012MDAP[0]	/* MoveDirectAbsPt */\012MDAP[0]	/* MoveDirectAbsPt */\012MDAP[0]	/* MoveDirectAbsPt */\012SVTCA[0]	/* SetFreedomAndProjectionVectorToAxis */\012MDAP[0]	/* MoveDirectAbsPt */\012MDAP[0]	/* MoveDirectAbsPt */\012MDAP[0]	/* MoveDirectAbsPt */\012MDAP[0]	/* MoveDirectAbsPt */\012MDAP[0]	/* MoveDirectAbsPt */\012MDAP[0]	/* MoveDirectAbsPt */\012MDAP[0]	/* MoveDirectAbsPt */\012MDAP[0]	/* MoveDirectAbsPt */\012MDAP[0]	/* MoveDirectAbsPt */\012MDAP[0]	/* MoveDirectAbsPt */\012MDAP[0]	/* MoveDirectAbsPt */\012IUP[1]	/* InterpolateUntPts */\012IUP[0]	/* InterpolateUntPts */\012SVTCA[1]	/* SetFreedomAndProjectionVectorToAxis */\012MD[0]	/* MeasureDistance */\012ROUND[00]	/* Round */\012PUSHW[ ]	/* 2 values pushed */\0127 97 \012MD[0]	/* MeasureDistance */\012ROUND[00]	/* Round */\012SUB[ ]	/* Subtract */\012PUSHB[ ]	/* 1 value pushed */\01264 \012GT[ ]	/* GreaterThan */\012IF[ ]	/* If */\012SHPIX[ ]	/* ShiftZoneByPixel */\012SRP1[ ]	/* SetRefPoint1 */\012SHZ[1]	/* ShiftZoneByLastPoint */\012PUSHW[ ]	/* 2 values pushed */\01297 -64 \012SHPIX[ ]	/* ShiftZoneByPixel */\012EIF[ ]	/* EndIf */";
};
width = 855;
}
);
note = G;
unicode = 0047;
},
{
glyphname = H;
lastChange = "2021-11-06 03:09:09 +0000";
layers = (
{
background = {
paths = (
{
closed = 1;
nodes = (
"65 -113 OFFCURVE",
"70 -109 OFFCURVE",
"71 -100 CURVE SMOOTH",
"81 -29 LINE",
"99 44 OFFCURVE",
"140 140 OFFCURVE",
"204 257 CURVE SMOOTH",
"223 290 OFFCURVE",
"237 315 OFFCURVE",
"247 332 CURVE",
"301 338 OFFCURVE",
"361 341 OFFCURVE",
"426 341 CURVE SMOOTH",
"473 341 OFFCURVE",
"577 337 OFFCURVE",
"740 328 CURVE",
"675 181 OFFCURVE",
"642 78 OFFCURVE",
"642 18 CURVE SMOOTH",
"642 -5 OFFCURVE",
"647 -17 OFFCURVE",
"658 -17 CURVE SMOOTH",
"668 -17 OFFCURVE",
"674 -13 OFFCURVE",
"676 -5 CURVE SMOOTH",
"675 -7 OFFCURVE",
"675 0 OFFCURVE",
"675 17 CURVE SMOOTH",
"675 74 OFFCURVE",
"709 176 OFFCURVE",
"776 325 CURVE",
"806 323 LINE",
"819 324 OFFCURVE",
"826 330 OFFCURVE",
"826 339 CURVE SMOOTH",
"826 350 OFFCURVE",
"814 356 OFFCURVE",
"791 356 CURVE",
"813 404 OFFCURVE",
"840 455 OFFCURVE",
"873 510 CURVE SMOOTH",
"916 583 OFFCURVE",
"951 629 OFFCURVE",
"976 647 CURVE SMOOTH",
"981 651 OFFCURVE",
"984 655 OFFCURVE",
"984 660 CURVE SMOOTH",
"984 671 OFFCURVE",
"978 676 OFFCURVE",
"967 676 CURVE SMOOTH",
"964 676 OFFCURVE",
"961 675 OFFCURVE",
"958 673 CURVE SMOOTH",
"931 656 OFFCURVE",
"893 607 OFFCURVE",
"845 526 CURVE SMOOTH",
"812 471 OFFCURVE",
"782 416 OFFCURVE",
"755 359 CURVE",
"598 369 OFFCURVE",
"491 374 OFFCURVE",
"432 374 CURVE SMOOTH",
"373 374 OFFCURVE",
"317 371 OFFCURVE",
"266 366 CURVE",
"345 493 LINE SMOOTH",
"413 601 OFFCURVE",
"445 657 OFFCURVE",
"442 660 CURVE",
"441 673 OFFCURVE",
"435 680 OFFCURVE",
"423 680 CURVE SMOOTH",
"417 680 OFFCURVE",
"413 677 OFFCURVE",
"410 670 CURVE SMOOTH",
"401 649 OFFCURVE",
"389 626 OFFCURVE",
"374 601 CURVE SMOOTH",
"369 592 OFFCURVE",
"355 570 OFFCURVE",
"333 535 CURVE SMOOTH",
"284 458 OFFCURVE",
"249 401 OFFCURVE",
"226 362 CURVE",
"143 349 OFFCURVE",
"102 334 OFFCURVE",
"102 318 CURVE SMOOTH",
"102 306 OFFCURVE",
"108 300 OFFCURVE",
"120 300 CURVE",
"125 301 LINE",
"149 312 OFFCURVE",
"176 320 OFFCURVE",
"206 325 CURVE",
"192 302 OFFCURVE",
"182 285 OFFCURVE",
"175 272 CURVE SMOOTH",
"83 105 OFFCURVE",
"37 -18 OFFCURVE",
"37 -96 CURVE SMOOTH",
"37 -107 OFFCURVE",
"43 -113 OFFCURVE",
"56 -113 CURVE SMOOTH"
);
}
);
};
layerId = "5D3CF454-A725-4551-B6FA-6F6FD8C18533";
paths = (
{
closed = 1;
nodes = (
"65 -98 OFFCURVE",
"70 -94 OFFCURVE",
"71 -85 CURVE SMOOTH",
"74 -61 OFFCURVE",
"75 -38 OFFCURVE",
"89 14 CURVE SMOOTH",
"102 59 OFFCURVE",
"140 155 OFFCURVE",
"204 272 CURVE SMOOTH",
"223 305 OFFCURVE",
"237 330 OFFCURVE",
"247 347 CURVE",
"301 353 OFFCURVE",
"361 356 OFFCURVE",
"426 356 CURVE SMOOTH",
"473 356 OFFCURVE",
"577 352 OFFCURVE",
"740 343 CURVE",
"675 196 OFFCURVE",
"642 93 OFFCURVE",
"642 33 CURVE SMOOTH",
"642 10 OFFCURVE",
"647 -2 OFFCURVE",
"658 -2 CURVE SMOOTH",
"668 -2 OFFCURVE",
"675 2 OFFCURVE",
"675 10 CURVE SMOOTH",
"675 15 OFFCURVE",
"675 22 OFFCURVE",
"675 32 CURVE SMOOTH",
"675 89 OFFCURVE",
"709 191 OFFCURVE",
"776 340 CURVE",
"806 338 LINE SMOOTH",
"819 337 OFFCURVE",
"826 345 OFFCURVE",
"826 354 CURVE SMOOTH",
"826 365 OFFCURVE",
"814 371 OFFCURVE",
"791 371 CURVE",
"813 419 OFFCURVE",
"840 470 OFFCURVE",
"873 525 CURVE SMOOTH",
"916 598 OFFCURVE",
"951 643 OFFCURVE",
"975 661 CURVE SMOOTH",
"981 665 OFFCURVE",
"984 670 OFFCURVE",
"984 675 CURVE SMOOTH",
"984 685 OFFCURVE",
"977 691 OFFCURVE",
"969 691 CURVE SMOOTH",
"963 691 OFFCURVE",
"957 688 OFFCURVE",
"948 681 CURVE SMOOTH",
"930 667 OFFCURVE",
"893 622 OFFCURVE",
"845 541 CURVE SMOOTH",
"812 486 OFFCURVE",
"782 431 OFFCURVE",
"755 374 CURVE",
"598 384 OFFCURVE",
"491 389 OFFCURVE",
"432 389 CURVE SMOOTH",
"373 389 OFFCURVE",
"317 386 OFFCURVE",
"266 381 CURVE",
"345 508 LINE SMOOTH",
"412 616 OFFCURVE",
"442 665 OFFCURVE",
"442 675 CURVE SMOOTH",
"442 688 OFFCURVE",
"435 695 OFFCURVE",
"423 695 CURVE SMOOTH",
"417 695 OFFCURVE",
"413 692 OFFCURVE",
"410 685 CURVE SMOOTH",
"394 649 OFFCURVE",
"369 607 OFFCURVE",
"333 550 CURVE SMOOTH",
"284 473 OFFCURVE",
"249 416 OFFCURVE",
"226 377 CURVE",
"143 364 OFFCURVE",
"102 349 OFFCURVE",
"102 332 CURVE SMOOTH",
"102 321 OFFCURVE",
"108 315 OFFCURVE",
"120 315 CURVE SMOOTH",
"129 315 OFFCURVE",
"161 335 OFFCURVE",
"206 340 CURVE",
"192 317 OFFCURVE",
"182 300 OFFCURVE",
"175 287 CURVE SMOOTH",
"83 120 OFFCURVE",
"37 -3 OFFCURVE",
"37 -81 CURVE SMOOTH",
"37 -92 OFFCURVE",
"43 -98 OFFCURVE",
"56 -98 CURVE SMOOTH"
);
}
);
userData = {
assembly = "NPUSHB[ ]	/* 34 values pushed */\0121 74 74 64 75 8 72 70 52 32 26 20 18 6 0 70 66 54 48 44 30 28 24 22 16 14 8 64 42 48 2 1 44 70 \012SROUND[ ]	/* SuperRound */\012MDAP[1]	/* MoveDirectAbsPt */\012SHZ[1]	/* ShiftZoneByLastPoint */\012RTG[ ]	/* RoundToGrid */\012SVTCA[0]	/* SetFreedomAndProjectionVectorToAxis */\012MIAP[1]	/* MoveIndirectAbsPt */\012MDAP[1]	/* MoveDirectAbsPt */\012MDAP[1]	/* MoveDirectAbsPt */\012SVTCA[1]	/* SetFreedomAndProjectionVectorToAxis */\012MDAP[0]	/* MoveDirectAbsPt */\012MDAP[0]	/* MoveDirectAbsPt */\012MDAP[0]	/* MoveDirectAbsPt */\012MDAP[0]	/* MoveDirectAbsPt */\012MDAP[0]	/* MoveDirectAbsPt */\012MDAP[0]	/* MoveDirectAbsPt */\012MDAP[0]	/* MoveDirectAbsPt */\012MDAP[0]	/* MoveDirectAbsPt */\012MDAP[0]	/* MoveDirectAbsPt */\012MDAP[0]	/* MoveDirectAbsPt */\012MDAP[0]	/* MoveDirectAbsPt */\012MDAP[0]	/* MoveDirectAbsPt */\012SVTCA[0]	/* SetFreedomAndProjectionVectorToAxis */\012MDAP[0]	/* MoveDirectAbsPt */\012MDAP[0]	/* MoveDirectAbsPt */\012MDAP[0]	/* MoveDirectAbsPt */\012MDAP[0]	/* MoveDirectAbsPt */\012MDAP[0]	/* MoveDirectAbsPt */\012MDAP[0]	/* MoveDirectAbsPt */\012MDAP[0]	/* MoveDirectAbsPt */\012MDAP[0]	/* MoveDirectAbsPt */\012MDAP[0]	/* MoveDirectAbsPt */\012IUP[1]	/* InterpolateUntPts */\012IUP[0]	/* InterpolateUntPts */\012SVTCA[1]	/* SetFreedomAndProjectionVectorToAxis */\012MD[0]	/* MeasureDistance */\012ROUND[00]	/* Round */\012PUSHW[ ]	/* 2 values pushed */\01244 74 \012MD[0]	/* MeasureDistance */\012ROUND[00]	/* Round */\012SUB[ ]	/* Subtract */\012PUSHB[ ]	/* 1 value pushed */\01264 \012GT[ ]	/* GreaterThan */\012IF[ ]	/* If */\012SHPIX[ ]	/* ShiftZoneByPixel */\012SRP1[ ]	/* SetRefPoint1 */\012SHZ[1]	/* ShiftZoneByLastPoint */\012PUSHW[ ]	/* 2 values pushed */\01274 -64 \012SHPIX[ ]	/* ShiftZoneByPixel */\012EIF[ ]	/* EndIf */";
};
width = 822;
}
);
note = H;
unicode = 0048;
},
{
glyphname = I;
lastChange = "2021-11-06 03:09:09 +0000";
layers = (
{
background = {
paths = (
{
closed = 1;
nodes = (
"53 -40 OFFCURVE",
"84 -37 OFFCURVE",
"124 -32 CURVE",
"127 -37 OFFCURVE",
"131 -39 OFFCURVE",
"136 -39 CURVE SMOOTH",
"142 -39 OFFCURVE",
"147 -36 OFFCURVE",
"150 -31 CURVE",
"193 -25 OFFCURVE",
"230 -22 OFFCURVE",
"260 -22 CURVE SMOOTH",
"267 -22 OFFCURVE",
"278 -23 OFFCURVE",
"292 -24 CURVE SMOOTH",
"306 -25 OFFCURVE",
"316 -25 OFFCURVE",
"323 -25 CURVE SMOOTH",
"335 -25 OFFCURVE",
"341 -20 OFFCURVE",
"341 -9 CURVE SMOOTH",
"341 -1 OFFCURVE",
"336 4 OFFCURVE",
"326 6 CURVE SMOOTH",
"309 9 OFFCURVE",
"285 11 OFFCURVE",
"256 11 CURVE SMOOTH",
"241 11 OFFCURVE",
"208 9 OFFCURVE",
"157 4 CURVE",
"169 37 OFFCURVE",
"180 61 OFFCURVE",
"190 77 CURVE SMOOTH",
"224 133 OFFCURVE",
"265 196 OFFCURVE",
"312 267 CURVE SMOOTH",
"440 454 LINE",
"490 525 LINE SMOOTH",
"514 560 OFFCURVE",
"527 585 OFFCURVE",
"528 599 CURVE",
"537 600 OFFCURVE",
"551 600 OFFCURVE",
"570 600 CURVE SMOOTH",
"608 600 OFFCURVE",
"638 596 OFFCURVE",
"660 587 CURVE SMOOTH",
"663 586 OFFCURVE",
"665 585 OFFCURVE",
"667 585 CURVE SMOOTH",
"677 585 OFFCURVE",
"682 590 OFFCURVE",
"682 601 CURVE SMOOTH",
"682 608 OFFCURVE",
"679 613 OFFCURVE",
"672 616 CURVE",
"673 617 LINE",
"648 628 OFFCURVE",
"613 633 OFFCURVE",
"567 633 CURVE SMOOTH",
"494 633 OFFCURVE",
"418 625 OFFCURVE",
"340 610 CURVE SMOOTH",
"331 608 OFFCURVE",
"326 603 OFFCURVE",
"326 596 CURVE SMOOTH",
"326 583 OFFCURVE",
"332 577 OFFCURVE",
"343 577 CURVE SMOOTH",
"340 577 OFFCURVE",
"357 580 OFFCURVE",
"394 585 CURVE SMOOTH",
"419 589 OFFCURVE",
"452 593 OFFCURVE",
"492 596 CURVE",
"456 537 OFFCURVE",
"430 496 OFFCURVE",
"415 474 CURVE SMOOTH",
"248 236 LINE SMOOTH",
"168 116 OFFCURVE",
"125 37 OFFCURVE",
"120 -1 CURVE",
"60 -6 LINE",
"31 -7 LINE",
"20 -10 OFFCURVE",
"15 -15 OFFCURVE",
"15 -23 CURVE SMOOTH",
"15 -34 OFFCURVE",
"21 -40 OFFCURVE",
"32 -40 CURVE SMOOTH"
);
}
);
};
layerId = "5D3CF454-A725-4551-B6FA-6F6FD8C18533";
paths = (
{
closed = 1;
nodes = (
"53 -25 OFFCURVE",
"84 -22 OFFCURVE",
"124 -17 CURVE",
"127 -22 OFFCURVE",
"131 -24 OFFCURVE",
"136 -24 CURVE SMOOTH",
"142 -24 OFFCURVE",
"147 -21 OFFCURVE",
"150 -16 CURVE",
"193 -10 OFFCURVE",
"230 -7 OFFCURVE",
"260 -7 CURVE SMOOTH",
"278 -7 OFFCURVE",
"307 -10 OFFCURVE",
"323 -10 CURVE SMOOTH",
"335 -10 OFFCURVE",
"341 -5 OFFCURVE",
"341 6 CURVE SMOOTH",
"341 14 OFFCURVE",
"336 19 OFFCURVE",
"326 21 CURVE SMOOTH",
"309 24 OFFCURVE",
"285 26 OFFCURVE",
"256 26 CURVE SMOOTH",
"241 26 OFFCURVE",
"208 24 OFFCURVE",
"157 19 CURVE",
"169 52 OFFCURVE",
"180 76 OFFCURVE",
"190 92 CURVE SMOOTH",
"224 148 OFFCURVE",
"264 212 OFFCURVE",
"312 282 CURVE SMOOTH",
"440 469 LINE",
"490 540 LINE SMOOTH",
"514 575 OFFCURVE",
"527 600 OFFCURVE",
"528 614 CURVE",
"537 615 OFFCURVE",
"551 615 OFFCURVE",
"570 615 CURVE SMOOTH",
"643 615 OFFCURVE",
"656 600 OFFCURVE",
"667 600 CURVE SMOOTH",
"677 600 OFFCURVE",
"682 605 OFFCURVE",
"682 616 CURVE SMOOTH",
"682 626 OFFCURVE",
"676 632 OFFCURVE",
"655 639 CURVE SMOOTH",
"632 645 OFFCURVE",
"603 648 OFFCURVE",
"567 648 CURVE SMOOTH",
"494 648 OFFCURVE",
"418 640 OFFCURVE",
"340 625 CURVE SMOOTH",
"331 623 OFFCURVE",
"326 618 OFFCURVE",
"326 611 CURVE SMOOTH",
"326 598 OFFCURVE",
"332 592 OFFCURVE",
"343 592 CURVE SMOOTH",
"349 592 OFFCURVE",
"357 595 OFFCURVE",
"394 600 CURVE SMOOTH",
"419 604 OFFCURVE",
"452 608 OFFCURVE",
"492 611 CURVE",
"456 552 OFFCURVE",
"430 511 OFFCURVE",
"415 489 CURVE SMOOTH",
"248 251 LINE SMOOTH",
"178 151 OFFCURVE",
"125 52 OFFCURVE",
"120 14 CURVE",
"95 12 OFFCURVE",
"57 8 OFFCURVE",
"34 8 CURVE SMOOTH",
"23 8 OFFCURVE",
"15 1 OFFCURVE",
"15 -8 CURVE SMOOTH",
"15 -19 OFFCURVE",
"21 -25 OFFCURVE",
"32 -25 CURVE SMOOTH"
);
}
);
userData = {
assembly = "NPUSHB[ ]	/* 30 values pushed */\0121 66 66 64 67 3 58 54 38 32 29 23 21 9 5 60 54 42 27 21 3 1 0 64 40 36 1 1 42 70 \012SROUND[ ]	/* SuperRound */\012MDAP[1]	/* MoveDirectAbsPt */\012SHZ[1]	/* ShiftZoneByLastPoint */\012RTG[ ]	/* RoundToGrid */\012SVTCA[0]	/* SetFreedomAndProjectionVectorToAxis */\012MIAP[1]	/* MoveIndirectAbsPt */\012ALIGNRP[ ]	/* AlignRelativePt */\012MDAP[1]	/* MoveDirectAbsPt */\012SVTCA[1]	/* SetFreedomAndProjectionVectorToAxis */\012MDAP[0]	/* MoveDirectAbsPt */\012MDAP[0]	/* MoveDirectAbsPt */\012MDAP[0]	/* MoveDirectAbsPt */\012MDAP[0]	/* MoveDirectAbsPt */\012MDAP[0]	/* MoveDirectAbsPt */\012MDAP[0]	/* MoveDirectAbsPt */\012MDAP[0]	/* MoveDirectAbsPt */\012MDAP[0]	/* MoveDirectAbsPt */\012SVTCA[0]	/* SetFreedomAndProjectionVectorToAxis */\012MDAP[0]	/* MoveDirectAbsPt */\012MDAP[0]	/* MoveDirectAbsPt */\012MDAP[0]	/* MoveDirectAbsPt */\012MDAP[0]	/* MoveDirectAbsPt */\012MDAP[0]	/* MoveDirectAbsPt */\012MDAP[0]	/* MoveDirectAbsPt */\012MDAP[0]	/* MoveDirectAbsPt */\012MDAP[0]	/* MoveDirectAbsPt */\012MDAP[0]	/* MoveDirectAbsPt */\012IUP[1]	/* InterpolateUntPts */\012IUP[0]	/* InterpolateUntPts */\012SVTCA[1]	/* SetFreedomAndProjectionVectorToAxis */\012MD[0]	/* MeasureDistance */\012ROUND[00]	/* Round */\012PUSHW[ ]	/* 2 values pushed */\01242 66 \012MD[0]	/* MeasureDistance */\012ROUND[00]	/* Round */\012SUB[ ]	/* Subtract */\012PUSHB[ ]	/* 1 value pushed */\01264 \012GT[ ]	/* GreaterThan */\012IF[ ]	/* If */\012SHPIX[ ]	/* ShiftZoneByPixel */\012SRP1[ ]	/* SetRefPoint1 */\012SHZ[1]	/* ShiftZoneByLastPoint */\012PUSHW[ ]	/* 2 values pushed */\01266 -64 \012SHPIX[ ]	/* ShiftZoneByPixel */\012EIF[ ]	/* EndIf */";
};
width = 428;
}
);
note = I;
unicode = 0049;
},
{
glyphname = J;
lastChange = "2021-11-06 03:09:09 +0000";
layers = (
{
background = {
paths = (
{
closed = 1;
nodes = (
"127 -46 OFFCURVE",
"141 -44 OFFCURVE",
"156 -40 CURVE SMOOTH",
"232 -19 OFFCURVE",
"326 84 OFFCURVE",
"439 268 CURVE SMOOTH",
"508 382 OFFCURVE",
"561 487 OFFCURVE",
"596 584 CURVE SMOOTH",
"600 594 OFFCURVE",
"603 604 OFFCURVE",
"606 614 CURVE",
"606 618 OFFCURVE",
"605 621 OFFCURVE",
"602 624 CURVE",
"623 626 OFFCURVE",
"644 627 OFFCURVE",
"665 627 CURVE SMOOTH",
"689 627 OFFCURVE",
"712 626 OFFCURVE",
"734 623 CURVE SMOOTH",
"761 620 OFFCURVE",
"772 618 OFFCURVE",
"766 618 CURVE SMOOTH",
"777 618 OFFCURVE",
"782 623 OFFCURVE",
"782 633 CURVE SMOOTH",
"782 644 OFFCURVE",
"777 650 OFFCURVE",
"766 650 CURVE SMOOTH",
"767 650 LINE SMOOTH",
"733 657 OFFCURVE",
"697 660 OFFCURVE",
"658 660 CURVE SMOOTH",
"610 660 OFFCURVE",
"561 655 OFFCURVE",
"510 645 CURVE SMOOTH",
"451 634 OFFCURVE",
"404 618 OFFCURVE",
"371 598 CURVE SMOOTH",
"366 595 OFFCURVE",
"363 591 OFFCURVE",
"363 586 CURVE SMOOTH",
"363 573 OFFCURVE",
"369 567 OFFCURVE",
"382 567 CURVE SMOOTH",
"387 567 OFFCURVE",
"414 575 OFFCURVE",
"465 591 CURVE SMOOTH",
"518 608 OFFCURVE",
"554 618 OFFCURVE",
"571 620 CURVE",
"542 527 OFFCURVE",
"483 408 OFFCURVE",
"394 264 CURVE SMOOTH",
"291 96 OFFCURVE",
"207 6 OFFCURVE",
"143 -7 CURVE SMOOTH",
"133 -9 OFFCURVE",
"124 -10 OFFCURVE",
"116 -10 CURVE SMOOTH",
"75 -10 OFFCURVE",
"55 9 OFFCURVE",
"55 47 CURVE SMOOTH",
"55 69 OFFCURVE",
"63 97 OFFCURVE",
"80 132 CURVE",
"80 131 LINE",
"93 155 OFFCURVE",
"111 177 OFFCURVE",
"133 196 CURVE SMOOTH",
"144 206 OFFCURVE",
"150 215 OFFCURVE",
"150 223 CURVE SMOOTH",
"150 232 OFFCURVE",
"146 236 OFFCURVE",
"138 236 CURVE SMOOTH",
"129 236 OFFCURVE",
"119 231 OFFCURVE",
"107 220 CURVE SMOOTH",
"83 199 OFFCURVE",
"63 174 OFFCURVE",
"46 143 CURVE SMOOTH",
"27 109 OFFCURVE",
"18 78 OFFCURVE",
"18 49 CURVE SMOOTH",
"18 -8 OFFCURVE",
"57 -46 OFFCURVE",
"114 -46 CURVE SMOOTH"
);
}
);
};
layerId = "5D3CF454-A725-4551-B6FA-6F6FD8C18533";
paths = (
{
closed = 1;
nodes = (
"229 -31 OFFCURVE",
"343 126 OFFCURVE",
"439 283 CURVE SMOOTH",
"508 397 OFFCURVE",
"561 502 OFFCURVE",
"596 599 CURVE SMOOTH",
"600 609 OFFCURVE",
"606 625 OFFCURVE",
"606 629 CURVE SMOOTH",
"606 633 OFFCURVE",
"605 636 OFFCURVE",
"602 639 CURVE",
"623 641 OFFCURVE",
"644 642 OFFCURVE",
"665 642 CURVE SMOOTH",
"725 642 OFFCURVE",
"762 633 OFFCURVE",
"768 633 CURVE SMOOTH",
"776 633 OFFCURVE",
"782 638 OFFCURVE",
"782 648 CURVE SMOOTH",
"782 659 OFFCURVE",
"778 663 OFFCURVE",
"765 665 CURVE SMOOTH",
"741 670 OFFCURVE",
"697 675 OFFCURVE",
"658 675 CURVE SMOOTH",
"610 675 OFFCURVE",
"561 670 OFFCURVE",
"510 660 CURVE SMOOTH",
"451 649 OFFCURVE",
"404 633 OFFCURVE",
"376 616 CURVE SMOOTH",
"366 610 OFFCURVE",
"363 606 OFFCURVE",
"363 599 CURVE SMOOTH",
"363 589 OFFCURVE",
"369 582 OFFCURVE",
"382 582 CURVE SMOOTH",
"391 582 OFFCURVE",
"414 591 OFFCURVE",
"465 607 CURVE SMOOTH",
"518 624 OFFCURVE",
"554 633 OFFCURVE",
"571 635 CURVE",
"542 542 OFFCURVE",
"483 423 OFFCURVE",
"394 279 CURVE SMOOTH",
"313 147 OFFCURVE",
"213 5 OFFCURVE",
"116 5 CURVE SMOOTH",
"75 5 OFFCURVE",
"55 24 OFFCURVE",
"55 62 CURVE SMOOTH",
"55 110 OFFCURVE",
"88 172 OFFCURVE",
"133 211 CURVE SMOOTH",
"144 221 OFFCURVE",
"150 230 OFFCURVE",
"150 238 CURVE SMOOTH",
"150 246 OFFCURVE",
"146 251 OFFCURVE",
"137 251 CURVE SMOOTH",
"129 251 OFFCURVE",
"119 246 OFFCURVE",
"107 235 CURVE SMOOTH",
"62 196 OFFCURVE",
"18 125 OFFCURVE",
"18 64 CURVE SMOOTH",
"18 7 OFFCURVE",
"57 -31 OFFCURVE",
"114 -31 CURVE SMOOTH"
);
}
);
userData = {
assembly = "NPUSHB[ ]	/* 34 values pushed */\0121 61 61 64 62 51 57 53 49 48 38 34 28 24 23 17 59 51 49 48 40 34 26 24 23 19 11 0 46 8 1 1 11 70 \012SROUND[ ]	/* SuperRound */\012MDAP[1]	/* MoveDirectAbsPt */\012SHZ[1]	/* ShiftZoneByLastPoint */\012RTG[ ]	/* RoundToGrid */\012SVTCA[0]	/* SetFreedomAndProjectionVectorToAxis */\012MIAP[1]	/* MoveIndirectAbsPt */\012MDAP[1]	/* MoveDirectAbsPt */\012SVTCA[1]	/* SetFreedomAndProjectionVectorToAxis */\012MDAP[0]	/* MoveDirectAbsPt */\012MDAP[0]	/* MoveDirectAbsPt */\012MDAP[0]	/* MoveDirectAbsPt */\012MDAP[0]	/* MoveDirectAbsPt */\012MDAP[0]	/* MoveDirectAbsPt */\012MDAP[0]	/* MoveDirectAbsPt */\012MDAP[0]	/* MoveDirectAbsPt */\012MDAP[0]	/* MoveDirectAbsPt */\012MDAP[0]	/* MoveDirectAbsPt */\012MDAP[0]	/* MoveDirectAbsPt */\012MDAP[0]	/* MoveDirectAbsPt */\012MDAP[0]	/* MoveDirectAbsPt */\012SVTCA[0]	/* SetFreedomAndProjectionVectorToAxis */\012MDAP[0]	/* MoveDirectAbsPt */\012MDAP[0]	/* MoveDirectAbsPt */\012MDAP[0]	/* MoveDirectAbsPt */\012MDAP[0]	/* MoveDirectAbsPt */\012MDAP[0]	/* MoveDirectAbsPt */\012MDAP[0]	/* MoveDirectAbsPt */\012MDAP[0]	/* MoveDirectAbsPt */\012MDAP[0]	/* MoveDirectAbsPt */\012MDAP[0]	/* MoveDirectAbsPt */\012MDAP[0]	/* MoveDirectAbsPt */\012IUP[1]	/* InterpolateUntPts */\012IUP[0]	/* InterpolateUntPts */\012SVTCA[1]	/* SetFreedomAndProjectionVectorToAxis */\012MD[0]	/* MeasureDistance */\012ROUND[00]	/* Round */\012PUSHW[ ]	/* 2 values pushed */\01211 61 \012MD[0]	/* MeasureDistance */\012ROUND[00]	/* Round */\012SUB[ ]	/* Subtract */\012PUSHB[ ]	/* 1 value pushed */\01264 \012GT[ ]	/* GreaterThan */\012IF[ ]	/* If */\012SHPIX[ ]	/* ShiftZoneByPixel */\012SRP1[ ]	/* SetRefPoint1 */\012SHZ[1]	/* ShiftZoneByLastPoint */\012PUSHW[ ]	/* 2 values pushed */\01261 -64 \012SHPIX[ ]	/* ShiftZoneByPixel */\012EIF[ ]	/* EndIf */";
};
width = 472;
}
);
note = J;
unicode = 004A;
},
{
glyphname = K;
lastChange = "2021-11-06 03:09:09 +0000";
layers = (
{
background = {
paths = (
{
closed = 1;
nodes = (
"491 -32 OFFCURVE",
"500 -27 OFFCURVE",
"508 -16 CURVE SMOOTH",
"526 12 LINE SMOOTH",
"575 86 OFFCURVE",
"599 149 OFFCURVE",
"599 201 CURVE SMOOTH",
"599 250 OFFCURVE",
"574 286 OFFCURVE",
"525 309 CURVE SMOOTH",
"487 327 OFFCURVE",
"440 336 OFFCURVE",
"384 336 CURVE SMOOTH",
"369 336 OFFCURVE",
"358 336 OFFCURVE",
"350 335 CURVE",
"448 375 OFFCURVE",
"521 405 OFFCURVE",
"570 424 CURVE",
"711 490 OFFCURVE",
"808 544 OFFCURVE",
"859 587 CURVE",
"862 589 OFFCURVE",
"864 592 OFFCURVE",
"864 596 CURVE SMOOTH",
"864 609 OFFCURVE",
"858 615 OFFCURVE",
"845 615 CURVE SMOOTH",
"842 615 OFFCURVE",
"838 614 OFFCURVE",
"835 612 CURVE SMOOTH",
"752 557 OFFCURVE",
"659 504 OFFCURVE",
"554 455 CURVE SMOOTH",
"480 420 OFFCURVE",
"405 388 OFFCURVE",
"330 357 CURVE SMOOTH",
"242 322 LINE",
"218 318 LINE",
"209 315 OFFCURVE",
"190 280 OFFCURVE",
"190 276 CURVE SMOOTH",
"190 265 OFFCURVE",
"195 259 OFFCURVE",
"206 259 CURVE SMOOTH",
"214 259 OFFCURVE",
"242 267 OFFCURVE",
"289 282 CURVE SMOOTH",
"336 297 OFFCURVE",
"374 305 OFFCURVE",
"402 305 CURVE SMOOTH",
"444 305 OFFCURVE",
"479 298 OFFCURVE",
"506 283 CURVE SMOOTH",
"541 264 OFFCURVE",
"559 235 OFFCURVE",
"559 197 CURVE SMOOTH",
"559 170 OFFCURVE",
"551 137 OFFCURVE",
"534 100 CURVE SMOOTH",
"523 75 OFFCURVE",
"508 48 OFFCURVE",
"489 18 CURVE SMOOTH",
"464 -21 LINE",
"464 -28 OFFCURVE",
"470 -32 OFFCURVE",
"481 -32 CURVE SMOOTH"
);
},
{
closed = 1;
nodes = (
"22 -58 OFFCURVE",
"25 -54 OFFCURVE",
"25 -47 CURVE SMOOTH",
"28 -19 OFFCURVE",
"56 44 OFFCURVE",
"109 142 CURVE SMOOTH",
"112 149 OFFCURVE",
"148 212 OFFCURVE",
"217 331 CURVE SMOOTH",
"299 474 LINE SMOOTH",
"337 545 OFFCURVE",
"356 594 OFFCURVE",
"356 621 CURVE SMOOTH",
"356 623 OFFCURVE",
"355 627 OFFCURVE",
"354 634 CURVE",
"354 631 LINE",
"353 642 OFFCURVE",
"347 647 OFFCURVE",
"337 647 CURVE SMOOTH",
"329 647 OFFCURVE",
"324 642 OFFCURVE",
"323 631 CURVE SMOOTH",
"318 599 OFFCURVE",
"273 506 OFFCURVE",
"187 353 CURVE SMOOTH",
"76 157 LINE SMOOTH",
"21 54 OFFCURVE",
"-7 -11 OFFCURVE",
"-7 -38 CURVE SMOOTH",
"-7 -47 OFFCURVE",
"7 -58 OFFCURVE",
"16 -58 CURVE SMOOTH"
);
}
);
};
layerId = "5D3CF454-A725-4551-B6FA-6F6FD8C18533";
paths = (
{
closed = 1;
nodes = (
"491 -17 OFFCURVE",
"501 -12 OFFCURVE",
"508 -1 CURVE SMOOTH",
"535 41 LINE SMOOTH",
"574 102 OFFCURVE",
"599 164 OFFCURVE",
"599 216 CURVE SMOOTH",
"599 314 OFFCURVE",
"495 351 OFFCURVE",
"384 351 CURVE SMOOTH",
"369 351 OFFCURVE",
"352 349 OFFCURVE",
"336 345 CURVE",
"434 385 OFFCURVE",
"521 420 OFFCURVE",
"570 439 CURVE",
"711 505 OFFCURVE",
"808 559 OFFCURVE",
"849 593 CURVE SMOOTH",
"861 603 OFFCURVE",
"864 607 OFFCURVE",
"864 615 CURVE SMOOTH",
"864 623 OFFCURVE",
"857 630 OFFCURVE",
"848 630 CURVE SMOOTH",
"842 630 OFFCURVE",
"838 629 OFFCURVE",
"825 620 CURVE SMOOTH",
"752 572 OFFCURVE",
"659 519 OFFCURVE",
"554 470 CURVE SMOOTH",
"480 435 OFFCURVE",
"405 402 OFFCURVE",
"330 372 CURVE SMOOTH",
"242 337 LINE",
"218 333 LINE",
"209 330 OFFCURVE",
"190 295 OFFCURVE",
"190 291 CURVE SMOOTH",
"190 280 OFFCURVE",
"195 274 OFFCURVE",
"206 274 CURVE SMOOTH",
"214 274 OFFCURVE",
"242 282 OFFCURVE",
"289 297 CURVE SMOOTH",
"336 312 OFFCURVE",
"374 320 OFFCURVE",
"402 320 CURVE SMOOTH",
"488 320 OFFCURVE",
"559 287 OFFCURVE",
"559 212 CURVE SMOOTH",
"559 158 OFFCURVE",
"526 90 OFFCURVE",
"495 41 CURVE SMOOTH",
"481 20 OFFCURVE",
"464 0 OFFCURVE",
"464 -6 CURVE SMOOTH",
"464 -13 OFFCURVE",
"470 -17 OFFCURVE",
"481 -17 CURVE SMOOTH"
);
},
{
closed = 1;
nodes = (
"22 -43 OFFCURVE",
"25 -39 OFFCURVE",
"25 -32 CURVE SMOOTH",
"28 -4 OFFCURVE",
"56 59 OFFCURVE",
"90 123 CURVE SMOOTH",
"112 164 OFFCURVE",
"149 227 OFFCURVE",
"217 346 CURVE SMOOTH",
"299 489 LINE SMOOTH",
"339 559 OFFCURVE",
"356 609 OFFCURVE",
"356 636 CURVE SMOOTH",
"356 648 OFFCURVE",
"352 662 OFFCURVE",
"337 662 CURVE SMOOTH",
"329 662 OFFCURVE",
"324 657 OFFCURVE",
"323 646 CURVE SMOOTH",
"318 614 OFFCURVE",
"273 521 OFFCURVE",
"187 368 CURVE SMOOTH",
"76 172 LINE SMOOTH",
"31 93 OFFCURVE",
"-7 4 OFFCURVE",
"-7 -23 CURVE SMOOTH",
"-7 -32 OFFCURVE",
"7 -43 OFFCURVE",
"16 -43 CURVE SMOOTH"
);
}
);
userData = {
assembly = "NPUSHB[ ]	/* 31 values pushed */\0121 77 77 64 78 28 61 58 46 26 1 0 63 54 48 40 34 28 16 3 1 0 24 36 34 2 13 1 1 16 70 \012SROUND[ ]	/* SuperRound */\012MDAP[1]	/* MoveDirectAbsPt */\012SHZ[1]	/* ShiftZoneByLastPoint */\012RTG[ ]	/* RoundToGrid */\012SVTCA[0]	/* SetFreedomAndProjectionVectorToAxis */\012MIAP[1]	/* MoveIndirectAbsPt */\012MIAP[1]	/* MoveIndirectAbsPt */\012ALIGNRP[ ]	/* AlignRelativePt */\012MDAP[1]	/* MoveDirectAbsPt */\012SVTCA[1]	/* SetFreedomAndProjectionVectorToAxis */\012MDAP[0]	/* MoveDirectAbsPt */\012MDAP[0]	/* MoveDirectAbsPt */\012MDAP[0]	/* MoveDirectAbsPt */\012MDAP[0]	/* MoveDirectAbsPt */\012MDAP[0]	/* MoveDirectAbsPt */\012MDAP[0]	/* MoveDirectAbsPt */\012MDAP[0]	/* MoveDirectAbsPt */\012MDAP[0]	/* MoveDirectAbsPt */\012MDAP[0]	/* MoveDirectAbsPt */\012MDAP[0]	/* MoveDirectAbsPt */\012SVTCA[0]	/* SetFreedomAndProjectionVectorToAxis */\012MDAP[0]	/* MoveDirectAbsPt */\012MDAP[0]	/* MoveDirectAbsPt */\012MDAP[0]	/* MoveDirectAbsPt */\012MDAP[0]	/* MoveDirectAbsPt */\012MDAP[0]	/* MoveDirectAbsPt */\012MDAP[0]	/* MoveDirectAbsPt */\012IUP[1]	/* InterpolateUntPts */\012IUP[0]	/* InterpolateUntPts */\012SVTCA[1]	/* SetFreedomAndProjectionVectorToAxis */\012MD[0]	/* MeasureDistance */\012ROUND[00]	/* Round */\012PUSHW[ ]	/* 2 values pushed */\01216 77 \012MD[0]	/* MeasureDistance */\012ROUND[00]	/* Round */\012SUB[ ]	/* Subtract */\012PUSHB[ ]	/* 1 value pushed */\01264 \012GT[ ]	/* GreaterThan */\012IF[ ]	/* If */\012SHPIX[ ]	/* ShiftZoneByPixel */\012SRP1[ ]	/* SetRefPoint1 */\012SHZ[1]	/* ShiftZoneByLastPoint */\012PUSHW[ ]	/* 2 values pushed */\01277 -64 \012SHPIX[ ]	/* ShiftZoneByPixel */\012EIF[ ]	/* EndIf */";
};
width = 650;
}
);
note = K;
unicode = 004B;
},
{
glyphname = L;
lastChange = "2021-11-06 03:09:09 +0000";
layers = (
{
background = {
paths = (
{
closed = 1;
nodes = (
"51 -58 OFFCURVE",
"55 -57 OFFCURVE",
"65 -54 CURVE SMOOTH",
"173 -26 LINE SMOOTH",
"294 3 OFFCURVE",
"389 21 OFFCURVE",
"457 29 CURVE SMOOTH",
"474 31 OFFCURVE",
"494 32 OFFCURVE",
"515 32 CURVE SMOOTH",
"555 32 OFFCURVE",
"583 29 OFFCURVE",
"600 22 CURVE",
"603 19 OFFCURVE",
"604 19 OFFCURVE",
"604 20 CURVE SMOOTH",
"604 18 LINE SMOOTH",
"603 9 OFFCURVE",
"607 4 OFFCURVE",
"616 4 CURVE SMOOTH",
"629 4 OFFCURVE",
"635 9 OFFCURVE",
"635 19 CURVE SMOOTH",
"635 23 LINE",
"616 52 OFFCURVE",
"580 66 OFFCURVE",
"525 66 CURVE SMOOTH",
"420 66 OFFCURVE",
"272 40 OFFCURVE",
"79 -12 CURVE",
"146 107 OFFCURVE",
"205 208 OFFCURVE",
"256 292 CURVE SMOOTH",
"390 515 OFFCURVE",
"457 628 OFFCURVE",
"457 632 CURVE SMOOTH",
"457 641 OFFCURVE",
"445 652 OFFCURVE",
"436 652 CURVE SMOOTH",
"431 652 OFFCURVE",
"428 650 OFFCURVE",
"425 646 CURVE SMOOTH",
"394 596 OFFCURVE",
"372 558 OFFCURVE",
"357 532 CURVE SMOOTH",
"226 313 LINE SMOOTH",
"140 171 OFFCURVE",
"73 57 OFFCURVE",
"26 -30 CURVE",
"28 -31 LINE",
"27 -32 OFFCURVE",
"27 -34 OFFCURVE",
"27 -36 CURVE SMOOTH",
"27 -47 OFFCURVE",
"41 -58 OFFCURVE",
"52 -58 CURVE SMOOTH"
);
}
);
};
layerId = "5D3CF454-A725-4551-B6FA-6F6FD8C18533";
paths = (
{
closed = 1;
nodes = (
"55 -43 OFFCURVE",
"65 -39 OFFCURVE",
"90 -33 CURVE SMOOTH",
"132 -22 OFFCURVE",
"183 -7 OFFCURVE",
"239 5 CURVE SMOOTH",
"324 24 OFFCURVE",
"439 47 OFFCURVE",
"515 47 CURVE SMOOTH",
"556 47 OFFCURVE",
"590 43 OFFCURVE",
"604 36 CURVE",
"604 33 LINE SMOOTH",
"604 24 OFFCURVE",
"609 18 OFFCURVE",
"618 18 CURVE SMOOTH",
"629 18 OFFCURVE",
"635 24 OFFCURVE",
"635 35 CURVE SMOOTH",
"635 55 OFFCURVE",
"588 81 OFFCURVE",
"525 81 CURVE SMOOTH",
"420 81 OFFCURVE",
"272 55 OFFCURVE",
"79 3 CURVE",
"146 122 OFFCURVE",
"205 223 OFFCURVE",
"256 307 CURVE SMOOTH",
"390 530 OFFCURVE",
"457 641 OFFCURVE",
"457 647 CURVE SMOOTH",
"457 656 OFFCURVE",
"445 667 OFFCURVE",
"436 667 CURVE SMOOTH",
"431 667 OFFCURVE",
"428 665 OFFCURVE",
"423 658 CURVE SMOOTH",
"392 608 OFFCURVE",
"372 573 OFFCURVE",
"357 547 CURVE SMOOTH",
"226 328 LINE SMOOTH",
"84 91 OFFCURVE",
"27 -3 OFFCURVE",
"27 -21 CURVE SMOOTH",
"27 -32 OFFCURVE",
"42 -43 OFFCURVE",
"52 -43 CURVE SMOOTH"
);
}
);
userData = {
assembly = "NPUSHB[ ]	/* 25 values pushed */\0121 43 43 64 44 4 14 7 2 0 39 28 27 25 10 9 5 4 0 36 22 1 1 28 70 \012SROUND[ ]	/* SuperRound */\012MDAP[1]	/* MoveDirectAbsPt */\012SHZ[1]	/* ShiftZoneByLastPoint */\012RTG[ ]	/* RoundToGrid */\012SVTCA[0]	/* SetFreedomAndProjectionVectorToAxis */\012MIAP[1]	/* MoveIndirectAbsPt */\012MDAP[1]	/* MoveDirectAbsPt */\012SVTCA[1]	/* SetFreedomAndProjectionVectorToAxis */\012MDAP[0]	/* MoveDirectAbsPt */\012MDAP[0]	/* MoveDirectAbsPt */\012MDAP[0]	/* MoveDirectAbsPt */\012MDAP[0]	/* MoveDirectAbsPt */\012MDAP[0]	/* MoveDirectAbsPt */\012MDAP[0]	/* MoveDirectAbsPt */\012MDAP[0]	/* MoveDirectAbsPt */\012MDAP[0]	/* MoveDirectAbsPt */\012MDAP[0]	/* MoveDirectAbsPt */\012SVTCA[0]	/* SetFreedomAndProjectionVectorToAxis */\012MDAP[0]	/* MoveDirectAbsPt */\012MDAP[0]	/* MoveDirectAbsPt */\012MDAP[0]	/* MoveDirectAbsPt */\012MDAP[0]	/* MoveDirectAbsPt */\012IUP[1]	/* InterpolateUntPts */\012IUP[0]	/* InterpolateUntPts */\012SVTCA[1]	/* SetFreedomAndProjectionVectorToAxis */\012MD[0]	/* MeasureDistance */\012ROUND[00]	/* Round */\012PUSHW[ ]	/* 2 values pushed */\01228 43 \012MD[0]	/* MeasureDistance */\012ROUND[00]	/* Round */\012SUB[ ]	/* Subtract */\012PUSHB[ ]	/* 1 value pushed */\01264 \012GT[ ]	/* GreaterThan */\012IF[ ]	/* If */\012SHPIX[ ]	/* ShiftZoneByPixel */\012SRP1[ ]	/* SetRefPoint1 */\012SHZ[1]	/* ShiftZoneByLastPoint */\012PUSHW[ ]	/* 2 values pushed */\01243 -64 \012SHPIX[ ]	/* ShiftZoneByPixel */\012EIF[ ]	/* EndIf */";
};
width = 649;
}
);
note = L;
unicode = 004C;
},
{
glyphname = M;
lastChange = "2021-11-06 03:09:09 +0000";
layers = (
{
background = {
paths = (
{
closed = 1;
nodes = (
"25 -68 OFFCURVE",
"32 -62 OFFCURVE",
"39 -50 CURVE SMOOTH",
"136 123 OFFCURVE",
"196 200 OFFCURVE",
"299 312 CURVE SMOOTH",
"338 354 OFFCURVE",
"384 400 OFFCURVE",
"438 449 CURVE SMOOTH",
"516 520 OFFCURVE",
"567 555 OFFCURVE",
"591 555 CURVE SMOOTH",
"600 555 OFFCURVE",
"604 547 OFFCURVE",
"604 531 CURVE SMOOTH",
"604 503 OFFCURVE",
"586 440 OFFCURVE",
"551 342 CURVE SMOOTH",
"477 144 LINE SMOOTH",
"458 88 OFFCURVE",
"449 50 OFFCURVE",
"449 31 CURVE SMOOTH",
"449 19 OFFCURVE",
"455 13 OFFCURVE",
"466 13 CURVE SMOOTH",
"473 13 OFFCURVE",
"479 15 OFFCURVE",
"482 18 CURVE SMOOTH",
"500 39 OFFCURVE",
"513 55 OFFCURVE",
"522 66 CURVE SMOOTH",
"589 144 LINE SMOOTH",
"740 309 OFFCURVE",
"890 423 OFFCURVE",
"1038 487 CURVE SMOOTH",
"1051 493 OFFCURVE",
"1060 496 OFFCURVE",
"1063 496 CURVE SMOOTH",
"1066 496 OFFCURVE",
"1068 494 OFFCURVE",
"1068 490 CURVE SMOOTH",
"1068 485 OFFCURVE",
"1065 475 OFFCURVE",
"1058 459 CURVE SMOOTH",
"946 216 LINE SMOOTH",
"892 96 OFFCURVE",
"865 17 OFFCURVE",
"865 -20 CURVE SMOOTH",
"865 -51 OFFCURVE",
"879 -66 OFFCURVE",
"906 -66 CURVE SMOOTH",
"917 -66 OFFCURVE",
"929 -63 OFFCURVE",
"942 -58 CURVE SMOOTH",
"963 -49 OFFCURVE",
"987 -33 OFFCURVE",
"1015 -9 CURVE SMOOTH",
"1029 4 OFFCURVE",
"1048 22 OFFCURVE",
"1072 47 CURVE SMOOTH",
"1075 50 OFFCURVE",
"1076 54 OFFCURVE",
"1076 57 CURVE SMOOTH",
"1076 69 OFFCURVE",
"1070 75 OFFCURVE",
"1058 75 CURVE SMOOTH",
"1054 75 OFFCURVE",
"1038 61 OFFCURVE",
"1011 33 CURVE SMOOTH",
"982 2 OFFCURVE",
"957 -17 OFFCURVE",
"937 -26 CURVE SMOOTH",
"928 -30 OFFCURVE",
"920 -32 OFFCURVE",
"915 -32 CURVE SMOOTH",
"906 -32 OFFCURVE",
"902 -27 OFFCURVE",
"902 -16 CURVE SMOOTH",
"902 -12 OFFCURVE",
"903 -7 OFFCURVE",
"904 0 CURVE SMOOTH",
"914 41 OFFCURVE",
"943 112 OFFCURVE",
"991 214 CURVE SMOOTH",
"1083 409 LINE SMOOTH",
"1100 448 OFFCURVE",
"1109 480 OFFCURVE",
"1109 503 CURVE SMOOTH",
"1109 526 OFFCURVE",
"1100 537 OFFCURVE",
"1081 537 CURVE SMOOTH",
"1074 537 OFFCURVE",
"1065 535 OFFCURVE",
"1055 532 CURVE SMOOTH",
"1032 524 OFFCURVE",
"1000 509 OFFCURVE",
"959 487 CURVE SMOOTH",
"802 403 OFFCURVE",
"648 269 OFFCURVE",
"497 86 CURVE",
"502 105 OFFCURVE",
"530 180 OFFCURVE",
"581 311 CURVE SMOOTH",
"620 414 OFFCURVE",
"640 486 OFFCURVE",
"640 527 CURVE SMOOTH",
"640 564 OFFCURVE",
"626 583 OFFCURVE",
"597 583 CURVE SMOOTH",
"552 583 OFFCURVE",
"480 537 OFFCURVE",
"381 444 CURVE SMOOTH",
"314 382 OFFCURVE",
"253 317 OFFCURVE",
"196 248 CURVE",
"225 307 OFFCURVE",
"252 369 OFFCURVE",
"277 436 CURVE SMOOTH",
"308 523 OFFCURVE",
"324 589 OFFCURVE",
"324 633 CURVE SMOOTH",
"324 648 OFFCURVE",
"320 656 OFFCURVE",
"312 656 CURVE SMOOTH",
"301 656 OFFCURVE",
"287 642 OFFCURVE",
"287 634 CURVE SMOOTH",
"287 575 OFFCURVE",
"262 489 OFFCURVE",
"212 375 CURVE SMOOTH",
"179 301 OFFCURVE",
"133 209 OFFCURVE",
"72 98 CURVE SMOOTH",
"22 6 OFFCURVE",
"-3 -42 OFFCURVE",
"-3 -46 CURVE SMOOTH",
"-3 -61 OFFCURVE",
"4 -68 OFFCURVE",
"17 -68 CURVE SMOOTH"
);
}
);
};
layerId = "5D3CF454-A725-4551-B6FA-6F6FD8C18533";
paths = (
{
closed = 1;
nodes = (
"25 -53 OFFCURVE",
"32 -47 OFFCURVE",
"39 -35 CURVE SMOOTH",
"136 138 OFFCURVE",
"196 215 OFFCURVE",
"299 327 CURVE SMOOTH",
"338 369 OFFCURVE",
"384 415 OFFCURVE",
"438 464 CURVE SMOOTH",
"516 535 OFFCURVE",
"567 570 OFFCURVE",
"587 570 CURVE SMOOTH",
"598 570 OFFCURVE",
"604 565 OFFCURVE",
"604 550 CURVE SMOOTH",
"604 518 OFFCURVE",
"587 454 OFFCURVE",
"551 357 CURVE SMOOTH",
"477 159 LINE SMOOTH",
"461 116 OFFCURVE",
"449 71 OFFCURVE",
"449 46 CURVE SMOOTH",
"449 34 OFFCURVE",
"455 28 OFFCURVE",
"466 28 CURVE SMOOTH",
"480 28 OFFCURVE",
"483 34 OFFCURVE",
"500 54 CURVE SMOOTH",
"592 164 OFFCURVE",
"651 230 OFFCURVE",
"753 319 CURVE SMOOTH",
"837 392 OFFCURVE",
"941 458 OFFCURVE",
"1023 496 CURVE SMOOTH",
"1051 509 OFFCURVE",
"1060 511 OFFCURVE",
"1063 511 CURVE SMOOTH",
"1066 511 OFFCURVE",
"1068 509 OFFCURVE",
"1068 505 CURVE SMOOTH",
"1068 500 OFFCURVE",
"1065 490 OFFCURVE",
"1051 459 CURVE SMOOTH",
"946 231 LINE SMOOTH",
"891 111 OFFCURVE",
"865 32 OFFCURVE",
"865 -5 CURVE SMOOTH",
"865 -36 OFFCURVE",
"879 -51 OFFCURVE",
"906 -51 CURVE SMOOTH",
"941 -51 OFFCURVE",
"980 -24 OFFCURVE",
"1015 6 CURVE SMOOTH",
"1029 19 OFFCURVE",
"1048 37 OFFCURVE",
"1065 55 CURVE SMOOTH",
"1074 64 OFFCURVE",
"1076 68 OFFCURVE",
"1076 72 CURVE SMOOTH",
"1076 84 OFFCURVE",
"1070 90 OFFCURVE",
"1060 90 CURVE SMOOTH",
"1051 90 OFFCURVE",
"1038 76 OFFCURVE",
"1031 68 CURVE SMOOTH",
"984 19 OFFCURVE",
"942 -17 OFFCURVE",
"915 -17 CURVE SMOOTH",
"906 -17 OFFCURVE",
"902 -12 OFFCURVE",
"902 -1 CURVE SMOOTH",
"902 35 OFFCURVE",
"956 155 OFFCURVE",
"991 229 CURVE SMOOTH",
"1083 424 LINE SMOOTH",
"1101 462 OFFCURVE",
"1109 495 OFFCURVE",
"1109 518 CURVE SMOOTH",
"1109 541 OFFCURVE",
"1100 552 OFFCURVE",
"1081 552 CURVE SMOOTH",
"1055 552 OFFCURVE",
"1001 525 OFFCURVE",
"959 502 CURVE SMOOTH",
"802 418 OFFCURVE",
"648 284 OFFCURVE",
"497 101 CURVE",
"502 120 OFFCURVE",
"530 195 OFFCURVE",
"581 326 CURVE SMOOTH",
"620 429 OFFCURVE",
"640 501 OFFCURVE",
"640 542 CURVE SMOOTH",
"640 579 OFFCURVE",
"626 598 OFFCURVE",
"597 598 CURVE SMOOTH",
"552 598 OFFCURVE",
"480 552 OFFCURVE",
"381 459 CURVE SMOOTH",
"314 397 OFFCURVE",
"253 332 OFFCURVE",
"196 263 CURVE",
"225 322 OFFCURVE",
"252 384 OFFCURVE",
"277 451 CURVE SMOOTH",
"308 538 OFFCURVE",
"324 604 OFFCURVE",
"324 648 CURVE SMOOTH",
"324 663 OFFCURVE",
"320 671 OFFCURVE",
"312 671 CURVE SMOOTH",
"301 671 OFFCURVE",
"287 657 OFFCURVE",
"287 649 CURVE SMOOTH",
"287 590 OFFCURVE",
"262 504 OFFCURVE",
"212 390 CURVE SMOOTH",
"179 316 OFFCURVE",
"133 224 OFFCURVE",
"72 113 CURVE SMOOTH",
"47 66 OFFCURVE",
"28 31 OFFCURVE",
"15 7 CURVE SMOOTH",
"3 -16 OFFCURVE",
"-3 -27 OFFCURVE",
"-3 -34 CURVE SMOOTH",
"-3 -45 OFFCURVE",
"4 -53 OFFCURVE",
"17 -53 CURVE SMOOTH"
);
}
);
userData = {
assembly = "NPUSHB[ ]	/* 35 values pushed */\0121 100 100 64 101 22 78 68 58 38 32 14 8 4 89 76 70 56 50 40 30 22 14 10 4 0 98 87 48 1 20 3 1 89 70 \012SROUND[ ]	/* SuperRound */\012MDAP[1]	/* MoveDirectAbsPt */\012SHZ[1]	/* ShiftZoneByLastPoint */\012RTG[ ]	/* RoundToGrid */\012SVTCA[0]	/* SetFreedomAndProjectionVectorToAxis */\012MIAP[1]	/* MoveIndirectAbsPt */\012MIAP[1]	/* MoveIndirectAbsPt */\012ALIGNRP[ ]	/* AlignRelativePt */\012MDAP[1]	/* MoveDirectAbsPt */\012SVTCA[1]	/* SetFreedomAndProjectionVectorToAxis */\012MDAP[0]	/* MoveDirectAbsPt */\012MDAP[0]	/* MoveDirectAbsPt */\012MDAP[0]	/* MoveDirectAbsPt */\012MDAP[0]	/* MoveDirectAbsPt */\012MDAP[0]	/* MoveDirectAbsPt */\012MDAP[0]	/* MoveDirectAbsPt */\012MDAP[0]	/* MoveDirectAbsPt */\012MDAP[0]	/* MoveDirectAbsPt */\012MDAP[0]	/* MoveDirectAbsPt */\012MDAP[0]	/* MoveDirectAbsPt */\012MDAP[0]	/* MoveDirectAbsPt */\012MDAP[0]	/* MoveDirectAbsPt */\012SVTCA[0]	/* SetFreedomAndProjectionVectorToAxis */\012MDAP[0]	/* MoveDirectAbsPt */\012MDAP[0]	/* MoveDirectAbsPt */\012MDAP[0]	/* MoveDirectAbsPt */\012MDAP[0]	/* MoveDirectAbsPt */\012MDAP[0]	/* MoveDirectAbsPt */\012MDAP[0]	/* MoveDirectAbsPt */\012MDAP[0]	/* MoveDirectAbsPt */\012MDAP[0]	/* MoveDirectAbsPt */\012IUP[1]	/* InterpolateUntPts */\012IUP[0]	/* InterpolateUntPts */\012SVTCA[1]	/* SetFreedomAndProjectionVectorToAxis */\012MD[0]	/* MeasureDistance */\012ROUND[00]	/* Round */\012PUSHW[ ]	/* 2 values pushed */\01289 100 \012MD[0]	/* MeasureDistance */\012ROUND[00]	/* Round */\012SUB[ ]	/* Subtract */\012PUSHB[ ]	/* 1 value pushed */\01264 \012GT[ ]	/* GreaterThan */\012IF[ ]	/* If */\012SHPIX[ ]	/* ShiftZoneByPixel */\012SRP1[ ]	/* SetRefPoint1 */\012SHZ[1]	/* ShiftZoneByLastPoint */\012PUSHW[ ]	/* 2 values pushed */\012100 -64 \012SHPIX[ ]	/* ShiftZoneByPixel */\012EIF[ ]	/* EndIf */";
};
width = 1123;
}
);
note = M;
unicode = 004D;
},
{
glyphname = N;
lastChange = "2021-11-06 03:09:09 +0000";
layers = (
{
background = {
paths = (
{
closed = 1;
nodes = (
"1 -67 OFFCURVE",
"4 -63 OFFCURVE",
"4 -56 CURVE SMOOTH",
"4 -58 LINE",
"39 67 OFFCURVE",
"94 192 OFFCURVE",
"169 316 CURVE SMOOTH",
"239 433 OFFCURVE",
"301 517 OFFCURVE",
"354 568 CURVE",
"354 556 OFFCURVE",
"353 544 OFFCURVE",
"353 532 CURVE SMOOTH",
"353 360 OFFCURVE",
"387 128 OFFCURVE",
"437 -30 CURVE",
"438 -28 LINE",
"438 -37 OFFCURVE",
"443 -42 OFFCURVE",
"454 -42 CURVE SMOOTH",
"461 -42 OFFCURVE",
"465 -40 OFFCURVE",
"468 -35 CURVE",
"468 -36 LINE",
"508 25 OFFCURVE",
"539 71 OFFCURVE",
"561 100 CURVE SMOOTH",
"611 172 OFFCURVE",
"654 240 OFFCURVE",
"689 305 CURVE SMOOTH",
"796 499 LINE SMOOTH",
"847 596 OFFCURVE",
"872 661 OFFCURVE",
"872 692 CURVE SMOOTH",
"872 705 OFFCURVE",
"865 711 OFFCURVE",
"852 711 CURVE SMOOTH",
"843 711 OFFCURVE",
"839 706 OFFCURVE",
"839 697 CURVE SMOOTH",
"839 670 OFFCURVE",
"814 607 OFFCURVE",
"763 510 CURVE SMOOTH",
"755 494 OFFCURVE",
"721 431 OFFCURVE",
"660 322 CURVE SMOOTH",
"619 247 OFFCURVE",
"553 148 OFFCURVE",
"462 24 CURVE",
"415 206 OFFCURVE",
"392 375 OFFCURVE",
"392 530 CURVE SMOOTH",
"392 538 OFFCURVE",
"393 550 OFFCURVE",
"394 566 CURVE SMOOTH",
"395 582 OFFCURVE",
"395 594 OFFCURVE",
"395 601 CURVE SMOOTH",
"395 615 OFFCURVE",
"387 622 OFFCURVE",
"371 622 CURVE SMOOTH",
"367 622 OFFCURVE",
"364 621 OFFCURVE",
"362 620 CURVE",
"362 619 LINE",
"307 581 OFFCURVE",
"233 486 OFFCURVE",
"140 334 CURVE SMOOTH",
"68 216 OFFCURVE",
"11 89 OFFCURVE",
"-30 -46 CURVE",
"-29 -44 LINE",
"-29 -56 OFFCURVE",
"-17 -67 OFFCURVE",
"-6 -67 CURVE SMOOTH"
);
}
);
};
layerId = "5D3CF454-A725-4551-B6FA-6F6FD8C18533";
paths = (
{
closed = 1;
nodes = (
"0 -52 OFFCURVE",
"5 -43 OFFCURVE",
"10 -27 CURVE SMOOTH",
"45 92 OFFCURVE",
"93 206 OFFCURVE",
"169 331 CURVE SMOOTH",
"239 448 OFFCURVE",
"301 532 OFFCURVE",
"354 583 CURVE",
"354 571 OFFCURVE",
"354 559 OFFCURVE",
"354 513 CURVE SMOOTH",
"354 364 OFFCURVE",
"389 143 OFFCURVE",
"434 -4 CURVE SMOOTH",
"439 -22 OFFCURVE",
"443 -27 OFFCURVE",
"454 -27 CURVE SMOOTH",
"463 -27 OFFCURVE",
"467 -23 OFFCURVE",
"472 -15 CURVE SMOOTH",
"510 43 OFFCURVE",
"540 87 OFFCURVE",
"561 115 CURVE SMOOTH",
"611 187 OFFCURVE",
"653 255 OFFCURVE",
"713 364 CURVE SMOOTH",
"824 565 OFFCURVE",
"872 648 OFFCURVE",
"872 707 CURVE SMOOTH",
"872 720 OFFCURVE",
"865 726 OFFCURVE",
"852 726 CURVE SMOOTH",
"843 726 OFFCURVE",
"839 721 OFFCURVE",
"839 712 CURVE SMOOTH",
"839 658 OFFCURVE",
"745 488 OFFCURVE",
"670 354 CURVE SMOOTH",
"619 262 OFFCURVE",
"553 163 OFFCURVE",
"462 39 CURVE",
"415 221 OFFCURVE",
"393 390 OFFCURVE",
"393 505 CURVE SMOOTH",
"393 559 OFFCURVE",
"395 600 OFFCURVE",
"395 616 CURVE SMOOTH",
"395 630 OFFCURVE",
"387 637 OFFCURVE",
"371 637 CURVE SMOOTH",
"364 637 OFFCURVE",
"359 633 OFFCURVE",
"334 612 CURVE SMOOTH",
"289 573 OFFCURVE",
"222 483 OFFCURVE",
"140 349 CURVE SMOOTH",
"74 241 OFFCURVE",
"21 126 OFFCURVE",
"-19 4 CURVE SMOOTH",
"-24 -11 OFFCURVE",
"-29 -22 OFFCURVE",
"-29 -31 CURVE SMOOTH",
"-29 -41 OFFCURVE",
"-17 -52 OFFCURVE",
"-6 -52 CURVE SMOOTH"
);
}
);
userData = {
assembly = "NPUSHB[ ]	/* 37 values pushed */\0121 51 51 64 52 25 41 38 37 15 8 46 45 33 32 25 13 10 6 5 1 23 48 1 46 45 1 33 32 1 35 1 0 1 1 1 70 \012SROUND[ ]	/* SuperRound */\012MDAP[1]	/* MoveDirectAbsPt */\012SHZ[1]	/* ShiftZoneByLastPoint */\012RTG[ ]	/* RoundToGrid */\012SVTCA[0]	/* SetFreedomAndProjectionVectorToAxis */\012MIAP[1]	/* MoveIndirectAbsPt */\012ALIGNRP[ ]	/* AlignRelativePt */\012ALIGNRP[ ]	/* AlignRelativePt */\012MIAP[1]	/* MoveIndirectAbsPt */\012ALIGNRP[ ]	/* AlignRelativePt */\012MIAP[1]	/* MoveIndirectAbsPt */\012ALIGNRP[ ]	/* AlignRelativePt */\012MIAP[1]	/* MoveIndirectAbsPt */\012MDAP[1]	/* MoveDirectAbsPt */\012SVTCA[1]	/* SetFreedomAndProjectionVectorToAxis */\012MDAP[0]	/* MoveDirectAbsPt */\012MDAP[0]	/* MoveDirectAbsPt */\012MDAP[0]	/* MoveDirectAbsPt */\012MDAP[0]	/* MoveDirectAbsPt */\012MDAP[0]	/* MoveDirectAbsPt */\012MDAP[0]	/* MoveDirectAbsPt */\012MDAP[0]	/* MoveDirectAbsPt */\012MDAP[0]	/* MoveDirectAbsPt */\012MDAP[0]	/* MoveDirectAbsPt */\012MDAP[0]	/* MoveDirectAbsPt */\012SVTCA[0]	/* SetFreedomAndProjectionVectorToAxis */\012MDAP[0]	/* MoveDirectAbsPt */\012MDAP[0]	/* MoveDirectAbsPt */\012MDAP[0]	/* MoveDirectAbsPt */\012MDAP[0]	/* MoveDirectAbsPt */\012MDAP[0]	/* MoveDirectAbsPt */\012IUP[1]	/* InterpolateUntPts */\012IUP[0]	/* InterpolateUntPts */\012SVTCA[1]	/* SetFreedomAndProjectionVectorToAxis */\012MD[0]	/* MeasureDistance */\012ROUND[00]	/* Round */\012PUSHW[ ]	/* 2 values pushed */\0121 51 \012MD[0]	/* MeasureDistance */\012ROUND[00]	/* Round */\012SUB[ ]	/* Subtract */\012PUSHB[ ]	/* 1 value pushed */\01264 \012GT[ ]	/* GreaterThan */\012IF[ ]	/* If */\012SHPIX[ ]	/* ShiftZoneByPixel */\012SRP1[ ]	/* SetRefPoint1 */\012SHZ[1]	/* ShiftZoneByLastPoint */\012PUSHW[ ]	/* 2 values pushed */\01251 -64 \012SHPIX[ ]	/* ShiftZoneByPixel */\012EIF[ ]	/* EndIf */";
};
width = 723;
}
);
note = N;
unicode = 004E;
},
{
glyphname = Eng;
lastChange = "2021-11-06 03:09:09 +0000";
layers = (
{
background = {
paths = (
{
closed = 1;
nodes = (
"236 -348 OFFCURVE",
"308 -311 OFFCURVE",
"365 -228 CURVE SMOOTH",
"424 -142 OFFCURVE",
"581 109 OFFCURVE",
"689 305 CURVE SMOOTH",
"797 493 OFFCURVE",
"845 575 OFFCURVE",
"845 634 CURVE SMOOTH",
"845 647 OFFCURVE",
"838 653 OFFCURVE",
"825 653 CURVE SMOOTH",
"816 653 OFFCURVE",
"812 648 OFFCURVE",
"812 639 CURVE SMOOTH",
"812 585 OFFCURVE",
"718 415 OFFCURVE",
"660 322 CURVE SMOOTH",
"618 248 OFFCURVE",
"507 55 OFFCURVE",
"475 11 CURVE",
"428 193 OFFCURVE",
"392 375 OFFCURVE",
"392 530 CURVE SMOOTH",
"392 538 OFFCURVE",
"393 550 OFFCURVE",
"394 566 CURVE SMOOTH",
"395 582 OFFCURVE",
"395 594 OFFCURVE",
"395 601 CURVE SMOOTH",
"395 615 OFFCURVE",
"387 622 OFFCURVE",
"371 622 CURVE SMOOTH",
"367 622 OFFCURVE",
"364 621 OFFCURVE",
"362 620 CURVE",
"362 619 LINE",
"307 581 OFFCURVE",
"233 486 OFFCURVE",
"140 334 CURVE SMOOTH",
"68 216 OFFCURVE",
"11 89 OFFCURVE",
"-30 -46 CURVE",
"-29 -44 LINE",
"-29 -56 OFFCURVE",
"-17 -67 OFFCURVE",
"-6 -67 CURVE SMOOTH",
"0 -67 OFFCURVE",
"3 -54 OFFCURVE",
"4 -54 CURVE",
"4 -56 LINE",
"4 -58 LINE",
"39 67 OFFCURVE",
"94 192 OFFCURVE",
"169 316 CURVE SMOOTH",
"239 433 OFFCURVE",
"301 517 OFFCURVE",
"354 568 CURVE",
"349 393 OFFCURVE",
"397 139 OFFCURVE",
"450 -30 CURVE",
"441 -48 OFFCURVE",
"401 -118 OFFCURVE",
"390 -135 CURVE SMOOTH",
"340 -214 OFFCURVE",
"255 -313 OFFCURVE",
"200 -313 CURVE SMOOTH",
"173 -313 OFFCURVE",
"163 -284 OFFCURVE",
"163 -252 CURVE SMOOTH",
"163 -243 OFFCURVE",
"163 -234 OFFCURVE",
"165 -225 CURVE SMOOTH",
"170 -197 OFFCURVE",
"192 -169 OFFCURVE",
"192 -155 CURVE SMOOTH",
"192 -149 OFFCURVE",
"188 -146 OFFCURVE",
"177 -146 CURVE SMOOTH",
"156 -146 OFFCURVE",
"138 -197 OFFCURVE",
"133 -228 CURVE SMOOTH",
"131 -239 OFFCURVE",
"130 -250 OFFCURVE",
"130 -261 CURVE SMOOTH",
"130 -306 OFFCURVE",
"147 -348 OFFCURVE",
"191 -348 CURVE SMOOTH"
);
}
);
};
layerId = "5D3CF454-A725-4551-B6FA-6F6FD8C18533";
paths = (
{
closed = 1;
nodes = (
"236 -333 OFFCURVE",
"308 -296 OFFCURVE",
"365 -213 CURVE SMOOTH",
"424 -127 OFFCURVE",
"581 124 OFFCURVE",
"689 320 CURVE SMOOTH",
"797 508 OFFCURVE",
"845 590 OFFCURVE",
"845 649 CURVE SMOOTH",
"845 662 OFFCURVE",
"838 668 OFFCURVE",
"825 668 CURVE SMOOTH",
"816 668 OFFCURVE",
"812 663 OFFCURVE",
"812 654 CURVE SMOOTH",
"812 600 OFFCURVE",
"718 430 OFFCURVE",
"660 337 CURVE SMOOTH",
"618 263 OFFCURVE",
"507 70 OFFCURVE",
"475 26 CURVE",
"428 208 OFFCURVE",
"392 390 OFFCURVE",
"392 545 CURVE SMOOTH",
"392 553 OFFCURVE",
"393 565 OFFCURVE",
"394 581 CURVE SMOOTH",
"395 597 OFFCURVE",
"395 609 OFFCURVE",
"395 616 CURVE SMOOTH",
"395 630 OFFCURVE",
"387 637 OFFCURVE",
"371 637 CURVE SMOOTH",
"367 637 OFFCURVE",
"364 636 OFFCURVE",
"362 635 CURVE",
"362 634 LINE",
"307 596 OFFCURVE",
"233 501 OFFCURVE",
"140 349 CURVE SMOOTH",
"68 231 OFFCURVE",
"11 104 OFFCURVE",
"-30 -31 CURVE",
"-29 -29 LINE",
"-29 -41 OFFCURVE",
"-17 -52 OFFCURVE",
"-6 -52 CURVE SMOOTH",
"0 -52 OFFCURVE",
"3 -39 OFFCURVE",
"4 -39 CURVE",
"4 -41 LINE",
"4 -43 LINE",
"39 82 OFFCURVE",
"94 207 OFFCURVE",
"169 331 CURVE SMOOTH",
"239 448 OFFCURVE",
"301 532 OFFCURVE",
"354 583 CURVE",
"349 408 OFFCURVE",
"397 154 OFFCURVE",
"450 -15 CURVE",
"441 -33 OFFCURVE",
"401 -103 OFFCURVE",
"390 -120 CURVE SMOOTH",
"340 -199 OFFCURVE",
"255 -298 OFFCURVE",
"200 -298 CURVE SMOOTH",
"173 -298 OFFCURVE",
"163 -269 OFFCURVE",
"163 -237 CURVE SMOOTH",
"163 -228 OFFCURVE",
"163 -219 OFFCURVE",
"165 -210 CURVE SMOOTH",
"170 -182 OFFCURVE",
"192 -154 OFFCURVE",
"192 -140 CURVE SMOOTH",
"192 -134 OFFCURVE",
"188 -131 OFFCURVE",
"177 -131 CURVE SMOOTH",
"156 -131 OFFCURVE",
"138 -182 OFFCURVE",
"133 -213 CURVE SMOOTH",
"131 -224 OFFCURVE",
"130 -235 OFFCURVE",
"130 -246 CURVE SMOOTH",
"130 -291 OFFCURVE",
"147 -333 OFFCURVE",
"191 -333 CURVE SMOOTH"
);
}
);
width = 722;
}
);
unicode = 014A;
},
{
glyphname = O;
lastChange = "2021-11-06 03:09:09 +0000";
layers = (
{
background = {
paths = (
{
closed = 1;
nodes = (
"281 -58 LINE SMOOTH",
"360 -58 OFFCURVE",
"440 -35 OFFCURVE",
"521 10 CURVE SMOOTH",
"597 52 OFFCURVE",
"661 106 OFFCURVE",
"712 172 CURVE SMOOTH",
"745 215 OFFCURVE",
"767 255 OFFCURVE",
"777 292 CURVE SMOOTH",
"784 317 OFFCURVE",
"787 340 OFFCURVE",
"787 360 CURVE SMOOTH",
"787 431 OFFCURVE",
"758 493 OFFCURVE",
"699 548 CURVE SMOOTH",
"641 601 OFFCURVE",
"576 627 OFFCURVE",
"505 627 CURVE SMOOTH",
"457 627 OFFCURVE",
"402 612 OFFCURVE",
"340 582 CURVE SMOOTH",
"188 509 OFFCURVE",
"89 385 OFFCURVE",
"44 210 CURVE SMOOTH",
"39 192 OFFCURVE",
"37 175 OFFCURVE",
"37 160 CURVE SMOOTH",
"37 94 OFFCURVE",
"61 41 OFFCURVE",
"110 0 CURVE SMOOTH",
"156 -39 OFFCURVE",
"213 -58 OFFCURVE",
"280 -58 CURVE SMOOTH"
);
},
{
closed = 1;
nodes = (
"216 -25 OFFCURVE",
"168 -10 OFFCURVE",
"131 19 CURVE SMOOTH",
"90 52 OFFCURVE",
"69 96 OFFCURVE",
"69 152 CURVE SMOOTH",
"69 167 OFFCURVE",
"71 182 OFFCURVE",
"75 198 CURVE SMOOTH",
"117 365 OFFCURVE",
"210 483 OFFCURVE",
"355 551 CURVE SMOOTH",
"415 579 OFFCURVE",
"466 593 OFFCURVE",
"509 593 CURVE SMOOTH",
"571 593 OFFCURVE",
"627 571 OFFCURVE",
"676 526 CURVE SMOOTH",
"727 479 OFFCURVE",
"753 426 OFFCURVE",
"753 365 CURVE SMOOTH",
"753 347 OFFCURVE",
"750 327 OFFCURVE",
"744 306 CURVE SMOOTH",
"735 273 OFFCURVE",
"714 236 OFFCURVE",
"683 197 CURVE SMOOTH",
"633 134 OFFCURVE",
"572 83 OFFCURVE",
"501 42 CURVE SMOOTH",
"423 -3 OFFCURVE",
"347 -25 OFFCURVE",
"274 -25 CURVE SMOOTH"
);
}
);
};
layerId = "5D3CF454-A725-4551-B6FA-6F6FD8C18533";
paths = (
{
closed = 1;
nodes = (
"281 -43 LINE SMOOTH",
"399 -43 OFFCURVE",
"522 12 OFFCURVE",
"620 92 CURVE SMOOTH",
"711 167 OFFCURVE",
"787 270 OFFCURVE",
"787 375 CURVE SMOOTH",
"787 520 OFFCURVE",
"649 642 OFFCURVE",
"505 642 CURVE SMOOTH",
"388 642 OFFCURVE",
"234 553 OFFCURVE",
"151 448 CURVE SMOOTH",
"95 378 OFFCURVE",
"37 250 OFFCURVE",
"37 175 CURVE SMOOTH",
"37 28 OFFCURVE",
"156 -43 OFFCURVE",
"280 -43 CURVE SMOOTH"
);
},
{
closed = 1;
nodes = (
"158 -10 OFFCURVE",
"71 55 OFFCURVE",
"71 167 CURVE SMOOTH",
"71 236 OFFCURVE",
"121 355 OFFCURVE",
"174 424 CURVE SMOOTH",
"249 521 OFFCURVE",
"394 608 OFFCURVE",
"506 608 CURVE SMOOTH",
"632 608 OFFCURVE",
"751 501 OFFCURVE",
"751 380 CURVE SMOOTH",
"751 287 OFFCURVE",
"678 187 OFFCURVE",
"591 116 CURVE SMOOTH",
"501 42 OFFCURVE",
"387 -10 OFFCURVE",
"274 -10 CURVE SMOOTH"
);
}
);
userData = {
assembly = "NPUSHB[ ]	/* 19 values pushed */\0121 45 45 64 46 14 35 23 41 31 14 4 10 22 0 1 1 4 70 \012SROUND[ ]	/* SuperRound */\012MDAP[1]	/* MoveDirectAbsPt */\012SHZ[1]	/* ShiftZoneByLastPoint */\012RTG[ ]	/* RoundToGrid */\012SVTCA[0]	/* SetFreedomAndProjectionVectorToAxis */\012MIAP[1]	/* MoveIndirectAbsPt */\012ALIGNRP[ ]	/* AlignRelativePt */\012MDAP[1]	/* MoveDirectAbsPt */\012SVTCA[1]	/* SetFreedomAndProjectionVectorToAxis */\012MDAP[0]	/* MoveDirectAbsPt */\012MDAP[0]	/* MoveDirectAbsPt */\012MDAP[0]	/* MoveDirectAbsPt */\012MDAP[0]	/* MoveDirectAbsPt */\012SVTCA[0]	/* SetFreedomAndProjectionVectorToAxis */\012MDAP[0]	/* MoveDirectAbsPt */\012MDAP[0]	/* MoveDirectAbsPt */\012IUP[1]	/* InterpolateUntPts */\012IUP[0]	/* InterpolateUntPts */\012SVTCA[1]	/* SetFreedomAndProjectionVectorToAxis */\012MD[0]	/* MeasureDistance */\012ROUND[00]	/* Round */\012PUSHW[ ]	/* 2 values pushed */\0124 45 \012MD[0]	/* MeasureDistance */\012ROUND[00]	/* Round */\012SUB[ ]	/* Subtract */\012PUSHB[ ]	/* 1 value pushed */\01264 \012GT[ ]	/* GreaterThan */\012IF[ ]	/* If */\012SHPIX[ ]	/* ShiftZoneByPixel */\012SRP1[ ]	/* SetRefPoint1 */\012SHZ[1]	/* ShiftZoneByLastPoint */\012PUSHW[ ]	/* 2 values pushed */\01245 -64 \012SHPIX[ ]	/* ShiftZoneByPixel */\012EIF[ ]	/* EndIf */";
};
width = 775;
}
);
note = O;
unicode = 004F;
},
{
glyphname = OE;
lastChange = "2021-11-06 03:09:09 +0000";
layers = (
{
background = {
paths = (
{
closed = 1;
nodes = (
"253 -58 LINE SMOOTH",
"343 -58 OFFCURVE",
"433 -30 OFFCURVE",
"522 27 CURVE",
"496 -30 LINE",
"496 -45 OFFCURVE",
"502 -52 OFFCURVE",
"514 -52 CURVE SMOOTH",
"515 -52 LINE SMOOTH",
"655 -23 OFFCURVE",
"726 -9 OFFCURVE",
"728 -9 CURVE SMOOTH",
"812 6 OFFCURVE",
"884 14 OFFCURVE",
"943 14 CURVE SMOOTH",
"981 14 OFFCURVE",
"1002 11 OFFCURVE",
"1005 6 CURVE",
"1007 6 OFFCURVE",
"1009 3 OFFCURVE",
"1011 -4 CURVE SMOOTH",
"1013 -11 OFFCURVE",
"1018 -14 OFFCURVE",
"1025 -14 CURVE SMOOTH",
"1036 -14 OFFCURVE",
"1042 -9 OFFCURVE",
"1042 2 CURVE SMOOTH",
"1042 33 OFFCURVE",
"1010 48 OFFCURVE",
"946 48 CURVE SMOOTH",
"854 48 OFFCURVE",
"718 28 OFFCURVE",
"538 -12 CURVE",
"581 81 OFFCURVE",
"652 203 OFFCURVE",
"750 354 CURVE",
"1017 354 LINE SMOOTH",
"1028 354 OFFCURVE",
"1033 359 OFFCURVE",
"1033 370 CURVE SMOOTH",
"1033 381 OFFCURVE",
"1028 386 OFFCURVE",
"1017 386 CURVE SMOOTH",
"772 386 LINE",
"852 505 OFFCURVE",
"908 576 OFFCURVE",
"941 601 CURVE",
"1006 612 OFFCURVE",
"1061 617 OFFCURVE",
"1106 617 CURVE SMOOTH",
"1163 617 OFFCURVE",
"1212 613 OFFCURVE",
"1252 606 CURVE",
"1256 606 LINE SMOOTH",
"1266 606 OFFCURVE",
"1271 612 OFFCURVE",
"1271 623 CURVE SMOOTH",
"1271 630 OFFCURVE",
"1267 635 OFFCURVE",
"1259 638 CURVE SMOOTH",
"1240 646 OFFCURVE",
"1194 650 OFFCURVE",
"1123 650 CURVE SMOOTH",
"1055 650 OFFCURVE",
"989 644 OFFCURVE",
"926 631 CURVE",
"924 630 LINE",
"885 597 OFFCURVE",
"827 525 OFFCURVE",
"752 414 CURVE",
"723 533 OFFCURVE",
"600 627 OFFCURVE",
"477 627 CURVE SMOOTH",
"429 627 OFFCURVE",
"374 612 OFFCURVE",
"312 582 CURVE SMOOTH",
"160 509 OFFCURVE",
"61 385 OFFCURVE",
"16 210 CURVE SMOOTH",
"11 192 OFFCURVE",
"9 175 OFFCURVE",
"9 160 CURVE SMOOTH",
"9 94 OFFCURVE",
"33 41 OFFCURVE",
"82 0 CURVE SMOOTH",
"128 -39 OFFCURVE",
"185 -58 OFFCURVE",
"252 -58 CURVE SMOOTH"
);
},
{
closed = 1;
nodes = (
"188 -25 OFFCURVE",
"140 -10 OFFCURVE",
"103 19 CURVE SMOOTH",
"62 52 OFFCURVE",
"41 96 OFFCURVE",
"41 152 CURVE SMOOTH",
"41 167 OFFCURVE",
"43 182 OFFCURVE",
"47 198 CURVE SMOOTH",
"89 365 OFFCURVE",
"182 483 OFFCURVE",
"327 551 CURVE SMOOTH",
"387 579 OFFCURVE",
"438 593 OFFCURVE",
"481 593 CURVE SMOOTH",
"596 593 OFFCURVE",
"710 499 OFFCURVE",
"723 387 CURVE",
"698 388 OFFCURVE",
"685 383 OFFCURVE",
"685 370 CURVE SMOOTH",
"685 359 OFFCURVE",
"694 354 OFFCURVE",
"712 354 CURVE",
"649 256 OFFCURVE",
"597 170 OFFCURVE",
"558 97 CURVE",
"473 21 OFFCURVE",
"354 -25 OFFCURVE",
"246 -25 CURVE SMOOTH"
);
}
);
};
layerId = "5D3CF454-A725-4551-B6FA-6F6FD8C18533";
paths = (
{
closed = 1;
nodes = (
"253 -43 LINE SMOOTH",
"343 -43 OFFCURVE",
"433 -15 OFFCURVE",
"522 42 CURVE",
"496 -15 LINE",
"496 -30 OFFCURVE",
"502 -37 OFFCURVE",
"514 -37 CURVE SMOOTH",
"515 -37 LINE SMOOTH",
"655 -8 OFFCURVE",
"726 6 OFFCURVE",
"728 6 CURVE SMOOTH",
"812 21 OFFCURVE",
"884 29 OFFCURVE",
"943 29 CURVE SMOOTH",
"981 29 OFFCURVE",
"1002 26 OFFCURVE",
"1005 21 CURVE",
"1007 21 OFFCURVE",
"1009 18 OFFCURVE",
"1011 11 CURVE SMOOTH",
"1013 4 OFFCURVE",
"1018 1 OFFCURVE",
"1025 1 CURVE SMOOTH",
"1036 1 OFFCURVE",
"1042 6 OFFCURVE",
"1042 17 CURVE SMOOTH",
"1042 48 OFFCURVE",
"1010 63 OFFCURVE",
"946 63 CURVE SMOOTH",
"854 63 OFFCURVE",
"718 43 OFFCURVE",
"538 3 CURVE",
"581 96 OFFCURVE",
"652 218 OFFCURVE",
"750 369 CURVE",
"1017 369 LINE SMOOTH",
"1028 369 OFFCURVE",
"1033 374 OFFCURVE",
"1033 385 CURVE SMOOTH",
"1033 396 OFFCURVE",
"1028 401 OFFCURVE",
"1017 401 CURVE SMOOTH",
"772 401 LINE",
"852 520 OFFCURVE",
"908 591 OFFCURVE",
"941 616 CURVE",
"1006 627 OFFCURVE",
"1061 632 OFFCURVE",
"1106 632 CURVE SMOOTH",
"1163 632 OFFCURVE",
"1212 628 OFFCURVE",
"1252 621 CURVE",
"1256 621 LINE SMOOTH",
"1266 621 OFFCURVE",
"1271 627 OFFCURVE",
"1271 638 CURVE SMOOTH",
"1271 645 OFFCURVE",
"1267 650 OFFCURVE",
"1259 653 CURVE SMOOTH",
"1240 661 OFFCURVE",
"1194 665 OFFCURVE",
"1123 665 CURVE SMOOTH",
"1055 665 OFFCURVE",
"989 659 OFFCURVE",
"926 646 CURVE",
"924 645 LINE",
"885 612 OFFCURVE",
"827 540 OFFCURVE",
"752 429 CURVE",
"723 548 OFFCURVE",
"600 642 OFFCURVE",
"477 642 CURVE SMOOTH",
"429 642 OFFCURVE",
"374 627 OFFCURVE",
"312 597 CURVE SMOOTH",
"160 524 OFFCURVE",
"61 400 OFFCURVE",
"16 225 CURVE SMOOTH",
"11 207 OFFCURVE",
"9 190 OFFCURVE",
"9 175 CURVE SMOOTH",
"9 109 OFFCURVE",
"33 56 OFFCURVE",
"82 15 CURVE SMOOTH",
"128 -24 OFFCURVE",
"185 -43 OFFCURVE",
"252 -43 CURVE SMOOTH"
);
},
{
closed = 1;
nodes = (
"188 -10 OFFCURVE",
"140 5 OFFCURVE",
"103 34 CURVE SMOOTH",
"62 67 OFFCURVE",
"41 111 OFFCURVE",
"41 167 CURVE SMOOTH",
"41 182 OFFCURVE",
"43 197 OFFCURVE",
"47 213 CURVE SMOOTH",
"89 380 OFFCURVE",
"182 498 OFFCURVE",
"327 566 CURVE SMOOTH",
"387 594 OFFCURVE",
"438 608 OFFCURVE",
"481 608 CURVE SMOOTH",
"596 608 OFFCURVE",
"710 514 OFFCURVE",
"723 402 CURVE",
"698 403 OFFCURVE",
"685 398 OFFCURVE",
"685 385 CURVE SMOOTH",
"685 374 OFFCURVE",
"694 369 OFFCURVE",
"712 369 CURVE",
"649 271 OFFCURVE",
"597 185 OFFCURVE",
"558 112 CURVE",
"473 36 OFFCURVE",
"354 -10 OFFCURVE",
"246 -10 CURVE SMOOTH"
);
}
);
userData = {
assembly = "NPUSHB[ ]	/* 46 values pushed */\0121 84 84 64 85 72 77 75 74 63 60 47 38 33 29 27 19 9 81 72 47 45 31 27 22 6 4 2 15 4 54 25 24 6 82 81 68 50 49 1 43 42 1 1 54 70 \012SROUND[ ]	/* SuperRound */\012MDAP[1]	/* MoveDirectAbsPt */\012SHZ[1]	/* ShiftZoneByLastPoint */\012RTG[ ]	/* RoundToGrid */\012SVTCA[0]	/* SetFreedomAndProjectionVectorToAxis */\012MIAP[1]	/* MoveIndirectAbsPt */\012ALIGNRP[ ]	/* AlignRelativePt */\012MIAP[1]	/* MoveIndirectAbsPt */\012ALIGNRP[ ]	/* AlignRelativePt */\012MDAP[1]	/* MoveDirectAbsPt */\012MDAP[1]	/* MoveDirectAbsPt */\012ALIGNRP[ ]	/* AlignRelativePt */\012MIRP[11101]	/* MoveIndirectRelPt */\012ALIGNRP[ ]	/* AlignRelativePt */\012SVTCA[1]	/* SetFreedomAndProjectionVectorToAxis */\012MDAP[1]	/* MoveDirectAbsPt */\012MIRP[11101]	/* MoveIndirectRelPt */\012MDAP[0]	/* MoveDirectAbsPt */\012MDAP[0]	/* MoveDirectAbsPt */\012MDAP[0]	/* MoveDirectAbsPt */\012MDAP[0]	/* MoveDirectAbsPt */\012MDAP[0]	/* MoveDirectAbsPt */\012MDAP[0]	/* MoveDirectAbsPt */\012MDAP[0]	/* MoveDirectAbsPt */\012MDAP[0]	/* MoveDirectAbsPt */\012MDAP[0]	/* MoveDirectAbsPt */\012MDAP[0]	/* MoveDirectAbsPt */\012SVTCA[0]	/* SetFreedomAndProjectionVectorToAxis */\012MDAP[0]	/* MoveDirectAbsPt */\012MDAP[0]	/* MoveDirectAbsPt */\012MDAP[0]	/* MoveDirectAbsPt */\012MDAP[0]	/* MoveDirectAbsPt */\012MDAP[0]	/* MoveDirectAbsPt */\012MDAP[0]	/* MoveDirectAbsPt */\012MDAP[0]	/* MoveDirectAbsPt */\012MDAP[0]	/* MoveDirectAbsPt */\012MDAP[0]	/* MoveDirectAbsPt */\012MDAP[0]	/* MoveDirectAbsPt */\012MDAP[0]	/* MoveDirectAbsPt */\012MDAP[0]	/* MoveDirectAbsPt */\012IUP[1]	/* InterpolateUntPts */\012IUP[0]	/* InterpolateUntPts */\012SVTCA[1]	/* SetFreedomAndProjectionVectorToAxis */\012MD[0]	/* MeasureDistance */\012ROUND[00]	/* Round */\012PUSHW[ ]	/* 2 values pushed */\01254 84 \012MD[0]	/* MeasureDistance */\012ROUND[00]	/* Round */\012SUB[ ]	/* Subtract */\012PUSHB[ ]	/* 1 value pushed */\01264 \012GT[ ]	/* GreaterThan */\012IF[ ]	/* If */\012SHPIX[ ]	/* ShiftZoneByPixel */\012SRP1[ ]	/* SetRefPoint1 */\012SHZ[1]	/* ShiftZoneByLastPoint */\012PUSHW[ ]	/* 2 values pushed */\01284 -64 \012SHPIX[ ]	/* ShiftZoneByPixel */\012EIF[ ]	/* EndIf */";
};
width = 1074;
}
);
note = OE;
unicode = 0152;
},
{
glyphname = P;
lastChange = "2021-11-06 03:09:09 +0000";
layers = (
{
background = {
paths = (
{
closed = 1;
nodes = (
"57 -29 OFFCURVE",
"61 -27 OFFCURVE",
"64 -22 CURVE",
"87 24 OFFCURVE",
"103 59 OFFCURVE",
"114 82 CURVE SMOOTH",
"230 336 LINE SMOOTH",
"275 433 OFFCURVE",
"318 515 OFFCURVE",
"358 584 CURVE",
"451 609 OFFCURVE",
"527 622 OFFCURVE",
"587 622 CURVE SMOOTH",
"687 622 OFFCURVE",
"737 595 OFFCURVE",
"737 540 CURVE SMOOTH",
"737 497 OFFCURVE",
"713 456 OFFCURVE",
"664 416 CURVE SMOOTH",
"626 385 OFFCURVE",
"582 360 OFFCURVE",
"532 342 CURVE SMOOTH",
"433 306 OFFCURVE",
"346 288 OFFCURVE",
"271 288 CURVE SMOOTH",
"260 288 OFFCURVE",
"255 284 OFFCURVE",
"255 276 CURVE SMOOTH",
"255 263 OFFCURVE",
"260 257 OFFCURVE",
"270 257 CURVE SMOOTH",
"348 257 OFFCURVE",
"438 276 OFFCURVE",
"541 313 CURVE SMOOTH",
"670 360 OFFCURVE",
"745 421 OFFCURVE",
"766 497 CURVE SMOOTH",
"770 512 OFFCURVE",
"772 527 OFFCURVE",
"772 544 CURVE SMOOTH",
"772 617 OFFCURVE",
"710 654 OFFCURVE",
"586 654 CURVE SMOOTH",
"533 654 OFFCURVE",
"465 644 OFFCURVE",
"382 624 CURVE",
"387 633 OFFCURVE",
"389 640 OFFCURVE",
"389 645 CURVE SMOOTH",
"389 650 OFFCURVE",
"386 653 OFFCURVE",
"380 653 CURVE SMOOTH",
"373 653 OFFCURVE",
"366 651 OFFCURVE",
"358 647 CURVE",
"349 635 OFFCURVE",
"341 623 OFFCURVE",
"334 611 CURVE",
"273 594 OFFCURVE",
"232 579 OFFCURVE",
"210 566 CURVE SMOOTH",
"203 561 OFFCURVE",
"199 556 OFFCURVE",
"199 550 CURVE SMOOTH",
"199 540 OFFCURVE",
"204 535 OFFCURVE",
"213 535 CURVE SMOOTH",
"216 535 OFFCURVE",
"218 535 OFFCURVE",
"220 536 CURVE SMOOTH",
"251 551 OFFCURVE",
"281 562 OFFCURVE",
"310 571 CURVE",
"275 509 OFFCURVE",
"235 431 OFFCURVE",
"192 336 CURVE SMOOTH",
"83 97 LINE",
"32 -5 LINE",
"32 -10 LINE SMOOTH",
"32 -23 OFFCURVE",
"39 -29 OFFCURVE",
"52 -29 CURVE SMOOTH"
);
}
);
};
layerId = "5D3CF454-A725-4551-B6FA-6F6FD8C18533";
paths = (
{
closed = 1;
nodes = (
"59 -14 OFFCURVE",
"62 -10 OFFCURVE",
"67 0 CURVE SMOOTH",
"87 39 OFFCURVE",
"103 74 OFFCURVE",
"114 97 CURVE SMOOTH",
"230 351 LINE SMOOTH",
"274 448 OFFCURVE",
"318 530 OFFCURVE",
"358 599 CURVE",
"451 624 OFFCURVE",
"527 637 OFFCURVE",
"587 637 CURVE SMOOTH",
"687 637 OFFCURVE",
"737 610 OFFCURVE",
"737 555 CURVE SMOOTH",
"737 474 OFFCURVE",
"649 400 OFFCURVE",
"532 357 CURVE SMOOTH",
"433 321 OFFCURVE",
"346 303 OFFCURVE",
"271 303 CURVE SMOOTH",
"260 303 OFFCURVE",
"255 299 OFFCURVE",
"255 291 CURVE SMOOTH",
"255 278 OFFCURVE",
"260 272 OFFCURVE",
"270 272 CURVE SMOOTH",
"348 272 OFFCURVE",
"438 291 OFFCURVE",
"541 328 CURVE SMOOTH",
"669 375 OFFCURVE",
"772 445 OFFCURVE",
"772 559 CURVE SMOOTH",
"772 632 OFFCURVE",
"710 669 OFFCURVE",
"586 669 CURVE SMOOTH",
"533 669 OFFCURVE",
"465 659 OFFCURVE",
"382 639 CURVE",
"387 648 OFFCURVE",
"389 655 OFFCURVE",
"389 660 CURVE SMOOTH",
"389 665 OFFCURVE",
"386 668 OFFCURVE",
"380 668 CURVE SMOOTH",
"373 668 OFFCURVE",
"361 666 OFFCURVE",
"355 658 CURVE SMOOTH",
"349 650 OFFCURVE",
"341 638 OFFCURVE",
"334 626 CURVE",
"273 609 OFFCURVE",
"232 594 OFFCURVE",
"210 581 CURVE SMOOTH",
"203 576 OFFCURVE",
"199 571 OFFCURVE",
"199 565 CURVE SMOOTH",
"199 556 OFFCURVE",
"205 550 OFFCURVE",
"213 550 CURVE SMOOTH",
"218 550 OFFCURVE",
"220 551 OFFCURVE",
"236 559 CURVE SMOOTH",
"251 566 OFFCURVE",
"281 577 OFFCURVE",
"310 586 CURVE",
"275 524 OFFCURVE",
"237 448 OFFCURVE",
"192 351 CURVE SMOOTH",
"111 175 OFFCURVE",
"84 112 OFFCURVE",
"43 32 CURVE SMOOTH",
"37 20 OFFCURVE",
"32 12 OFFCURVE",
"32 5 CURVE SMOOTH",
"32 -7 OFFCURVE",
"40 -14 OFFCURVE",
"51 -14 CURVE SMOOTH"
);
}
);
userData = {
assembly = "NPUSHB[ ]	/* 26 values pushed */\0121 59 59 64 60 4 45 41 22 10 0 57 47 41 35 34 20 12 4 0 55 2 32 1 34 70 \012SROUND[ ]	/* SuperRound */\012MDAP[1]	/* MoveDirectAbsPt */\012SHZ[1]	/* ShiftZoneByLastPoint */\012RTG[ ]	/* RoundToGrid */\012SVTCA[0]	/* SetFreedomAndProjectionVectorToAxis */\012MDAP[1]	/* MoveDirectAbsPt */\012MDAP[1]	/* MoveDirectAbsPt */\012ALIGNRP[ ]	/* AlignRelativePt */\012SVTCA[1]	/* SetFreedomAndProjectionVectorToAxis */\012MDAP[0]	/* MoveDirectAbsPt */\012MDAP[0]	/* MoveDirectAbsPt */\012MDAP[0]	/* MoveDirectAbsPt */\012MDAP[0]	/* MoveDirectAbsPt */\012MDAP[0]	/* MoveDirectAbsPt */\012MDAP[0]	/* MoveDirectAbsPt */\012MDAP[0]	/* MoveDirectAbsPt */\012MDAP[0]	/* MoveDirectAbsPt */\012MDAP[0]	/* MoveDirectAbsPt */\012SVTCA[0]	/* SetFreedomAndProjectionVectorToAxis */\012MDAP[0]	/* MoveDirectAbsPt */\012MDAP[0]	/* MoveDirectAbsPt */\012MDAP[0]	/* MoveDirectAbsPt */\012MDAP[0]	/* MoveDirectAbsPt */\012MDAP[0]	/* MoveDirectAbsPt */\012IUP[1]	/* InterpolateUntPts */\012IUP[0]	/* InterpolateUntPts */\012SVTCA[1]	/* SetFreedomAndProjectionVectorToAxis */\012MD[0]	/* MeasureDistance */\012ROUND[00]	/* Round */\012PUSHW[ ]	/* 2 values pushed */\01234 59 \012MD[0]	/* MeasureDistance */\012ROUND[00]	/* Round */\012SUB[ ]	/* Subtract */\012PUSHB[ ]	/* 1 value pushed */\01264 \012GT[ ]	/* GreaterThan */\012IF[ ]	/* If */\012SHPIX[ ]	/* ShiftZoneByPixel */\012SRP1[ ]	/* SetRefPoint1 */\012SHZ[1]	/* ShiftZoneByLastPoint */\012PUSHW[ ]	/* 2 values pushed */\01259 -64 \012SHPIX[ ]	/* ShiftZoneByPixel */\012EIF[ ]	/* EndIf */";
};
width = 588;
}
);
note = P;
unicode = 0050;
},
{
glyphname = Thorn;
lastChange = "2021-11-06 03:09:09 +0000";
layers = (
{
background = {
paths = (
{
closed = 1;
nodes = (
"66 -154 OFFCURVE",
"74 -148 OFFCURVE",
"74 -136 CURVE SMOOTH",
"74 -125 OFFCURVE",
"69 -120 OFFCURVE",
"59 -120 CURVE",
"54 -121 LINE",
"37 -121 OFFCURVE",
"36 -110 OFFCURVE",
"36 -82 CURVE SMOOTH",
"36 -26 OFFCURVE",
"56 51 OFFCURVE",
"132 249 CURVE",
"134 252 OFFCURVE",
"135 256 OFFCURVE",
"137 260 CURVE",
"136 257 OFFCURVE",
"136 253 OFFCURVE",
"136 247 CURVE SMOOTH",
"136 211 OFFCURVE",
"164 186 OFFCURVE",
"201 186 CURVE SMOOTH",
"224 186 OFFCURVE",
"250 195 OFFCURVE",
"279 212 CURVE SMOOTH",
"367 264 OFFCURVE",
"433 335 OFFCURVE",
"478 424 CURVE SMOOTH",
"490 448 OFFCURVE",
"496 472 OFFCURVE",
"496 496 CURVE SMOOTH",
"496 548 OFFCURVE",
"468 588 OFFCURVE",
"417 588 CURVE SMOOTH",
"392 588 OFFCURVE",
"364 579 OFFCURVE",
"334 561 CURVE SMOOTH",
"291 538 OFFCURVE",
"246 491 OFFCURVE",
"197 422 CURVE",
"194 416 OFFCURVE",
"308 634 OFFCURVE",
"329 669 CURVE SMOOTH",
"372 741 OFFCURVE",
"401 778 OFFCURVE",
"418 778 CURVE SMOOTH",
"426 778 OFFCURVE",
"430 782 OFFCURVE",
"430 790 CURVE SMOOTH",
"430 804 OFFCURVE",
"424 811 OFFCURVE",
"411 811 CURVE SMOOTH",
"409 811 LINE",
"380 802 OFFCURVE",
"344 764 OFFCURVE",
"303 695 CURVE SMOOTH",
"267 634 OFFCURVE",
"219 548 OFFCURVE",
"129 332 CURVE SMOOTH",
"102 266 OFFCURVE",
"2 8 OFFCURVE",
"2 -87 CURVE SMOOTH",
"2 -132 OFFCURVE",
"18 -154 OFFCURVE",
"49 -154 CURVE SMOOTH"
);
},
{
closed = 1;
nodes = (
"179 219 OFFCURVE",
"169 228 OFFCURVE",
"169 247 CURVE SMOOTH",
"169 253 OFFCURVE",
"171 258 OFFCURVE",
"174 262 CURVE SMOOTH",
"177 266 OFFCURVE",
"179 269 OFFCURVE",
"179 272 CURVE SMOOTH",
"179 283 OFFCURVE",
"174 288 OFFCURVE",
"163 288 CURVE SMOOTH",
"159 288 OFFCURVE",
"154 285 OFFCURVE",
"148 279 CURVE",
"220 417 OFFCURVE",
"288 501 OFFCURVE",
"351 530 CURVE SMOOTH",
"383 545 OFFCURVE",
"408 552 OFFCURVE",
"427 552 CURVE SMOOTH",
"451 552 OFFCURVE",
"463 538 OFFCURVE",
"463 511 CURVE SMOOTH",
"463 460 OFFCURVE",
"440 407 OFFCURVE",
"395 354 CURVE SMOOTH",
"359 312 OFFCURVE",
"314 275 OFFCURVE",
"261 242 CURVE SMOOTH",
"236 227 OFFCURVE",
"215 219 OFFCURVE",
"198 219 CURVE SMOOTH"
);
}
);
};
layerId = "5D3CF454-A725-4551-B6FA-6F6FD8C18533";
paths = (
{
closed = 1;
nodes = (
"66 -139 OFFCURVE",
"74 -133 OFFCURVE",
"74 -121 CURVE SMOOTH",
"74 -110 OFFCURVE",
"69 -105 OFFCURVE",
"59 -105 CURVE",
"54 -106 LINE",
"37 -106 OFFCURVE",
"36 -95 OFFCURVE",
"36 -67 CURVE SMOOTH",
"36 -11 OFFCURVE",
"56 66 OFFCURVE",
"132 264 CURVE",
"134 267 OFFCURVE",
"135 271 OFFCURVE",
"137 275 CURVE",
"136 272 OFFCURVE",
"136 268 OFFCURVE",
"136 262 CURVE SMOOTH",
"136 226 OFFCURVE",
"164 201 OFFCURVE",
"201 201 CURVE SMOOTH",
"224 201 OFFCURVE",
"250 210 OFFCURVE",
"279 227 CURVE SMOOTH",
"367 279 OFFCURVE",
"433 350 OFFCURVE",
"478 439 CURVE SMOOTH",
"490 463 OFFCURVE",
"496 487 OFFCURVE",
"496 511 CURVE SMOOTH",
"496 563 OFFCURVE",
"468 603 OFFCURVE",
"417 603 CURVE SMOOTH",
"392 603 OFFCURVE",
"364 594 OFFCURVE",
"334 576 CURVE SMOOTH",
"291 553 OFFCURVE",
"246 506 OFFCURVE",
"197 437 CURVE",
"194 431 OFFCURVE",
"308 649 OFFCURVE",
"329 684 CURVE SMOOTH",
"372 756 OFFCURVE",
"401 793 OFFCURVE",
"418 793 CURVE SMOOTH",
"426 793 OFFCURVE",
"430 797 OFFCURVE",
"430 805 CURVE SMOOTH",
"430 819 OFFCURVE",
"424 826 OFFCURVE",
"411 826 CURVE SMOOTH",
"409 826 LINE",
"380 817 OFFCURVE",
"344 779 OFFCURVE",
"303 710 CURVE SMOOTH",
"267 649 OFFCURVE",
"219 563 OFFCURVE",
"129 347 CURVE SMOOTH",
"102 281 OFFCURVE",
"2 23 OFFCURVE",
"2 -72 CURVE SMOOTH",
"2 -117 OFFCURVE",
"18 -139 OFFCURVE",
"49 -139 CURVE SMOOTH"
);
},
{
closed = 1;
nodes = (
"179 234 OFFCURVE",
"169 243 OFFCURVE",
"169 262 CURVE SMOOTH",
"169 268 OFFCURVE",
"171 273 OFFCURVE",
"174 277 CURVE SMOOTH",
"177 281 OFFCURVE",
"179 284 OFFCURVE",
"179 287 CURVE SMOOTH",
"179 298 OFFCURVE",
"174 303 OFFCURVE",
"163 303 CURVE SMOOTH",
"159 303 OFFCURVE",
"154 300 OFFCURVE",
"148 294 CURVE",
"220 432 OFFCURVE",
"288 516 OFFCURVE",
"351 545 CURVE SMOOTH",
"383 560 OFFCURVE",
"408 567 OFFCURVE",
"427 567 CURVE SMOOTH",
"451 567 OFFCURVE",
"463 553 OFFCURVE",
"463 526 CURVE SMOOTH",
"463 475 OFFCURVE",
"440 422 OFFCURVE",
"395 369 CURVE SMOOTH",
"359 327 OFFCURVE",
"314 290 OFFCURVE",
"261 257 CURVE SMOOTH",
"236 242 OFFCURVE",
"215 234 OFFCURVE",
"198 234 CURVE SMOOTH"
);
}
);
width = 410;
}
);
unicode = 00DE;
},
{
glyphname = Q;
lastChange = "2021-11-12 17:01:57 +0000";
layers = (
{
background = {
paths = (
{
closed = 1;
nodes = (
"493 -179 OFFCURVE",
"506 -177 OFFCURVE",
"519 -173 CURVE SMOOTH",
"537 -168 OFFCURVE",
"546 -161 OFFCURVE",
"546 -152 CURVE SMOOTH",
"546 -140 OFFCURVE",
"541 -134 OFFCURVE",
"530 -134 CURVE SMOOTH",
"527 -134 OFFCURVE",
"519 -136 OFFCURVE",
"508 -141 CURVE SMOOTH",
"497 -145 OFFCURVE",
"487 -147 OFFCURVE",
"479 -147 CURVE SMOOTH",
"460 -147 OFFCURVE",
"441 -139 OFFCURVE",
"421 -122 CURVE",
"420 -124 LINE",
"409 -115 OFFCURVE",
"399 -103 OFFCURVE",
"388 -88 CURVE SMOOTH",
"362 -46 LINE",
"481 -7 OFFCURVE",
"586 85 OFFCURVE",
"677 232 CURVE",
"676 234 LINE",
"705 285 OFFCURVE",
"719 342 OFFCURVE",
"719 407 CURVE SMOOTH",
"719 456 OFFCURVE",
"710 497 OFFCURVE",
"692 532 CURVE SMOOTH",
"671 574 OFFCURVE",
"639 601 OFFCURVE",
"596 612 CURVE SMOOTH",
"567 620 OFFCURVE",
"536 624 OFFCURVE",
"503 624 CURVE SMOOTH",
"408 624 OFFCURVE",
"322 595 OFFCURVE",
"244 537 CURVE SMOOTH",
"173 484 OFFCURVE",
"115 412 OFFCURVE",
"70 322 CURVE SMOOTH",
"45 271 OFFCURVE",
"32 214 OFFCURVE",
"32 153 CURVE SMOOTH",
"32 8 OFFCURVE",
"100 -64 OFFCURVE",
"235 -64 CURVE SMOOTH",
"262 -64 OFFCURVE",
"294 -60 OFFCURVE",
"329 -52 CURVE",
"376 -137 OFFCURVE",
"426 -179 OFFCURVE",
"481 -179 CURVE SMOOTH"
);
},
{
closed = 1;
nodes = (
"225 -29 OFFCURVE",
"199 -27 OFFCURVE",
"170 -22 CURVE SMOOTH",
"133 -16 OFFCURVE",
"106 6 OFFCURVE",
"89 45 CURVE SMOOTH",
"75 75 OFFCURVE",
"68 111 OFFCURVE",
"68 154 CURVE SMOOTH",
"68 212 OFFCURVE",
"79 263 OFFCURVE",
"102 308 CURVE SMOOTH",
"145 394 OFFCURVE",
"200 461 OFFCURVE",
"267 510 CURVE SMOOTH",
"340 563 OFFCURVE",
"422 590 OFFCURVE",
"513 590 CURVE SMOOTH",
"542 590 OFFCURVE",
"569 587 OFFCURVE",
"592 582 CURVE SMOOTH",
"625 574 OFFCURVE",
"650 550 OFFCURVE",
"667 511 CURVE SMOOTH",
"680 480 OFFCURVE",
"687 445 OFFCURVE",
"687 405 CURVE SMOOTH",
"687 347 OFFCURVE",
"674 296 OFFCURVE",
"648 252 CURVE SMOOTH",
"564 110 OFFCURVE",
"464 21 OFFCURVE",
"348 -14 CURVE",
"333 12 OFFCURVE",
"321 31 OFFCURVE",
"310 42 CURVE SMOOTH",
"292 59 OFFCURVE",
"271 68 OFFCURVE",
"248 68 CURVE SMOOTH",
"237 68 OFFCURVE",
"226 66 OFFCURVE",
"213 61 CURVE SMOOTH",
"197 55 OFFCURVE",
"189 48 OFFCURVE",
"189 39 CURVE SMOOTH",
"189 28 OFFCURVE",
"195 23 OFFCURVE",
"207 23 CURVE SMOOTH",
"210 23 OFFCURVE",
"215 25 OFFCURVE",
"223 30 CURVE SMOOTH",
"230 35 OFFCURVE",
"239 37 OFFCURVE",
"248 37 CURVE SMOOTH",
"272 37 OFFCURVE",
"294 17 OFFCURVE",
"314 -23 CURVE",
"292 -27 OFFCURVE",
"270 -29 OFFCURVE",
"247 -29 CURVE SMOOTH"
);
}
);
};
layerId = "5D3CF454-A725-4551-B6FA-6F6FD8C18533";
paths = (
{
closed = 1;
nodes = (
"510 -164 OFFCURVE",
"546 -153 OFFCURVE",
"546 -137 CURVE SMOOTH",
"546 -125 OFFCURVE",
"540 -119 OFFCURVE",
"531 -119 CURVE SMOOTH",
"521 -119 OFFCURVE",
"499 -132 OFFCURVE",
"479 -132 CURVE SMOOTH",
"448 -132 OFFCURVE",
"411 -110 OFFCURVE",
"385 -68 CURVE SMOOTH",
"362 -31 LINE",
"451 -2 OFFCURVE",
"532 56 OFFCURVE",
"603 143 CURVE SMOOTH",
"679 236 OFFCURVE",
"719 315 OFFCURVE",
"719 422 CURVE SMOOTH",
"719 570 OFFCURVE",
"647 639 OFFCURVE",
"503 639 CURVE SMOOTH",
"364 639 OFFCURVE",
"242 574 OFFCURVE",
"151 463 CURVE SMOOTH",
"75 371 OFFCURVE",
"32 276 OFFCURVE",
"32 168 CURVE SMOOTH",
"32 23 OFFCURVE",
"100 -49 OFFCURVE",
"235 -49 CURVE SMOOTH",
"262 -49 OFFCURVE",
"294 -45 OFFCURVE",
"329 -37 CURVE",
"376 -122 OFFCURVE",
"426 -164 OFFCURVE",
"481 -164 CURVE SMOOTH"
);
},
{
closed = 1;
nodes = (
"114 -14 OFFCURVE",
"68 45 OFFCURVE",
"68 169 CURVE SMOOTH",
"68 267 OFFCURVE",
"104 350 OFFCURVE",
"176 438 CURVE SMOOTH",
"263 544 OFFCURVE",
"378 606 OFFCURVE",
"511 606 CURVE SMOOTH",
"628 606 OFFCURVE",
"687 556 OFFCURVE",
"687 420 CURVE SMOOTH",
"687 325 OFFCURVE",
"652 257 OFFCURVE",
"580 168 CURVE SMOOTH",
"512 83 OFFCURVE",
"434 27 OFFCURVE",
"348 1 CURVE",
"333 27 OFFCURVE",
"321 46 OFFCURVE",
"310 57 CURVE SMOOTH",
"292 74 OFFCURVE",
"271 83 OFFCURVE",
"248 83 CURVE SMOOTH",
"221 83 OFFCURVE",
"189 70 OFFCURVE",
"189 53 CURVE SMOOTH",
"189 43 OFFCURVE",
"195 38 OFFCURVE",
"205 38 CURVE SMOOTH",
"219 38 OFFCURVE",
"225 52 OFFCURVE",
"248 52 CURVE SMOOTH",
"272 52 OFFCURVE",
"294 32 OFFCURVE",
"314 -8 CURVE",
"292 -12 OFFCURVE",
"270 -14 OFFCURVE",
"235 -14 CURVE SMOOTH"
);
}
);
userData = {
assembly = "NPUSHB[ ]	/* 35 values pushed */\0121 78 78 64 79 30 74 62 52 48 42 39 6 3 1 0 76 68 56 44 35 33 32 30 18 8 24 12 16 1 14 1 1 18 70 \012SROUND[ ]	/* SuperRound */\012MDAP[1]	/* MoveDirectAbsPt */\012SHZ[1]	/* ShiftZoneByLastPoint */\012RTG[ ]	/* RoundToGrid */\012SVTCA[0]	/* SetFreedomAndProjectionVectorToAxis */\012MIAP[1]	/* MoveIndirectAbsPt */\012MIAP[1]	/* MoveIndirectAbsPt */\012MDAP[1]	/* MoveDirectAbsPt */\012MDAP[1]	/* MoveDirectAbsPt */\012SVTCA[1]	/* SetFreedomAndProjectionVectorToAxis */\012MDAP[0]	/* MoveDirectAbsPt */\012MDAP[0]	/* MoveDirectAbsPt */\012MDAP[0]	/* MoveDirectAbsPt */\012MDAP[0]	/* MoveDirectAbsPt */\012MDAP[0]	/* MoveDirectAbsPt */\012MDAP[0]	/* MoveDirectAbsPt */\012MDAP[0]	/* MoveDirectAbsPt */\012MDAP[0]	/* MoveDirectAbsPt */\012MDAP[0]	/* MoveDirectAbsPt */\012MDAP[0]	/* MoveDirectAbsPt */\012SVTCA[0]	/* SetFreedomAndProjectionVectorToAxis */\012MDAP[0]	/* MoveDirectAbsPt */\012MDAP[0]	/* MoveDirectAbsPt */\012MDAP[0]	/* MoveDirectAbsPt */\012MDAP[0]	/* MoveDirectAbsPt */\012MDAP[0]	/* MoveDirectAbsPt */\012MDAP[0]	/* MoveDirectAbsPt */\012MDAP[0]	/* MoveDirectAbsPt */\012MDAP[0]	/* MoveDirectAbsPt */\012MDAP[0]	/* MoveDirectAbsPt */\012MDAP[0]	/* MoveDirectAbsPt */\012IUP[1]	/* InterpolateUntPts */\012IUP[0]	/* InterpolateUntPts */\012SVTCA[1]	/* SetFreedomAndProjectionVectorToAxis */\012MD[0]	/* MeasureDistance */\012ROUND[00]	/* Round */\012PUSHW[ ]	/* 2 values pushed */\01218 78 \012MD[0]	/* MeasureDistance */\012ROUND[00]	/* Round */\012SUB[ ]	/* Subtract */\012PUSHB[ ]	/* 1 value pushed */\01264 \012GT[ ]	/* GreaterThan */\012IF[ ]	/* If */\012SHPIX[ ]	/* ShiftZoneByPixel */\012SRP1[ ]	/* SetRefPoint1 */\012SHZ[1]	/* ShiftZoneByLastPoint */\012PUSHW[ ]	/* 2 values pushed */\01278 -64 \012SHPIX[ ]	/* ShiftZoneByPixel */\012EIF[ ]	/* EndIf */";
};
width = 730;
}
);
note = Q;
unicode = 0051;
},
{
glyphname = R;
lastChange = "2021-11-06 03:09:09 +0000";
layers = (
{
background = {
paths = (
{
closed = 1;
nodes = (
"31 -44 OFFCURVE",
"35 -41 OFFCURVE",
"38 -35 CURVE SMOOTH",
"57 6 OFFCURVE",
"70 37 OFFCURVE",
"79 59 CURVE SMOOTH",
"106 119 OFFCURVE",
"137 179 OFFCURVE",
"171 240 CURVE",
"226 260 OFFCURVE",
"277 270 OFFCURVE",
"325 270 CURVE SMOOTH",
"367 270 OFFCURVE",
"403 262 OFFCURVE",
"433 245 CURVE SMOOTH",
"469 225 OFFCURVE",
"487 196 OFFCURVE",
"487 157 CURVE SMOOTH",
"487 93 OFFCURVE",
"412 -22 OFFCURVE",
"412 -14 CURVE",
"412 -22 OFFCURVE",
"418 -26 OFFCURVE",
"430 -26 CURVE SMOOTH",
"438 -26 OFFCURVE",
"445 -23 OFFCURVE",
"450 -17 CURVE SMOOTH",
"469 5 OFFCURVE",
"487 32 OFFCURVE",
"503 65 CURVE SMOOTH",
"520 102 OFFCURVE",
"529 133 OFFCURVE",
"529 159 CURVE SMOOTH",
"529 199 OFFCURVE",
"512 231 OFFCURVE",
"478 255 CURVE SMOOTH",
"450 274 OFFCURVE",
"414 287 OFFCURVE",
"371 293 CURVE",
"455 313 OFFCURVE",
"527 339 OFFCURVE",
"586 371 CURVE SMOOTH",
"675 419 OFFCURVE",
"720 474 OFFCURVE",
"720 535 CURVE SMOOTH",
"720 539 LINE",
"705 615 OFFCURVE",
"623 653 OFFCURVE",
"473 653 CURVE SMOOTH",
"440 653 OFFCURVE",
"417 652 OFFCURVE",
"406 649 CURVE",
"379 629 OFFCURVE",
"334 569 OFFCURVE",
"269 469 CURVE SMOOTH",
"236 418 OFFCURVE",
"193 349 OFFCURVE",
"142 263 CURVE",
"130 258 OFFCURVE",
"113 252 OFFCURVE",
"113 241 CURVE SMOOTH",
"113 233 OFFCURVE",
"116 227 OFFCURVE",
"123 224 CURVE",
"108 197 OFFCURVE",
"86 154 OFFCURVE",
"57 95 CURVE SMOOTH",
"22 24 OFFCURVE",
"4 -17 OFFCURVE",
"4 -27 CURVE SMOOTH",
"4 -38 OFFCURVE",
"11 -44 OFFCURVE",
"24 -44 CURVE SMOOTH"
);
},
{
closed = 1;
nodes = (
"203 293 OFFCURVE",
"210 305 OFFCURVE",
"214 312 CURVE SMOOTH",
"285 434 OFFCURVE",
"356 535 OFFCURVE",
"425 616 CURVE",
"439 619 OFFCURVE",
"457 621 OFFCURVE",
"478 621 CURVE SMOOTH",
"521 621 OFFCURVE",
"561 615 OFFCURVE",
"598 604 CURVE SMOOTH",
"651 588 OFFCURVE",
"678 564 OFFCURVE",
"678 532 CURVE SMOOTH",
"678 456 OFFCURVE",
"583 388 OFFCURVE",
"394 327 CURVE SMOOTH",
"337 309 OFFCURVE",
"306 299 OFFCURVE",
"299 298 CURVE SMOOTH",
"290 297 OFFCURVE",
"282 296 OFFCURVE",
"276 296 CURVE",
"248 292 OFFCURVE",
"220 286 OFFCURVE",
"192 278 CURVE"
);
}
);
};
layerId = "5D3CF454-A725-4551-B6FA-6F6FD8C18533";
paths = (
{
closed = 1;
nodes = (
"31 -29 OFFCURVE",
"35 -26 OFFCURVE",
"38 -20 CURVE SMOOTH",
"57 21 OFFCURVE",
"70 52 OFFCURVE",
"79 74 CURVE SMOOTH",
"106 134 OFFCURVE",
"137 194 OFFCURVE",
"171 255 CURVE",
"226 275 OFFCURVE",
"277 285 OFFCURVE",
"325 285 CURVE SMOOTH",
"406 285 OFFCURVE",
"487 252 OFFCURVE",
"487 172 CURVE SMOOTH",
"487 122 OFFCURVE",
"448 51 OFFCURVE",
"431 26 CURVE SMOOTH",
"422 13 OFFCURVE",
"412 4 OFFCURVE",
"412 -1 CURVE SMOOTH",
"412 -7 OFFCURVE",
"418 -12 OFFCURVE",
"429 -12 CURVE SMOOTH",
"438 -12 OFFCURVE",
"445 -8 OFFCURVE",
"450 -2 CURVE SMOOTH",
"489 43 OFFCURVE",
"529 120 OFFCURVE",
"529 174 CURVE SMOOTH",
"529 254 OFFCURVE",
"458 296 OFFCURVE",
"371 308 CURVE",
"455 328 OFFCURVE",
"527 354 OFFCURVE",
"586 386 CURVE SMOOTH",
"675 434 OFFCURVE",
"720 489 OFFCURVE",
"720 547 CURVE SMOOTH",
"720 619 OFFCURVE",
"631 668 OFFCURVE",
"484 668 CURVE SMOOTH",
"440 668 OFFCURVE",
"417 667 OFFCURVE",
"406 664 CURVE",
"379 644 OFFCURVE",
"334 584 OFFCURVE",
"269 484 CURVE SMOOTH",
"236 433 OFFCURVE",
"193 364 OFFCURVE",
"142 278 CURVE",
"130 273 OFFCURVE",
"113 267 OFFCURVE",
"113 255 CURVE SMOOTH",
"113 248 OFFCURVE",
"116 242 OFFCURVE",
"123 239 CURVE",
"108 212 OFFCURVE",
"86 169 OFFCURVE",
"57 110 CURVE SMOOTH",
"22 39 OFFCURVE",
"4 -2 OFFCURVE",
"4 -12 CURVE SMOOTH",
"4 -23 OFFCURVE",
"11 -29 OFFCURVE",
"24 -29 CURVE SMOOTH"
);
},
{
closed = 1;
nodes = (
"203 308 OFFCURVE",
"210 320 OFFCURVE",
"234 362 CURVE SMOOTH",
"285 449 OFFCURVE",
"356 550 OFFCURVE",
"425 631 CURVE",
"439 634 OFFCURVE",
"457 636 OFFCURVE",
"478 636 CURVE SMOOTH",
"559 636 OFFCURVE",
"678 612 OFFCURVE",
"678 547 CURVE SMOOTH",
"678 498 OFFCURVE",
"638 452 OFFCURVE",
"558 409 CURVE SMOOTH",
"515 386 OFFCURVE",
"460 363 OFFCURVE",
"394 342 CURVE SMOOTH",
"337 324 OFFCURVE",
"306 314 OFFCURVE",
"299 313 CURVE",
"262 309 OFFCURVE",
"237 306 OFFCURVE",
"192 293 CURVE"
);
}
);
userData = {
assembly = "NPUSHB[ ]	/* 27 values pushed */\0121 70 70 64 71 31 56 47 12 0 66 52 49 41 37 33 31 20 18 8 0 29 64 1 1 66 70 \012SROUND[ ]	/* SuperRound */\012MDAP[1]	/* MoveDirectAbsPt */\012SHZ[1]	/* ShiftZoneByLastPoint */\012RTG[ ]	/* RoundToGrid */\012SVTCA[0]	/* SetFreedomAndProjectionVectorToAxis */\012MIAP[1]	/* MoveIndirectAbsPt */\012MDAP[1]	/* MoveDirectAbsPt */\012SVTCA[1]	/* SetFreedomAndProjectionVectorToAxis */\012MDAP[0]	/* MoveDirectAbsPt */\012MDAP[0]	/* MoveDirectAbsPt */\012MDAP[0]	/* MoveDirectAbsPt */\012MDAP[0]	/* MoveDirectAbsPt */\012MDAP[0]	/* MoveDirectAbsPt */\012MDAP[0]	/* MoveDirectAbsPt */\012MDAP[0]	/* MoveDirectAbsPt */\012MDAP[0]	/* MoveDirectAbsPt */\012MDAP[0]	/* MoveDirectAbsPt */\012MDAP[0]	/* MoveDirectAbsPt */\012MDAP[0]	/* MoveDirectAbsPt */\012SVTCA[0]	/* SetFreedomAndProjectionVectorToAxis */\012MDAP[0]	/* MoveDirectAbsPt */\012MDAP[0]	/* MoveDirectAbsPt */\012MDAP[0]	/* MoveDirectAbsPt */\012MDAP[0]	/* MoveDirectAbsPt */\012IUP[1]	/* InterpolateUntPts */\012IUP[0]	/* InterpolateUntPts */\012SVTCA[1]	/* SetFreedomAndProjectionVectorToAxis */\012MD[0]	/* MeasureDistance */\012ROUND[00]	/* Round */\012PUSHW[ ]	/* 2 values pushed */\01266 70 \012MD[0]	/* MeasureDistance */\012ROUND[00]	/* Round */\012SUB[ ]	/* Subtract */\012PUSHB[ ]	/* 1 value pushed */\01264 \012GT[ ]	/* GreaterThan */\012IF[ ]	/* If */\012SHPIX[ ]	/* ShiftZoneByPixel */\012SRP1[ ]	/* SetRefPoint1 */\012SHZ[1]	/* ShiftZoneByLastPoint */\012PUSHW[ ]	/* 2 values pushed */\01270 -64 \012SHPIX[ ]	/* ShiftZoneByPixel */\012EIF[ ]	/* EndIf */";
};
width = 601;
}
);
note = R;
unicode = 0052;
},
{
glyphname = S;
lastChange = "2021-11-06 03:09:09 +0000";
layers = (
{
background = {
paths = (
{
closed = 1;
nodes = (
"349 -58 OFFCURVE",
"441 -26 OFFCURVE",
"509 53 CURVE SMOOTH",
"546 96 OFFCURVE",
"565 140 OFFCURVE",
"565 184 CURVE SMOOTH",
"565 264 OFFCURVE",
"504 323 OFFCURVE",
"382 362 CURVE SMOOTH",
"311 384 OFFCURVE",
"276 413 OFFCURVE",
"276 450 CURVE SMOOTH",
"276 464 OFFCURVE",
"282 479 OFFCURVE",
"295 494 CURVE SMOOTH",
"326 533 OFFCURVE",
"373 563 OFFCURVE",
"435 585 CURVE SMOOTH",
"489 604 OFFCURVE",
"544 613 OFFCURVE",
"601 613 CURVE SMOOTH",
"634 613 OFFCURVE",
"651 596 OFFCURVE",
"651 562 CURVE SMOOTH",
"651 523 OFFCURVE",
"629 492 OFFCURVE",
"584 469 CURVE SMOOTH",
"578 466 OFFCURVE",
"575 461 OFFCURVE",
"575 456 CURVE SMOOTH",
"575 445 OFFCURVE",
"581 440 OFFCURVE",
"592 440 CURVE SMOOTH",
"598 440 LINE",
"647 461 OFFCURVE",
"684 509 OFFCURVE",
"684 561 CURVE SMOOTH",
"684 610 OFFCURVE",
"651 646 OFFCURVE",
"602 646 CURVE SMOOTH",
"535 646 OFFCURVE",
"474 636 OFFCURVE",
"417 617 CURVE SMOOTH",
"350 594 OFFCURVE",
"299 559 OFFCURVE",
"264 514 CURVE SMOOTH",
"245 489 OFFCURVE",
"236 466 OFFCURVE",
"236 445 CURVE SMOOTH",
"236 400 OFFCURVE",
"281 362 OFFCURVE",
"370 331 CURVE SMOOTH",
"419 314 OFFCURVE",
"455 298 OFFCURVE",
"477 281 CURVE SMOOTH",
"512 255 OFFCURVE",
"530 222 OFFCURVE",
"530 181 CURVE SMOOTH",
"530 142 OFFCURVE",
"514 105 OFFCURVE",
"482 70 CURVE SMOOTH",
"453 39 OFFCURVE",
"419 15 OFFCURVE",
"380 0 CURVE SMOOTH",
"337 -17 OFFCURVE",
"291 -25 OFFCURVE",
"243 -25 CURVE SMOOTH",
"204 -25 OFFCURVE",
"169 -19 OFFCURVE",
"138 -7 CURVE SMOOTH",
"110 4 OFFCURVE",
"87 20 OFFCURVE",
"68 41 CURVE SMOOTH",
"47 65 OFFCURVE",
"36 91 OFFCURVE",
"36 118 CURVE SMOOTH",
"36 124 OFFCURVE",
"37 132 OFFCURVE",
"40 141 CURVE SMOOTH",
"43 150 OFFCURVE",
"44 156 OFFCURVE",
"44 160 CURVE SMOOTH",
"44 171 OFFCURVE",
"39 177 OFFCURVE",
"29 177 CURVE SMOOTH",
"22 177 OFFCURVE",
"16 168 OFFCURVE",
"11 151 CURVE SMOOTH",
"7 138 OFFCURVE",
"5 126 OFFCURVE",
"5 115 CURVE SMOOTH",
"5 82 OFFCURVE",
"18 51 OFFCURVE",
"44 21 CURVE SMOOTH",
"67 -6 OFFCURVE",
"95 -26 OFFCURVE",
"128 -37 CURVE SMOOTH",
"167 -51 OFFCURVE",
"209 -58 OFFCURVE",
"252 -58 CURVE SMOOTH"
);
}
);
};
layerId = "5D3CF454-A725-4551-B6FA-6F6FD8C18533";
paths = (
{
closed = 1;
nodes = (
"323 -43 OFFCURVE",
"391 -26 OFFCURVE",
"449 14 CURVE SMOOTH",
"509 55 OFFCURVE",
"565 126 OFFCURVE",
"565 199 CURVE SMOOTH",
"565 279 OFFCURVE",
"504 338 OFFCURVE",
"382 377 CURVE SMOOTH",
"311 399 OFFCURVE",
"276 428 OFFCURVE",
"276 465 CURVE SMOOTH",
"276 516 OFFCURVE",
"362 574 OFFCURVE",
"435 600 CURVE SMOOTH",
"489 619 OFFCURVE",
"544 628 OFFCURVE",
"587 628 CURVE SMOOTH",
"634 628 OFFCURVE",
"651 611 OFFCURVE",
"651 577 CURVE SMOOTH",
"651 538 OFFCURVE",
"629 507 OFFCURVE",
"584 484 CURVE SMOOTH",
"578 481 OFFCURVE",
"575 476 OFFCURVE",
"575 471 CURVE SMOOTH",
"575 462 OFFCURVE",
"581 455 OFFCURVE",
"592 455 CURVE SMOOTH",
"603 455 OFFCURVE",
"615 461 OFFCURVE",
"634 477 CURVE SMOOTH",
"664 502 OFFCURVE",
"684 538 OFFCURVE",
"684 576 CURVE SMOOTH",
"684 624 OFFCURVE",
"657 661 OFFCURVE",
"587 661 CURVE SMOOTH",
"535 661 OFFCURVE",
"474 652 OFFCURVE",
"404 626 CURVE SMOOTH",
"332 600 OFFCURVE",
"236 531 OFFCURVE",
"236 460 CURVE SMOOTH",
"236 415 OFFCURVE",
"281 377 OFFCURVE",
"370 346 CURVE SMOOTH",
"464 313 OFFCURVE",
"530 277 OFFCURVE",
"530 196 CURVE SMOOTH",
"530 136 OFFCURVE",
"489 81 OFFCURVE",
"435 44 CURVE SMOOTH",
"382 8 OFFCURVE",
"316 -10 OFFCURVE",
"243 -10 CURVE SMOOTH",
"138 -10 OFFCURVE",
"36 44 OFFCURVE",
"36 133 CURVE SMOOTH",
"36 139 OFFCURVE",
"37 147 OFFCURVE",
"40 156 CURVE SMOOTH",
"43 165 OFFCURVE",
"44 171 OFFCURVE",
"44 175 CURVE SMOOTH",
"44 186 OFFCURVE",
"39 192 OFFCURVE",
"29 192 CURVE SMOOTH",
"22 192 OFFCURVE",
"16 183 OFFCURVE",
"11 166 CURVE SMOOTH",
"7 153 OFFCURVE",
"5 141 OFFCURVE",
"5 130 CURVE SMOOTH",
"5 23 OFFCURVE",
"124 -43 OFFCURVE",
"252 -43 CURVE SMOOTH"
);
}
);
userData = {
assembly = "NPUSHB[ ]	/* 27 values pushed */\0121 69 69 64 70 47 59 51 50 26 15 65 57 53 47 38 32 20 17 11 0 44 5 1 1 11 70 \012SROUND[ ]	/* SuperRound */\012MDAP[1]	/* MoveDirectAbsPt */\012SHZ[1]	/* ShiftZoneByLastPoint */\012RTG[ ]	/* RoundToGrid */\012SVTCA[0]	/* SetFreedomAndProjectionVectorToAxis */\012MIAP[1]	/* MoveIndirectAbsPt */\012MDAP[1]	/* MoveDirectAbsPt */\012SVTCA[1]	/* SetFreedomAndProjectionVectorToAxis */\012MDAP[0]	/* MoveDirectAbsPt */\012MDAP[0]	/* MoveDirectAbsPt */\012MDAP[0]	/* MoveDirectAbsPt */\012MDAP[0]	/* MoveDirectAbsPt */\012MDAP[0]	/* MoveDirectAbsPt */\012MDAP[0]	/* MoveDirectAbsPt */\012MDAP[0]	/* MoveDirectAbsPt */\012MDAP[0]	/* MoveDirectAbsPt */\012MDAP[0]	/* MoveDirectAbsPt */\012MDAP[0]	/* MoveDirectAbsPt */\012SVTCA[0]	/* SetFreedomAndProjectionVectorToAxis */\012MDAP[0]	/* MoveDirectAbsPt */\012MDAP[0]	/* MoveDirectAbsPt */\012MDAP[0]	/* MoveDirectAbsPt */\012MDAP[0]	/* MoveDirectAbsPt */\012MDAP[0]	/* MoveDirectAbsPt */\012IUP[1]	/* InterpolateUntPts */\012IUP[0]	/* InterpolateUntPts */\012SVTCA[1]	/* SetFreedomAndProjectionVectorToAxis */\012MD[0]	/* MeasureDistance */\012ROUND[00]	/* Round */\012PUSHW[ ]	/* 2 values pushed */\01211 69 \012MD[0]	/* MeasureDistance */\012ROUND[00]	/* Round */\012SUB[ ]	/* Subtract */\012PUSHB[ ]	/* 1 value pushed */\01264 \012GT[ ]	/* GreaterThan */\012IF[ ]	/* If */\012SHPIX[ ]	/* ShiftZoneByPixel */\012SRP1[ ]	/* SetRefPoint1 */\012SHZ[1]	/* ShiftZoneByLastPoint */\012PUSHW[ ]	/* 2 values pushed */\01269 -64 \012SHPIX[ ]	/* ShiftZoneByPixel */\012EIF[ ]	/* EndIf */";
};
width = 593;
}
);
note = S;
unicode = 0053;
},
{
glyphname = Germandbls;
lastChange = "2021-11-06 03:09:09 +0000";
layers = (
{
background = {
paths = (
{
closed = 1;
nodes = (
"172 -218 OFFCURVE",
"176 430 OFFCURVE",
"296 567 CURVE SMOOTH",
"326 601 OFFCURVE",
"407 623 OFFCURVE",
"475 623 CURVE SMOOTH",
"524 623 OFFCURVE",
"567 611 OFFCURVE",
"577 583 CURVE SMOOTH",
"578 580 OFFCURVE",
"579 576 OFFCURVE",
"579 572 CURVE SMOOTH",
"579 511 OFFCURVE",
"423 395 OFFCURVE",
"333 359 CURVE",
"343 337 LINE",
"485 402 OFFCURVE",
"623 509 OFFCURVE",
"623 574 CURVE SMOOTH",
"623 578 OFFCURVE",
"622 583 OFFCURVE",
"621 587 CURVE SMOOTH",
"604 635 OFFCURVE",
"539 654 OFFCURVE",
"469 654 CURVE SMOOTH",
"395 654 OFFCURVE",
"317 634 OFFCURVE",
"284 607 CURVE SMOOTH",
"206 543 OFFCURVE",
"167 331 OFFCURVE",
"97 8 CURVE SMOOTH",
"68 -128 OFFCURVE",
"32 -254 OFFCURVE",
"-9 -293 CURVE SMOOTH",
"-22 -304 OFFCURVE",
"-34 -309 OFFCURVE",
"-45 -309 CURVE SMOOTH",
"-65 -309 OFFCURVE",
"-79 -292 OFFCURVE",
"-79 -268 CURVE SMOOTH",
"-79 -252 OFFCURVE",
"-72 -232 OFFCURVE",
"-56 -212 CURVE SMOOTH",
"-52 -207 OFFCURVE",
"-50 -201 OFFCURVE",
"-50 -197 CURVE SMOOTH",
"-50 -194 OFFCURVE",
"-52 -191 OFFCURVE",
"-54 -191 CURVE SMOOTH",
"-56 -191 OFFCURVE",
"-57 -192 OFFCURVE",
"-59 -194 CURVE SMOOTH",
"-92 -233 OFFCURVE",
"-105 -263 OFFCURVE",
"-105 -285 CURVE SMOOTH",
"-105 -320 OFFCURVE",
"-74 -336 OFFCURVE",
"-44 -336 CURVE SMOOTH",
"-32 -336 OFFCURVE",
"-19 -333 OFFCURVE",
"-9 -327 CURVE SMOOTH"
);
},
{
closed = 1;
nodes = (
"258 -47 OFFCURVE",
"349 -34 OFFCURVE",
"437 -7 CURVE SMOOTH",
"559 30 OFFCURVE",
"634 88 OFFCURVE",
"662 167 CURVE SMOOTH",
"669 186 OFFCURVE",
"672 203 OFFCURVE",
"672 220 CURVE SMOOTH",
"672 336 OFFCURVE",
"534 367 OFFCURVE",
"418 367 CURVE SMOOTH",
"389 367 OFFCURVE",
"361 365 OFFCURVE",
"337 362 CURVE SMOOTH",
"326 361 OFFCURVE",
"321 358 OFFCURVE",
"321 350 CURVE SMOOTH",
"321 337 OFFCURVE",
"326 331 OFFCURVE",
"336 331 CURVE SMOOTH",
"337 331 OFFCURVE",
"347 333 OFFCURVE",
"366 338 CURVE",
"382 340 OFFCURVE",
"399 341 OFFCURVE",
"416 341 CURVE SMOOTH",
"467 341 OFFCURVE",
"513 333 OFFCURVE",
"556 317 CURVE SMOOTH",
"614 295 OFFCURVE",
"643 263 OFFCURVE",
"643 221 CURVE SMOOTH",
"643 208 OFFCURVE",
"640 194 OFFCURVE",
"634 179 CURVE SMOOTH",
"605 107 OFFCURVE",
"534 55 OFFCURVE",
"420 22 CURVE SMOOTH",
"338 -2 OFFCURVE",
"255 -14 OFFCURVE",
"210 -14 CURVE SMOOTH",
"202 -14 OFFCURVE",
"193 -27 OFFCURVE",
"193 -37 CURVE SMOOTH",
"193 -43 OFFCURVE",
"196 -47 OFFCURVE",
"203 -47 CURVE SMOOTH"
);
}
);
};
layerId = "5D3CF454-A725-4551-B6FA-6F6FD8C18533";
paths = (
{
closed = 1;
nodes = (
"172 -203 OFFCURVE",
"176 445 OFFCURVE",
"296 582 CURVE SMOOTH",
"326 616 OFFCURVE",
"407 638 OFFCURVE",
"475 638 CURVE SMOOTH",
"524 638 OFFCURVE",
"567 626 OFFCURVE",
"577 598 CURVE SMOOTH",
"578 595 OFFCURVE",
"579 591 OFFCURVE",
"579 587 CURVE SMOOTH",
"579 526 OFFCURVE",
"423 410 OFFCURVE",
"333 374 CURVE",
"343 352 LINE",
"485 417 OFFCURVE",
"623 524 OFFCURVE",
"623 589 CURVE SMOOTH",
"623 593 OFFCURVE",
"622 598 OFFCURVE",
"621 602 CURVE SMOOTH",
"604 650 OFFCURVE",
"539 669 OFFCURVE",
"469 669 CURVE SMOOTH",
"395 669 OFFCURVE",
"317 649 OFFCURVE",
"284 622 CURVE SMOOTH",
"206 558 OFFCURVE",
"167 346 OFFCURVE",
"97 23 CURVE SMOOTH",
"68 -113 OFFCURVE",
"32 -239 OFFCURVE",
"-9 -278 CURVE SMOOTH",
"-22 -289 OFFCURVE",
"-34 -294 OFFCURVE",
"-45 -294 CURVE SMOOTH",
"-65 -294 OFFCURVE",
"-79 -277 OFFCURVE",
"-79 -253 CURVE SMOOTH",
"-79 -237 OFFCURVE",
"-72 -217 OFFCURVE",
"-56 -197 CURVE SMOOTH",
"-52 -192 OFFCURVE",
"-50 -186 OFFCURVE",
"-50 -182 CURVE SMOOTH",
"-50 -179 OFFCURVE",
"-52 -176 OFFCURVE",
"-54 -176 CURVE SMOOTH",
"-56 -176 OFFCURVE",
"-57 -177 OFFCURVE",
"-59 -179 CURVE SMOOTH",
"-92 -218 OFFCURVE",
"-105 -248 OFFCURVE",
"-105 -270 CURVE SMOOTH",
"-105 -305 OFFCURVE",
"-74 -321 OFFCURVE",
"-44 -321 CURVE SMOOTH",
"-32 -321 OFFCURVE",
"-19 -318 OFFCURVE",
"-9 -312 CURVE SMOOTH"
);
},
{
closed = 1;
nodes = (
"258 -32 OFFCURVE",
"349 -19 OFFCURVE",
"437 8 CURVE SMOOTH",
"559 45 OFFCURVE",
"634 103 OFFCURVE",
"662 182 CURVE SMOOTH",
"669 201 OFFCURVE",
"672 218 OFFCURVE",
"672 235 CURVE SMOOTH",
"672 351 OFFCURVE",
"534 382 OFFCURVE",
"418 382 CURVE SMOOTH",
"389 382 OFFCURVE",
"361 380 OFFCURVE",
"337 377 CURVE SMOOTH",
"326 376 OFFCURVE",
"321 373 OFFCURVE",
"321 365 CURVE SMOOTH",
"321 352 OFFCURVE",
"326 346 OFFCURVE",
"336 346 CURVE SMOOTH",
"337 346 OFFCURVE",
"347 348 OFFCURVE",
"366 353 CURVE",
"382 355 OFFCURVE",
"399 356 OFFCURVE",
"416 356 CURVE SMOOTH",
"467 356 OFFCURVE",
"513 348 OFFCURVE",
"556 332 CURVE SMOOTH",
"614 310 OFFCURVE",
"643 278 OFFCURVE",
"643 236 CURVE SMOOTH",
"643 223 OFFCURVE",
"640 209 OFFCURVE",
"634 194 CURVE SMOOTH",
"605 122 OFFCURVE",
"534 70 OFFCURVE",
"420 37 CURVE SMOOTH",
"338 13 OFFCURVE",
"255 1 OFFCURVE",
"210 1 CURVE SMOOTH",
"202 1 OFFCURVE",
"193 -12 OFFCURVE",
"193 -22 CURVE SMOOTH",
"193 -28 OFFCURVE",
"196 -32 OFFCURVE",
"203 -32 CURVE SMOOTH"
);
}
);
width = 746;
}
);
unicode = 1E9E;
},
{
glyphname = Schwa;
lastChange = "2021-11-06 03:09:09 +0000";
layers = (
{
background = {
paths = (
{
closed = 1;
nodes = (
"487 -66 OFFCURVE",
"777 123 OFFCURVE",
"777 388 CURVE SMOOTH",
"777 559 OFFCURVE",
"660 657 OFFCURVE",
"477 657 CURVE SMOOTH",
"369 657 OFFCURVE",
"229 623 OFFCURVE",
"138 570 CURVE SMOOTH",
"115 557 OFFCURVE",
"100 545 OFFCURVE",
"91 535 CURVE SMOOTH",
"78 520 OFFCURVE",
"72 507 OFFCURVE",
"72 496 CURVE SMOOTH",
"72 492 OFFCURVE",
"74 490 OFFCURVE",
"77 490 CURVE SMOOTH",
"83 490 OFFCURVE",
"92 500 OFFCURVE",
"111 514 CURVE SMOOTH",
"190 570 OFFCURVE",
"356 626 OFFCURVE",
"466 626 CURVE SMOOTH",
"620 626 OFFCURVE",
"740 549 OFFCURVE",
"740 395 CURVE SMOOTH",
"740 154 OFFCURVE",
"477 -33 OFFCURVE",
"231 -33 CURVE SMOOTH",
"129 -33 OFFCURVE",
"37 17 OFFCURVE",
"37 96 CURVE SMOOTH",
"37 257 OFFCURVE",
"219 321 OFFCURVE",
"432 321 CURVE SMOOTH",
"533 321 OFFCURVE",
"640 307 OFFCURVE",
"739 282 CURVE SMOOTH",
"745 281 OFFCURVE",
"747 286 OFFCURVE",
"747 292 CURVE SMOOTH",
"747 299 OFFCURVE",
"744 307 OFFCURVE",
"738 310 CURVE SMOOTH",
"684 332 OFFCURVE",
"570 351 OFFCURVE",
"448 351 CURVE SMOOTH",
"237 351 OFFCURVE",
"0 294 OFFCURVE",
"0 98 CURVE SMOOTH",
"0 3 OFFCURVE",
"106 -66 OFFCURVE",
"217 -66 CURVE SMOOTH"
);
}
);
};
layerId = "5D3CF454-A725-4551-B6FA-6F6FD8C18533";
paths = (
{
closed = 1;
nodes = (
"487 -51 OFFCURVE",
"777 138 OFFCURVE",
"777 403 CURVE SMOOTH",
"777 574 OFFCURVE",
"660 672 OFFCURVE",
"477 672 CURVE SMOOTH",
"369 672 OFFCURVE",
"229 638 OFFCURVE",
"138 585 CURVE SMOOTH",
"115 572 OFFCURVE",
"100 560 OFFCURVE",
"91 550 CURVE SMOOTH",
"78 535 OFFCURVE",
"72 522 OFFCURVE",
"72 511 CURVE SMOOTH",
"72 507 OFFCURVE",
"74 505 OFFCURVE",
"77 505 CURVE SMOOTH",
"83 505 OFFCURVE",
"92 515 OFFCURVE",
"111 529 CURVE SMOOTH",
"190 585 OFFCURVE",
"356 641 OFFCURVE",
"466 641 CURVE SMOOTH",
"620 641 OFFCURVE",
"740 564 OFFCURVE",
"740 410 CURVE SMOOTH",
"740 169 OFFCURVE",
"477 -18 OFFCURVE",
"231 -18 CURVE SMOOTH",
"129 -18 OFFCURVE",
"37 32 OFFCURVE",
"37 111 CURVE SMOOTH",
"37 272 OFFCURVE",
"219 336 OFFCURVE",
"432 336 CURVE SMOOTH",
"533 336 OFFCURVE",
"640 322 OFFCURVE",
"739 297 CURVE SMOOTH",
"745 296 OFFCURVE",
"747 301 OFFCURVE",
"747 307 CURVE SMOOTH",
"747 314 OFFCURVE",
"744 322 OFFCURVE",
"738 325 CURVE SMOOTH",
"684 347 OFFCURVE",
"570 366 OFFCURVE",
"448 366 CURVE SMOOTH",
"237 366 OFFCURVE",
"0 309 OFFCURVE",
"0 113 CURVE SMOOTH",
"0 18 OFFCURVE",
"106 -51 OFFCURVE",
"217 -51 CURVE SMOOTH"
);
}
);
width = 817;
}
);
unicode = 018F;
},
{
glyphname = T;
lastChange = "2021-11-12 17:01:52 +0000";
layers = (
{
background = {
paths = (
{
closed = 1;
nodes = (
"140 -75 OFFCURVE",
"146 -69 OFFCURVE",
"146 -56 CURVE SMOOTH",
"146 -51 LINE SMOOTH",
"146 -16 OFFCURVE",
"202 103 OFFCURVE",
"314 307 CURVE SMOOTH",
"415 487 LINE SMOOTH",
"448 546 OFFCURVE",
"468 585 OFFCURVE",
"476 606 CURVE",
"481 606 OFFCURVE",
"493 605 OFFCURVE",
"511 604 CURVE SMOOTH",
"525 603 OFFCURVE",
"536 602 OFFCURVE",
"545 602 CURVE",
"546 604 LINE",
"569 604 OFFCURVE",
"603 602 OFFCURVE",
"650 598 CURVE SMOOTH",
"696 594 OFFCURVE",
"731 592 OFFCURVE",
"754 592 CURVE SMOOTH",
"765 592 OFFCURVE",
"770 597 OFFCURVE",
"770 608 CURVE SMOOTH",
"770 619 OFFCURVE",
"765 624 OFFCURVE",
"754 624 CURVE SMOOTH",
"727 624 OFFCURVE",
"693 626 OFFCURVE",
"650 629 CURVE SMOOTH",
"595 633 OFFCURVE",
"561 635 OFFCURVE",
"546 636 CURVE SMOOTH",
"501 638 OFFCURVE",
"456 639 OFFCURVE",
"413 639 CURVE SMOOTH",
"261 639 OFFCURVE",
"157 618 OFFCURVE",
"102 577 CURVE SMOOTH",
"65 550 OFFCURVE",
"47 520 OFFCURVE",
"47 487 CURVE SMOOTH",
"47 475 OFFCURVE",
"54 469 OFFCURVE",
"67 469 CURVE SMOOTH",
"74 469 OFFCURVE",
"79 474 OFFCURVE",
"80 484 CURVE SMOOTH",
"87 512 OFFCURVE",
"100 534 OFFCURVE",
"120 550 CURVE SMOOTH",
"167 588 OFFCURVE",
"269 607 OFFCURVE",
"424 607 CURVE SMOOTH",
"442 607 LINE",
"442 606 LINE",
"253 265 LINE SMOOTH",
"160 94 OFFCURVE",
"113 -12 OFFCURVE",
"113 -55 CURVE SMOOTH",
"113 -68 OFFCURVE",
"118 -75 OFFCURVE",
"128 -75 CURVE SMOOTH"
);
}
);
};
layerId = "5D3CF454-A725-4551-B6FA-6F6FD8C18533";
paths = (
{
closed = 1;
nodes = (
"140 -60 OFFCURVE",
"146 -54 OFFCURVE",
"146 -41 CURVE SMOOTH",
"146 -36 LINE SMOOTH",
"146 -1 OFFCURVE",
"200 119 OFFCURVE",
"314 322 CURVE SMOOTH",
"415 502 LINE SMOOTH",
"448 561 OFFCURVE",
"468 600 OFFCURVE",
"476 621 CURVE",
"481 621 OFFCURVE",
"493 620 OFFCURVE",
"521 620 CURVE SMOOTH",
"551 620 OFFCURVE",
"583 619 OFFCURVE",
"650 613 CURVE SMOOTH",
"696 609 OFFCURVE",
"731 607 OFFCURVE",
"754 607 CURVE SMOOTH",
"765 607 OFFCURVE",
"770 612 OFFCURVE",
"770 623 CURVE SMOOTH",
"770 634 OFFCURVE",
"765 639 OFFCURVE",
"754 639 CURVE SMOOTH",
"727 639 OFFCURVE",
"693 641 OFFCURVE",
"650 644 CURVE SMOOTH",
"595 648 OFFCURVE",
"561 650 OFFCURVE",
"546 651 CURVE SMOOTH",
"501 653 OFFCURVE",
"456 654 OFFCURVE",
"413 654 CURVE SMOOTH",
"261 654 OFFCURVE",
"157 633 OFFCURVE",
"102 592 CURVE SMOOTH",
"65 565 OFFCURVE",
"47 535 OFFCURVE",
"47 502 CURVE SMOOTH",
"47 490 OFFCURVE",
"54 484 OFFCURVE",
"67 484 CURVE SMOOTH",
"74 484 OFFCURVE",
"79 489 OFFCURVE",
"80 499 CURVE SMOOTH",
"87 527 OFFCURVE",
"100 549 OFFCURVE",
"120 565 CURVE SMOOTH",
"167 603 OFFCURVE",
"269 622 OFFCURVE",
"424 622 CURVE SMOOTH",
"443 622 LINE",
"253 280 LINE SMOOTH",
"159 110 OFFCURVE",
"113 3 OFFCURVE",
"113 -40 CURVE SMOOTH",
"113 -53 OFFCURVE",
"118 -60 OFFCURVE",
"130 -60 CURVE SMOOTH"
);
}
);
userData = {
assembly = "NPUSHB[ ]	/* 26 values pushed */\0121 47 47 64 48 22 32 28 27 24 8 2 1 43 39 38 22 10 1 0 14 41 1 1 10 70 \012SROUND[ ]	/* SuperRound */\012MDAP[1]	/* MoveDirectAbsPt */\012SHZ[1]	/* ShiftZoneByLastPoint */\012RTG[ ]	/* RoundToGrid */\012SVTCA[0]	/* SetFreedomAndProjectionVectorToAxis */\012MIAP[1]	/* MoveIndirectAbsPt */\012MDAP[1]	/* MoveDirectAbsPt */\012SVTCA[1]	/* SetFreedomAndProjectionVectorToAxis */\012MDAP[0]	/* MoveDirectAbsPt */\012MDAP[0]	/* MoveDirectAbsPt */\012MDAP[0]	/* MoveDirectAbsPt */\012MDAP[0]	/* MoveDirectAbsPt */\012MDAP[0]	/* MoveDirectAbsPt */\012MDAP[0]	/* MoveDirectAbsPt */\012MDAP[0]	/* MoveDirectAbsPt */\012SVTCA[0]	/* SetFreedomAndProjectionVectorToAxis */\012MDAP[0]	/* MoveDirectAbsPt */\012MDAP[0]	/* MoveDirectAbsPt */\012MDAP[0]	/* MoveDirectAbsPt */\012MDAP[0]	/* MoveDirectAbsPt */\012MDAP[0]	/* MoveDirectAbsPt */\012MDAP[0]	/* MoveDirectAbsPt */\012MDAP[0]	/* MoveDirectAbsPt */\012IUP[1]	/* InterpolateUntPts */\012IUP[0]	/* InterpolateUntPts */\012SVTCA[1]	/* SetFreedomAndProjectionVectorToAxis */\012MD[0]	/* MeasureDistance */\012ROUND[00]	/* Round */\012PUSHW[ ]	/* 2 values pushed */\01210 47 \012MD[0]	/* MeasureDistance */\012ROUND[00]	/* Round */\012SUB[ ]	/* Subtract */\012PUSHB[ ]	/* 1 value pushed */\01264 \012GT[ ]	/* GreaterThan */\012IF[ ]	/* If */\012SHPIX[ ]	/* ShiftZoneByPixel */\012SRP1[ ]	/* SetRefPoint1 */\012SHZ[1]	/* ShiftZoneByLastPoint */\012PUSHW[ ]	/* 2 values pushed */\01247 -64 \012SHPIX[ ]	/* ShiftZoneByPixel */\012EIF[ ]	/* EndIf */";
};
width = 436;
}
);
note = T;
unicode = 0054;
},
{
glyphname = U;
lastChange = "2021-11-06 03:09:09 +0000";
layers = (
{
background = {
paths = (
{
closed = 1;
nodes = (
"579 -114 OFFCURVE",
"586 -107 OFFCURVE",
"586 -92 CURVE SMOOTH",
"586 -86 OFFCURVE",
"583 -82 OFFCURVE",
"577 -80 CURVE",
"576 -81 OFFCURVE",
"573 -82 OFFCURVE",
"570 -83 CURVE",
"559 -83 OFFCURVE",
"553 -56 OFFCURVE",
"553 -1 CURVE SMOOTH",
"553 62 OFFCURVE",
"563 128 OFFCURVE",
"584 196 CURVE SMOOTH",
"603 259 OFFCURVE",
"616 295 OFFCURVE",
"622 306 CURVE",
"649 343 LINE SMOOTH",
"667 367 OFFCURVE",
"685 393 OFFCURVE",
"703 420 CURVE",
"703 421 LINE",
"748 496 OFFCURVE",
"770 547 OFFCURVE",
"770 572 CURVE SMOOTH",
"770 581 OFFCURVE",
"769 589 OFFCURVE",
"766 595 CURVE",
"766 594 LINE SMOOTH",
"766 601 OFFCURVE",
"762 604 OFFCURVE",
"755 604 CURVE SMOOTH",
"734 604 OFFCURVE",
"700 558 OFFCURVE",
"653 467 CURVE SMOOTH",
"642 446 OFFCURVE",
"628 413 OFFCURVE",
"610 369 CURVE SMOOTH",
"592 322 LINE",
"575 302 LINE SMOOTH",
"535 254 OFFCURVE",
"495 211 OFFCURVE",
"455 173 CURVE SMOOTH",
"398 118 OFFCURVE",
"356 80 OFFCURVE",
"331 60 CURVE SMOOTH",
"274 15 OFFCURVE",
"227 -10 OFFCURVE",
"188 -14 CURVE",
"186 -15 OFFCURVE",
"182 -15 OFFCURVE",
"177 -15 CURVE SMOOTH",
"123 -15 OFFCURVE",
"96 22 OFFCURVE",
"96 97 CURVE SMOOTH",
"96 144 OFFCURVE",
"107 199 OFFCURVE",
"128 261 CURVE SMOOTH",
"147 315 OFFCURVE",
"170 366 OFFCURVE",
"198 413 CURVE SMOOTH",
"241 486 OFFCURVE",
"281 534 OFFCURVE",
"316 558 CURVE SMOOTH",
"321 561 OFFCURVE",
"324 565 OFFCURVE",
"324 570 CURVE SMOOTH",
"324 583 OFFCURVE",
"316 589 OFFCURVE",
"299 589 CURVE SMOOTH",
"298 589 LINE",
"258 565 OFFCURVE",
"216 513 OFFCURVE",
"172 432 CURVE SMOOTH",
"99 298 OFFCURVE",
"63 183 OFFCURVE",
"63 88 CURVE SMOOTH",
"63 -2 OFFCURVE",
"100 -47 OFFCURVE",
"175 -47 CURVE SMOOTH",
"190 -47 LINE",
"190 -46 LINE",
"273 -39 OFFCURVE",
"397 55 OFFCURVE",
"563 238 CURVE",
"533 139 OFFCURVE",
"518 55 OFFCURVE",
"518 -12 CURVE SMOOTH",
"518 -80 OFFCURVE",
"533 -114 OFFCURVE",
"564 -114 CURVE SMOOTH"
);
}
);
};
layerId = "5D3CF454-A725-4551-B6FA-6F6FD8C18533";
paths = (
{
closed = 1;
nodes = (
"577 -99 OFFCURVE",
"586 -92 OFFCURVE",
"586 -78 CURVE SMOOTH",
"586 -71 OFFCURVE",
"582 -65 OFFCURVE",
"578 -65 CURVE SMOOTH",
"574 -65 OFFCURVE",
"574 -68 OFFCURVE",
"570 -68 CURVE SMOOTH",
"559 -68 OFFCURVE",
"553 -41 OFFCURVE",
"553 14 CURVE SMOOTH",
"553 77 OFFCURVE",
"563 143 OFFCURVE",
"584 211 CURVE SMOOTH",
"603 274 OFFCURVE",
"616 310 OFFCURVE",
"622 321 CURVE",
"658 370 LINE SMOOTH",
"692 417 OFFCURVE",
"770 537 OFFCURVE",
"770 587 CURVE SMOOTH",
"770 604 OFFCURVE",
"766 619 OFFCURVE",
"755 619 CURVE SMOOTH",
"734 619 OFFCURVE",
"700 573 OFFCURVE",
"653 482 CURVE SMOOTH",
"642 461 OFFCURVE",
"627 428 OFFCURVE",
"610 384 CURVE SMOOTH",
"592 337 LINE",
"528 261 OFFCURVE",
"492 222 OFFCURVE",
"420 153 CURVE SMOOTH",
"349 85 OFFCURVE",
"252 0 OFFCURVE",
"177 0 CURVE SMOOTH",
"123 0 OFFCURVE",
"96 37 OFFCURVE",
"96 112 CURVE SMOOTH",
"96 207 OFFCURVE",
"144 338 OFFCURVE",
"198 428 CURVE SMOOTH",
"241 501 OFFCURVE",
"281 549 OFFCURVE",
"316 573 CURVE SMOOTH",
"321 576 OFFCURVE",
"324 580 OFFCURVE",
"324 585 CURVE SMOOTH",
"324 598 OFFCURVE",
"315 604 OFFCURVE",
"303 604 CURVE SMOOTH",
"291 604 OFFCURVE",
"273 586 OFFCURVE",
"259 572 CURVE SMOOTH",
"231 544 OFFCURVE",
"202 502 OFFCURVE",
"172 447 CURVE SMOOTH",
"99 313 OFFCURVE",
"63 198 OFFCURVE",
"63 103 CURVE SMOOTH",
"63 13 OFFCURVE",
"100 -32 OFFCURVE",
"175 -32 CURVE SMOOTH",
"262 -32 OFFCURVE",
"385 57 OFFCURVE",
"563 253 CURVE",
"533 154 OFFCURVE",
"518 70 OFFCURVE",
"518 3 CURVE SMOOTH",
"518 -65 OFFCURVE",
"533 -99 OFFCURVE",
"564 -99 CURVE SMOOTH"
);
}
);
userData = {
assembly = "NPUSHB[ ]	/* 36 values pushed */\0121 67 67 64 68 42 65 57 55 40 39 21 9 8 65 63 59 53 45 44 42 40 39 19 11 4 1 0 37 61 2 1 1 1 4 70 \012SROUND[ ]	/* SuperRound */\012MDAP[1]	/* MoveDirectAbsPt */\012SHZ[1]	/* ShiftZoneByLastPoint */\012RTG[ ]	/* RoundToGrid */\012SVTCA[0]	/* SetFreedomAndProjectionVectorToAxis */\012MIAP[1]	/* MoveIndirectAbsPt */\012ALIGNRP[ ]	/* AlignRelativePt */\012MDAP[1]	/* MoveDirectAbsPt */\012MDAP[1]	/* MoveDirectAbsPt */\012SVTCA[1]	/* SetFreedomAndProjectionVectorToAxis */\012MDAP[0]	/* MoveDirectAbsPt */\012MDAP[0]	/* MoveDirectAbsPt */\012MDAP[0]	/* MoveDirectAbsPt */\012MDAP[0]	/* MoveDirectAbsPt */\012MDAP[0]	/* MoveDirectAbsPt */\012MDAP[0]	/* MoveDirectAbsPt */\012MDAP[0]	/* MoveDirectAbsPt */\012MDAP[0]	/* MoveDirectAbsPt */\012MDAP[0]	/* MoveDirectAbsPt */\012MDAP[0]	/* MoveDirectAbsPt */\012MDAP[0]	/* MoveDirectAbsPt */\012MDAP[0]	/* MoveDirectAbsPt */\012MDAP[0]	/* MoveDirectAbsPt */\012MDAP[0]	/* MoveDirectAbsPt */\012SVTCA[0]	/* SetFreedomAndProjectionVectorToAxis */\012MDAP[0]	/* MoveDirectAbsPt */\012MDAP[0]	/* MoveDirectAbsPt */\012MDAP[0]	/* MoveDirectAbsPt */\012MDAP[0]	/* MoveDirectAbsPt */\012MDAP[0]	/* MoveDirectAbsPt */\012MDAP[0]	/* MoveDirectAbsPt */\012MDAP[0]	/* MoveDirectAbsPt */\012MDAP[0]	/* MoveDirectAbsPt */\012IUP[1]	/* InterpolateUntPts */\012IUP[0]	/* InterpolateUntPts */\012SVTCA[1]	/* SetFreedomAndProjectionVectorToAxis */\012MD[0]	/* MeasureDistance */\012ROUND[00]	/* Round */\012PUSHW[ ]	/* 2 values pushed */\0124 67 \012MD[0]	/* MeasureDistance */\012ROUND[00]	/* Round */\012SUB[ ]	/* Subtract */\012PUSHB[ ]	/* 1 value pushed */\01264 \012GT[ ]	/* GreaterThan */\012IF[ ]	/* If */\012SHPIX[ ]	/* ShiftZoneByPixel */\012SRP1[ ]	/* SetRefPoint1 */\012SHZ[1]	/* ShiftZoneByLastPoint */\012PUSHW[ ]	/* 2 values pushed */\01267 -64 \012SHPIX[ ]	/* ShiftZoneByPixel */\012EIF[ ]	/* EndIf */";
};
width = 677;
}
);
note = U;
unicode = 0055;
},
{
glyphname = V;
lastChange = "2021-11-06 03:09:09 +0000";
layers = (
{
background = {
paths = (
{
closed = 1;
nodes = (
"154 -50 OFFCURVE",
"157 -49 OFFCURVE",
"158 -48 CURVE SMOOTH",
"176 -34 OFFCURVE",
"198 -11 OFFCURVE",
"224 21 CURVE SMOOTH",
"231 30 OFFCURVE",
"251 55 OFFCURVE",
"283 96 CURVE SMOOTH",
"384 226 OFFCURVE",
"446 306 OFFCURVE",
"471 336 CURVE SMOOTH",
"528 405 OFFCURVE",
"588 471 OFFCURVE",
"653 536 CURVE SMOOTH",
"754 637 OFFCURVE",
"823 688 OFFCURVE",
"858 688 CURVE",
"866 687 LINE",
"872 686 LINE SMOOTH",
"882 686 OFFCURVE",
"887 691 OFFCURVE",
"887 702 CURVE SMOOTH",
"887 710 OFFCURVE",
"883 716 OFFCURVE",
"876 719 CURVE",
"864 719 LINE SMOOTH",
"793 719 OFFCURVE",
"654 599 OFFCURVE",
"448 358 CURVE SMOOTH",
"371 263 OFFCURVE",
"313 192 OFFCURVE",
"276 143 CURVE SMOOTH",
"217 68 OFFCURVE",
"174 19 OFFCURVE",
"147 -2 CURVE",
"147 179 OFFCURVE",
"170 340 OFFCURVE",
"216 481 CURVE SMOOTH",
"233 529 OFFCURVE",
"246 565 OFFCURVE",
"255 589 CURVE",
"256 590 OFFCURVE",
"256 591 OFFCURVE",
"256 594 CURVE SMOOTH",
"256 607 OFFCURVE",
"250 613 OFFCURVE",
"237 613 CURVE SMOOTH",
"231 613 OFFCURVE",
"227 610 OFFCURVE",
"224 604 CURVE SMOOTH",
"205 554 LINE SMOOTH",
"178 477 OFFCURVE",
"155 389 OFFCURVE",
"138 289 CURVE SMOOTH",
"122 196 OFFCURVE",
"114 92 OFFCURVE",
"114 -22 CURVE SMOOTH",
"114 -34 OFFCURVE",
"138 -50 OFFCURVE",
"151 -50 CURVE SMOOTH"
);
}
);
};
layerId = "5D3CF454-A725-4551-B6FA-6F6FD8C18533";
paths = (
{
closed = 1;
nodes = (
"168 -35 OFFCURVE",
"218 28 OFFCURVE",
"283 111 CURVE SMOOTH",
"445 319 OFFCURVE",
"514 412 OFFCURVE",
"653 551 CURVE SMOOTH",
"754 652 OFFCURVE",
"823 703 OFFCURVE",
"858 703 CURVE",
"863 703 OFFCURVE",
"867 701 OFFCURVE",
"872 701 CURVE SMOOTH",
"882 701 OFFCURVE",
"887 706 OFFCURVE",
"887 717 CURVE SMOOTH",
"887 733 OFFCURVE",
"875 734 OFFCURVE",
"864 734 CURVE SMOOTH",
"818 734 OFFCURVE",
"742 683 OFFCURVE",
"637 579 CURVE SMOOTH",
"522 465 OFFCURVE",
"376 289 OFFCURVE",
"276 158 CURVE SMOOTH",
"218 82 OFFCURVE",
"174 34 OFFCURVE",
"147 13 CURVE",
"147 194 OFFCURVE",
"170 355 OFFCURVE",
"216 496 CURVE SMOOTH",
"240 570 OFFCURVE",
"256 603 OFFCURVE",
"256 612 CURVE SMOOTH",
"256 622 OFFCURVE",
"250 628 OFFCURVE",
"237 628 CURVE SMOOTH",
"231 628 OFFCURVE",
"226 625 OFFCURVE",
"223 617 CURVE SMOOTH",
"205 569 LINE SMOOTH",
"176 493 OFFCURVE",
"155 404 OFFCURVE",
"138 304 CURVE SMOOTH",
"122 211 OFFCURVE",
"114 107 OFFCURVE",
"114 -7 CURVE SMOOTH",
"114 -19 OFFCURVE",
"138 -35 OFFCURVE",
"151 -35 CURVE SMOOTH"
);
}
);
userData = {
assembly = "NPUSHB[ ]	/* 21 values pushed */\0121 46 46 64 47 29 34 31 19 11 29 19 13 3 27 25 0 1 1 3 70 \012SROUND[ ]	/* SuperRound */\012MDAP[1]	/* MoveDirectAbsPt */\012SHZ[1]	/* ShiftZoneByLastPoint */\012RTG[ ]	/* RoundToGrid */\012SVTCA[0]	/* SetFreedomAndProjectionVectorToAxis */\012MIAP[1]	/* MoveIndirectAbsPt */\012MDAP[1]	/* MoveDirectAbsPt */\012ALIGNRP[ ]	/* AlignRelativePt */\012SVTCA[1]	/* SetFreedomAndProjectionVectorToAxis */\012MDAP[0]	/* MoveDirectAbsPt */\012MDAP[0]	/* MoveDirectAbsPt */\012MDAP[0]	/* MoveDirectAbsPt */\012MDAP[0]	/* MoveDirectAbsPt */\012SVTCA[0]	/* SetFreedomAndProjectionVectorToAxis */\012MDAP[0]	/* MoveDirectAbsPt */\012MDAP[0]	/* MoveDirectAbsPt */\012MDAP[0]	/* MoveDirectAbsPt */\012MDAP[0]	/* MoveDirectAbsPt */\012IUP[1]	/* InterpolateUntPts */\012IUP[0]	/* InterpolateUntPts */\012SVTCA[1]	/* SetFreedomAndProjectionVectorToAxis */\012MD[0]	/* MeasureDistance */\012ROUND[00]	/* Round */\012PUSHW[ ]	/* 2 values pushed */\0123 46 \012MD[0]	/* MeasureDistance */\012ROUND[00]	/* Round */\012SUB[ ]	/* Subtract */\012PUSHB[ ]	/* 1 value pushed */\01264 \012GT[ ]	/* GreaterThan */\012IF[ ]	/* If */\012SHPIX[ ]	/* ShiftZoneByPixel */\012SRP1[ ]	/* SetRefPoint1 */\012SHZ[1]	/* ShiftZoneByLastPoint */\012PUSHW[ ]	/* 2 values pushed */\01246 -64 \012SHPIX[ ]	/* ShiftZoneByPixel */\012EIF[ ]	/* EndIf */";
};
width = 459;
}
);
note = V;
unicode = 0056;
},
{
glyphname = W;
lastChange = "2021-11-06 03:09:09 +0000";
layers = (
{
background = {
paths = (
{
closed = 1;
nodes = (
"67 -84 OFFCURVE",
"70 -83 OFFCURVE",
"72 -82 CURVE SMOOTH",
"90 -69 OFFCURVE",
"140 -11 OFFCURVE",
"221 92 CURVE SMOOTH",
"252 133 OFFCURVE",
"302 198 OFFCURVE",
"370 288 CURVE SMOOTH",
"455 400 OFFCURVE",
"521 481 OFFCURVE",
"570 530 CURVE",
"515 371 OFFCURVE",
"488 187 OFFCURVE",
"488 -22 CURVE SMOOTH",
"488 -34 OFFCURVE",
"511 -50 OFFCURVE",
"524 -50 CURVE SMOOTH",
"526 -50 OFFCURVE",
"528 -49 OFFCURVE",
"531 -48 CURVE",
"549 -34 OFFCURVE",
"571 -11 OFFCURVE",
"597 20 CURVE SMOOTH",
"656 96 LINE",
"844 336 LINE SMOOTH",
"901 405 OFFCURVE",
"961 471 OFFCURVE",
"1026 536 CURVE SMOOTH",
"1127 637 OFFCURVE",
"1196 688 OFFCURVE",
"1231 688 CURVE",
"1238 687 LINE",
"1244 686 LINE",
"1255 686 OFFCURVE",
"1260 691 OFFCURVE",
"1260 702 CURVE SMOOTH",
"1260 710 OFFCURVE",
"1256 716 OFFCURVE",
"1248 719 CURVE",
"1237 719 LINE SMOOTH",
"1188 719 OFFCURVE",
"1114 669 OFFCURVE",
"1013 569 CURVE SMOOTH",
"969 526 OFFCURVE",
"905 456 OFFCURVE",
"821 358 CURVE SMOOTH",
"744 263 OFFCURVE",
"686 192 OFFCURVE",
"649 143 CURVE SMOOTH",
"590 68 OFFCURVE",
"547 19 OFFCURVE",
"520 -2 CURVE",
"520 178 OFFCURVE",
"543 340 OFFCURVE",
"590 484 CURVE SMOOTH",
"607 531 OFFCURVE",
"619 566 OFFCURVE",
"628 589 CURVE SMOOTH",
"629 590 OFFCURVE",
"629 593 OFFCURVE",
"629 597 CURVE SMOOTH",
"629 612 OFFCURVE",
"623 619 OFFCURVE",
"611 619 CURVE SMOOTH",
"596 619 OFFCURVE",
"588 606 OFFCURVE",
"580 595 CURVE",
"569 584 OFFCURVE",
"561 577 OFFCURVE",
"555 572 CURVE",
"518 535 OFFCURVE",
"478 487 OFFCURVE",
"435 428 CURVE SMOOTH",
"327 275 LINE SMOOTH",
"237 152 OFFCURVE",
"154 52 OFFCURVE",
"78 -23 CURVE",
"115 124 OFFCURVE",
"140 234 OFFCURVE",
"155 307 CURVE SMOOTH",
"168 365 OFFCURVE",
"174 426 OFFCURVE",
"174 490 CURVE SMOOTH",
"174 550 OFFCURVE",
"169 586 OFFCURVE",
"160 598 CURVE SMOOTH",
"149 613 OFFCURVE",
"138 620 OFFCURVE",
"129 620 CURVE SMOOTH",
"118 620 OFFCURVE",
"113 615 OFFCURVE",
"113 604 CURVE SMOOTH",
"113 599 OFFCURVE",
"116 593 OFFCURVE",
"122 586 CURVE SMOOTH",
"132 571 OFFCURVE",
"137 536 OFFCURVE",
"137 482 CURVE SMOOTH",
"137 421 OFFCURVE",
"131 365 OFFCURVE",
"120 312 CURVE SMOOTH",
"93 195 OFFCURVE",
"73 107 OFFCURVE",
"59 49 CURVE SMOOTH",
"43 -20 OFFCURVE",
"35 -58 OFFCURVE",
"35 -64 CURVE SMOOTH",
"35 -77 OFFCURVE",
"44 -84 OFFCURVE",
"63 -84 CURVE SMOOTH"
);
}
);
};
layerId = "5D3CF454-A725-4551-B6FA-6F6FD8C18533";
paths = (
{
closed = 1;
nodes = (
"72 -69 OFFCURVE",
"77 -64 OFFCURVE",
"85 -55 CURVE SMOOTH",
"109 -31 OFFCURVE",
"155 23 OFFCURVE",
"221 107 CURVE SMOOTH",
"252 148 OFFCURVE",
"302 213 OFFCURVE",
"370 303 CURVE SMOOTH",
"455 415 OFFCURVE",
"521 496 OFFCURVE",
"570 545 CURVE",
"515 386 OFFCURVE",
"488 202 OFFCURVE",
"488 -7 CURVE SMOOTH",
"488 -19 OFFCURVE",
"511 -35 OFFCURVE",
"524 -35 CURVE SMOOTH",
"530 -35 OFFCURVE",
"539 -27 OFFCURVE",
"551 -15 CURVE SMOOTH",
"564 -2 OFFCURVE",
"594 30 OFFCURVE",
"646 97 CURVE SMOOTH",
"720 192 OFFCURVE",
"781 271 OFFCURVE",
"844 351 CURVE SMOOTH",
"894 415 OFFCURVE",
"961 486 OFFCURVE",
"1026 551 CURVE SMOOTH",
"1127 652 OFFCURVE",
"1196 703 OFFCURVE",
"1231 703 CURVE SMOOTH",
"1236 703 OFFCURVE",
"1240 701 OFFCURVE",
"1246 701 CURVE SMOOTH",
"1253 701 OFFCURVE",
"1260 705 OFFCURVE",
"1260 716 CURVE SMOOTH",
"1260 730 OFFCURVE",
"1252 734 OFFCURVE",
"1237 734 CURVE SMOOTH",
"1188 734 OFFCURVE",
"1114 684 OFFCURVE",
"1013 584 CURVE SMOOTH",
"969 541 OFFCURVE",
"905 471 OFFCURVE",
"821 373 CURVE SMOOTH",
"744 278 OFFCURVE",
"686 207 OFFCURVE",
"649 158 CURVE SMOOTH",
"590 83 OFFCURVE",
"547 34 OFFCURVE",
"520 13 CURVE",
"520 193 OFFCURVE",
"543 355 OFFCURVE",
"590 499 CURVE SMOOTH",
"602 534 OFFCURVE",
"612 562 OFFCURVE",
"620 583 CURVE SMOOTH",
"625 598 OFFCURVE",
"630 603 OFFCURVE",
"630 614 CURVE SMOOTH",
"630 627 OFFCURVE",
"623 634 OFFCURVE",
"611 634 CURVE SMOOTH",
"596 634 OFFCURVE",
"588 621 OFFCURVE",
"580 610 CURVE",
"537 571 OFFCURVE",
"492 524 OFFCURVE",
"435 443 CURVE SMOOTH",
"327 290 LINE SMOOTH",
"239 165 OFFCURVE",
"154 67 OFFCURVE",
"78 -8 CURVE",
"115 139 OFFCURVE",
"140 249 OFFCURVE",
"155 322 CURVE SMOOTH",
"168 380 OFFCURVE",
"174 441 OFFCURVE",
"174 505 CURVE SMOOTH",
"174 565 OFFCURVE",
"168 601 OFFCURVE",
"160 613 CURVE SMOOTH",
"151 627 OFFCURVE",
"138 635 OFFCURVE",
"129 635 CURVE SMOOTH",
"119 635 OFFCURVE",
"113 629 OFFCURVE",
"113 619 CURVE SMOOTH",
"113 614 OFFCURVE",
"116 609 OFFCURVE",
"122 601 CURVE SMOOTH",
"135 583 OFFCURVE",
"137 551 OFFCURVE",
"137 497 CURVE SMOOTH",
"137 436 OFFCURVE",
"131 380 OFFCURVE",
"120 327 CURVE SMOOTH",
"93 210 OFFCURVE",
"73 122 OFFCURVE",
"59 64 CURVE SMOOTH",
"43 -5 OFFCURVE",
"35 -43 OFFCURVE",
"35 -49 CURVE SMOOTH",
"35 -62 OFFCURVE",
"44 -69 OFFCURVE",
"63 -69 CURVE SMOOTH"
);
}
);
userData = {
assembly = "NPUSHB[ ]	/* 32 values pushed */\0121 83 83 64 84 12 75 64 56 17 14 0 77 64 60 54 50 44 34 32 12 0 10 8 42 34 3 29 1 1 44 70 \012SROUND[ ]	/* SuperRound */\012MDAP[1]	/* MoveDirectAbsPt */\012SHZ[1]	/* ShiftZoneByLastPoint */\012RTG[ ]	/* RoundToGrid */\012SVTCA[0]	/* SetFreedomAndProjectionVectorToAxis */\012MIAP[1]	/* MoveIndirectAbsPt */\012MIAP[1]	/* MoveIndirectAbsPt */\012MDAP[1]	/* MoveDirectAbsPt */\012MDAP[1]	/* MoveDirectAbsPt */\012ALIGNRP[ ]	/* AlignRelativePt */\012SVTCA[1]	/* SetFreedomAndProjectionVectorToAxis */\012MDAP[0]	/* MoveDirectAbsPt */\012MDAP[0]	/* MoveDirectAbsPt */\012MDAP[0]	/* MoveDirectAbsPt */\012MDAP[0]	/* MoveDirectAbsPt */\012MDAP[0]	/* MoveDirectAbsPt */\012MDAP[0]	/* MoveDirectAbsPt */\012MDAP[0]	/* MoveDirectAbsPt */\012MDAP[0]	/* MoveDirectAbsPt */\012MDAP[0]	/* MoveDirectAbsPt */\012MDAP[0]	/* MoveDirectAbsPt */\012SVTCA[0]	/* SetFreedomAndProjectionVectorToAxis */\012MDAP[0]	/* MoveDirectAbsPt */\012MDAP[0]	/* MoveDirectAbsPt */\012MDAP[0]	/* MoveDirectAbsPt */\012MDAP[0]	/* MoveDirectAbsPt */\012MDAP[0]	/* MoveDirectAbsPt */\012MDAP[0]	/* MoveDirectAbsPt */\012IUP[1]	/* InterpolateUntPts */\012IUP[0]	/* InterpolateUntPts */\012SVTCA[1]	/* SetFreedomAndProjectionVectorToAxis */\012MD[0]	/* MeasureDistance */\012ROUND[00]	/* Round */\012PUSHW[ ]	/* 2 values pushed */\01244 83 \012MD[0]	/* MeasureDistance */\012ROUND[00]	/* Round */\012SUB[ ]	/* Subtract */\012PUSHB[ ]	/* 1 value pushed */\01264 \012GT[ ]	/* GreaterThan */\012IF[ ]	/* If */\012SHPIX[ ]	/* ShiftZoneByPixel */\012SRP1[ ]	/* SetRefPoint1 */\012SHZ[1]	/* ShiftZoneByLastPoint */\012PUSHW[ ]	/* 2 values pushed */\01283 -64 \012SHPIX[ ]	/* ShiftZoneByPixel */\012EIF[ ]	/* EndIf */";
};
width = 874;
}
);
note = W;
unicode = 0057;
},
{
glyphname = X;
lastChange = "2021-11-06 03:09:09 +0000";
layers = (
{
background = {
paths = (
{
closed = 1;
nodes = (
"-21 -96 OFFCURVE",
"-18 -95 OFFCURVE",
"-16 -92 CURVE SMOOTH",
"-1 -74 OFFCURVE",
"9 -60 OFFCURVE",
"16 -50 CURVE SMOOTH",
"90 47 OFFCURVE",
"197 156 OFFCURVE",
"336 276 CURVE SMOOTH",
"351 289 OFFCURVE",
"366 301 OFFCURVE",
"382 313 CURVE",
"412 216 OFFCURVE",
"429 155 OFFCURVE",
"434 130 CURVE SMOOTH",
"446 63 OFFCURVE",
"452 2 OFFCURVE",
"452 -53 CURVE SMOOTH",
"452 -61 OFFCURVE",
"457 -65 OFFCURVE",
"466 -65 CURVE SMOOTH",
"479 -65 OFFCURVE",
"486 -59 OFFCURVE",
"486 -46 CURVE SMOOTH",
"486 61 OFFCURVE",
"461 190 OFFCURVE",
"412 341 CURVE",
"493 407 OFFCURVE",
"569 472 OFFCURVE",
"640 535 CURVE SMOOTH",
"737 622 LINE SMOOTH",
"740 625 OFFCURVE",
"742 629 OFFCURVE",
"742 632 CURVE SMOOTH",
"742 643 OFFCURVE",
"736 649 OFFCURVE",
"724 649 CURVE SMOOTH",
"721 649 OFFCURVE",
"717 648 OFFCURVE",
"714 646 CURVE",
"667 606 OFFCURVE",
"633 575 OFFCURVE",
"610 554 CURVE SMOOTH",
"400 374 LINE",
"391 404 OFFCURVE",
"384 426 OFFCURVE",
"379 440 CURVE",
"367 500 LINE SMOOTH",
"362 524 OFFCURVE",
"359 544 OFFCURVE",
"359 561 CURVE SMOOTH",
"360 579 LINE",
"361 596 LINE SMOOTH",
"361 611 OFFCURVE",
"354 618 OFFCURVE",
"340 618 CURVE SMOOTH",
"331 618 OFFCURVE",
"327 600 OFFCURVE",
"327 564 CURVE SMOOTH",
"327 507 OFFCURVE",
"341 435 OFFCURVE",
"370 349 CURVE",
"345 328 OFFCURVE",
"326 312 OFFCURVE",
"313 301 CURVE SMOOTH",
"162 171 OFFCURVE",
"44 47 OFFCURVE",
"-41 -70 CURVE",
"-43 -72 OFFCURVE",
"-44 -75 OFFCURVE",
"-44 -78 CURVE SMOOTH",
"-44 -90 OFFCURVE",
"-38 -96 OFFCURVE",
"-26 -96 CURVE SMOOTH"
);
}
);
};
layerId = "5D3CF454-A725-4551-B6FA-6F6FD8C18533";
paths = (
{
closed = 1;
nodes = (
"-19 -81 OFFCURVE",
"-16 -78 OFFCURVE",
"-10 -70 CURVE SMOOTH",
"-1 -59 OFFCURVE",
"9 -45 OFFCURVE",
"16 -35 CURVE SMOOTH",
"66 30 OFFCURVE",
"130 101 OFFCURVE",
"209 176 CURVE SMOOTH",
"255 220 OFFCURVE",
"341 297 OFFCURVE",
"382 328 CURVE",
"410 248 OFFCURVE",
"429 177 OFFCURVE",
"434 145 CURVE SMOOTH",
"444 78 OFFCURVE",
"452 17 OFFCURVE",
"452 -35 CURVE SMOOTH",
"452 -46 OFFCURVE",
"457 -50 OFFCURVE",
"466 -50 CURVE SMOOTH",
"479 -50 OFFCURVE",
"486 -44 OFFCURVE",
"486 -31 CURVE SMOOTH",
"486 76 OFFCURVE",
"461 205 OFFCURVE",
"412 356 CURVE",
"493 422 OFFCURVE",
"569 486 OFFCURVE",
"640 550 CURVE SMOOTH",
"729 630 LINE SMOOTH",
"739 639 OFFCURVE",
"742 643 OFFCURVE",
"742 648 CURVE SMOOTH",
"742 656 OFFCURVE",
"736 664 OFFCURVE",
"726 664 CURVE SMOOTH",
"719 664 OFFCURVE",
"712 659 OFFCURVE",
"699 648 CURVE SMOOTH",
"660 614 OFFCURVE",
"632 588 OFFCURVE",
"610 569 CURVE SMOOTH",
"400 389 LINE",
"382 440 OFFCURVE",
"359 527 OFFCURVE",
"359 576 CURVE SMOOTH",
"359 587 OFFCURVE",
"361 599 OFFCURVE",
"361 611 CURVE SMOOTH",
"361 626 OFFCURVE",
"354 633 OFFCURVE",
"342 633 CURVE SMOOTH",
"331 633 OFFCURVE",
"327 615 OFFCURVE",
"327 579 CURVE SMOOTH",
"327 522 OFFCURVE",
"341 450 OFFCURVE",
"370 364 CURVE",
"308 312 OFFCURVE",
"237 250 OFFCURVE",
"185 200 CURVE SMOOTH",
"94 112 OFFCURVE",
"19 28 OFFCURVE",
"-37 -49 CURVE SMOOTH",
"-43 -57 OFFCURVE",
"-44 -60 OFFCURVE",
"-44 -64 CURVE SMOOTH",
"-44 -74 OFFCURVE",
"-37 -81 OFFCURVE",
"-28 -81 CURVE SMOOTH"
);
}
);
userData = {
assembly = "NPUSHB[ ]	/* 24 values pushed */\0121 54 54 64 55 46 39 28 8 52 46 33 30 26 24 18 0 44 16 2 1 1 18 70 \012SROUND[ ]	/* SuperRound */\012MDAP[1]	/* MoveDirectAbsPt */\012SHZ[1]	/* ShiftZoneByLastPoint */\012RTG[ ]	/* RoundToGrid */\012SVTCA[0]	/* SetFreedomAndProjectionVectorToAxis */\012MIAP[1]	/* MoveIndirectAbsPt */\012MDAP[1]	/* MoveDirectAbsPt */\012MDAP[1]	/* MoveDirectAbsPt */\012SVTCA[1]	/* SetFreedomAndProjectionVectorToAxis */\012MDAP[0]	/* MoveDirectAbsPt */\012MDAP[0]	/* MoveDirectAbsPt */\012MDAP[0]	/* MoveDirectAbsPt */\012MDAP[0]	/* MoveDirectAbsPt */\012MDAP[0]	/* MoveDirectAbsPt */\012MDAP[0]	/* MoveDirectAbsPt */\012MDAP[0]	/* MoveDirectAbsPt */\012MDAP[0]	/* MoveDirectAbsPt */\012SVTCA[0]	/* SetFreedomAndProjectionVectorToAxis */\012MDAP[0]	/* MoveDirectAbsPt */\012MDAP[0]	/* MoveDirectAbsPt */\012MDAP[0]	/* MoveDirectAbsPt */\012IUP[1]	/* InterpolateUntPts */\012IUP[0]	/* InterpolateUntPts */\012SVTCA[1]	/* SetFreedomAndProjectionVectorToAxis */\012MD[0]	/* MeasureDistance */\012ROUND[00]	/* Round */\012PUSHW[ ]	/* 2 values pushed */\01218 54 \012MD[0]	/* MeasureDistance */\012ROUND[00]	/* Round */\012SUB[ ]	/* Subtract */\012PUSHB[ ]	/* 1 value pushed */\01264 \012GT[ ]	/* GreaterThan */\012IF[ ]	/* If */\012SHPIX[ ]	/* ShiftZoneByPixel */\012SRP1[ ]	/* SetRefPoint1 */\012SHZ[1]	/* ShiftZoneByLastPoint */\012PUSHW[ ]	/* 2 values pushed */\01254 -64 \012SHPIX[ ]	/* ShiftZoneByPixel */\012EIF[ ]	/* EndIf */";
};
width = 541;
}
);
note = X;
unicode = 0058;
},
{
glyphname = Y;
lastChange = "2021-11-06 03:09:09 +0000";
layers = (
{
background = {
paths = (
{
closed = 1;
nodes = (
"56 -44 OFFCURVE",
"60 -41 OFFCURVE",
"62 -35 CURVE SMOOTH",
"79 5 OFFCURVE",
"91 35 OFFCURVE",
"98 55 CURVE SMOOTH",
"124 120 OFFCURVE",
"148 180 OFFCURVE",
"169 236 CURVE",
"420 451 LINE SMOOTH",
"541 549 OFFCURVE",
"645 630 OFFCURVE",
"734 694 CURVE",
"733 692 LINE",
"737 695 OFFCURVE",
"739 699 OFFCURVE",
"739 703 CURVE SMOOTH",
"739 716 OFFCURVE",
"732 722 OFFCURVE",
"719 722 CURVE SMOOTH",
"717 722 OFFCURVE",
"714 721 OFFCURVE",
"710 720 CURVE",
"710 719 LINE",
"523 583 OFFCURVE",
"342 436 OFFCURVE",
"168 277 CURVE",
"144 426 LINE SMOOTH",
"132 485 OFFCURVE",
"114 555 OFFCURVE",
"91 636 CURVE",
"86 639 OFFCURVE",
"80 640 OFFCURVE",
"73 640 CURVE SMOOTH",
"66 640 OFFCURVE",
"62 638 OFFCURVE",
"62 633 CURVE SMOOTH",
"62 630 LINE SMOOTH",
"62 632 OFFCURVE",
"71 595 OFFCURVE",
"88 519 CURVE SMOOTH",
"98 475 OFFCURVE",
"105 442 OFFCURVE",
"109 420 CURVE",
"110 420 LINE",
"127 335 OFFCURVE",
"136 277 OFFCURVE",
"137 247 CURVE",
"65 67 OFFCURVE",
"29 -24 OFFCURVE",
"29 -26 CURVE SMOOTH",
"29 -38 OFFCURVE",
"36 -44 OFFCURVE",
"49 -44 CURVE SMOOTH"
);
}
);
};
layerId = "5D3CF454-A725-4551-B6FA-6F6FD8C18533";
paths = (
{
closed = 1;
nodes = (
"56 -29 OFFCURVE",
"60 -26 OFFCURVE",
"66 -12 CURVE SMOOTH",
"78 18 OFFCURVE",
"148 196 OFFCURVE",
"169 251 CURVE",
"253 323 OFFCURVE",
"338 398 OFFCURVE",
"428 473 CURVE SMOOTH",
"522 551 OFFCURVE",
"625 632 OFFCURVE",
"726 703 CURVE SMOOTH",
"735 709 OFFCURVE",
"739 713 OFFCURVE",
"739 719 CURVE SMOOTH",
"739 729 OFFCURVE",
"732 737 OFFCURVE",
"722 737 CURVE SMOOTH",
"712 737 OFFCURVE",
"707 732 OFFCURVE",
"700 727 CURVE SMOOTH",
"517 593 OFFCURVE",
"339 445 OFFCURVE",
"168 292 CURVE",
"160 342 OFFCURVE",
"152 397 OFFCURVE",
"142 448 CURVE SMOOTH",
"134 489 OFFCURVE",
"116 562 OFFCURVE",
"93 643 CURVE SMOOTH",
"90 652 OFFCURVE",
"90 655 OFFCURVE",
"73 655 CURVE SMOOTH",
"66 655 OFFCURVE",
"62 653 OFFCURVE",
"62 648 CURVE SMOOTH",
"62 643 OFFCURVE",
"75 592 OFFCURVE",
"88 534 CURVE SMOOTH",
"108 445 OFFCURVE",
"135 317 OFFCURVE",
"137 262 CURVE",
"86 133 OFFCURVE",
"53 51 OFFCURVE",
"38 13 CURVE SMOOTH",
"34 3 OFFCURVE",
"29 -7 OFFCURVE",
"29 -12 CURVE SMOOTH",
"29 -23 OFFCURVE",
"36 -29 OFFCURVE",
"49 -29 CURVE SMOOTH"
);
}
);
userData = {
assembly = "NPUSHB[ ]	/* 27 values pushed */\0121 40 40 64 41 21 24 23 14 8 1 0 38 36 24 23 21 17 16 6 5 19 34 1 1 36 70 \012SROUND[ ]	/* SuperRound */\012MDAP[1]	/* MoveDirectAbsPt */\012SHZ[1]	/* ShiftZoneByLastPoint */\012RTG[ ]	/* RoundToGrid */\012SVTCA[0]	/* SetFreedomAndProjectionVectorToAxis */\012MIAP[1]	/* MoveIndirectAbsPt */\012MDAP[1]	/* MoveDirectAbsPt */\012SVTCA[1]	/* SetFreedomAndProjectionVectorToAxis */\012MDAP[0]	/* MoveDirectAbsPt */\012MDAP[0]	/* MoveDirectAbsPt */\012MDAP[0]	/* MoveDirectAbsPt */\012MDAP[0]	/* MoveDirectAbsPt */\012MDAP[0]	/* MoveDirectAbsPt */\012MDAP[0]	/* MoveDirectAbsPt */\012MDAP[0]	/* MoveDirectAbsPt */\012MDAP[0]	/* MoveDirectAbsPt */\012MDAP[0]	/* MoveDirectAbsPt */\012SVTCA[0]	/* SetFreedomAndProjectionVectorToAxis */\012MDAP[0]	/* MoveDirectAbsPt */\012MDAP[0]	/* MoveDirectAbsPt */\012MDAP[0]	/* MoveDirectAbsPt */\012MDAP[0]	/* MoveDirectAbsPt */\012MDAP[0]	/* MoveDirectAbsPt */\012MDAP[0]	/* MoveDirectAbsPt */\012IUP[1]	/* InterpolateUntPts */\012IUP[0]	/* InterpolateUntPts */\012SVTCA[1]	/* SetFreedomAndProjectionVectorToAxis */\012MD[0]	/* MeasureDistance */\012ROUND[00]	/* Round */\012PUSHW[ ]	/* 2 values pushed */\01236 40 \012MD[0]	/* MeasureDistance */\012ROUND[00]	/* Round */\012SUB[ ]	/* Subtract */\012PUSHB[ ]	/* 1 value pushed */\01264 \012GT[ ]	/* GreaterThan */\012IF[ ]	/* If */\012SHPIX[ ]	/* ShiftZoneByPixel */\012SRP1[ ]	/* SetRefPoint1 */\012SHZ[1]	/* ShiftZoneByLastPoint */\012PUSHW[ ]	/* 2 values pushed */\01240 -64 \012SHPIX[ ]	/* ShiftZoneByPixel */\012EIF[ ]	/* EndIf */";
};
width = 306;
}
);
note = Y;
unicode = 0059;
},
{
glyphname = Z;
lastChange = "2021-11-06 03:09:09 +0000";
layers = (
{
background = {
paths = (
{
closed = 1;
nodes = (
"379 -22 OFFCURVE",
"453 -11 OFFCURVE",
"492 11 CURVE SMOOTH",
"497 14 OFFCURVE",
"499 17 OFFCURVE",
"499 21 CURVE SMOOTH",
"499 32 OFFCURVE",
"487 42 OFFCURVE",
"476 42 CURVE SMOOTH",
"456 42 OFFCURVE",
"422 37 OFFCURVE",
"373 27 CURVE SMOOTH",
"324 16 OFFCURVE",
"287 11 OFFCURVE",
"262 11 CURVE SMOOTH",
"201 11 OFFCURVE",
"129 19 OFFCURVE",
"48 34 CURVE",
"76 70 OFFCURVE",
"120 112 OFFCURVE",
"179 160 CURVE SMOOTH",
"198 175 OFFCURVE",
"247 212 OFFCURVE",
"325 270 CURVE SMOOTH",
"497 398 OFFCURVE",
"601 496 OFFCURVE",
"637 564 CURVE",
"636 565 LINE",
"636 590 OFFCURVE",
"598 595 OFFCURVE",
"557 595 CURVE SMOOTH",
"534 595 OFFCURVE",
"510 593 OFFCURVE",
"492 593 CURVE SMOOTH",
"481 593 OFFCURVE",
"453 592 OFFCURVE",
"409 590 CURVE SMOOTH",
"375 589 OFFCURVE",
"337 585 OFFCURVE",
"294 578 CURVE SMOOTH",
"263 573 OFFCURVE",
"247 571 OFFCURVE",
"245 570 CURVE SMOOTH",
"238 568 OFFCURVE",
"235 565 OFFCURVE",
"235 560 CURVE SMOOTH",
"235 545 OFFCURVE",
"243 538 OFFCURVE",
"258 538 CURVE SMOOTH",
"256 538 OFFCURVE",
"270 540 OFFCURVE",
"300 545 CURVE SMOOTH",
"357 554 OFFCURVE",
"396 558 OFFCURVE",
"419 558 CURVE SMOOTH",
"587 558 LINE",
"562 517 OFFCURVE",
"518 470 OFFCURVE",
"455 416 CURVE SMOOTH",
"422 389 OFFCURVE",
"371 348 OFFCURVE",
"300 295 CURVE SMOOTH",
"218 233 OFFCURVE",
"165 192 OFFCURVE",
"141 173 CURVE SMOOTH",
"76 118 OFFCURVE",
"30 71 OFFCURVE",
"4 31 CURVE",
"4 30 LINE",
"3 27 OFFCURVE",
"2 25 OFFCURVE",
"2 24 CURVE SMOOTH",
"2 13 OFFCURVE",
"9 7 OFFCURVE",
"23 4 CURVE SMOOTH",
"42 0 OFFCURVE",
"57 -2 OFFCURVE",
"67 -3 CURVE",
"148 -16 OFFCURVE",
"215 -22 OFFCURVE",
"270 -22 CURVE SMOOTH"
);
}
);
};
layerId = "5D3CF454-A725-4551-B6FA-6F6FD8C18533";
paths = (
{
closed = 1;
nodes = (
"379 -7 OFFCURVE",
"453 4 OFFCURVE",
"486 23 CURVE SMOOTH",
"497 29 OFFCURVE",
"499 32 OFFCURVE",
"499 36 CURVE SMOOTH",
"499 47 OFFCURVE",
"487 57 OFFCURVE",
"476 57 CURVE SMOOTH",
"456 57 OFFCURVE",
"422 52 OFFCURVE",
"373 42 CURVE SMOOTH",
"324 31 OFFCURVE",
"287 26 OFFCURVE",
"262 26 CURVE SMOOTH",
"201 26 OFFCURVE",
"129 34 OFFCURVE",
"48 49 CURVE",
"76 85 OFFCURVE",
"120 127 OFFCURVE",
"179 175 CURVE SMOOTH",
"198 190 OFFCURVE",
"247 227 OFFCURVE",
"325 285 CURVE SMOOTH",
"464 389 OFFCURVE",
"558 474 OFFCURVE",
"599 525 CURVE SMOOTH",
"620 552 OFFCURVE",
"635 572 OFFCURVE",
"635 583 CURVE SMOOTH",
"634 601 OFFCURVE",
"611 610 OFFCURVE",
"557 610 CURVE SMOOTH",
"534 610 OFFCURVE",
"510 608 OFFCURVE",
"492 608 CURVE SMOOTH",
"481 608 OFFCURVE",
"453 607 OFFCURVE",
"409 605 CURVE SMOOTH",
"366 603 OFFCURVE",
"266 590 OFFCURVE",
"245 585 CURVE SMOOTH",
"238 583 OFFCURVE",
"235 580 OFFCURVE",
"235 573 CURVE SMOOTH",
"235 560 OFFCURVE",
"243 553 OFFCURVE",
"256 553 CURVE SMOOTH",
"264 553 OFFCURVE",
"275 556 OFFCURVE",
"300 560 CURVE SMOOTH",
"357 569 OFFCURVE",
"396 573 OFFCURVE",
"419 573 CURVE SMOOTH",
"589 573 LINE",
"564 532 OFFCURVE",
"518 485 OFFCURVE",
"455 431 CURVE SMOOTH",
"422 404 OFFCURVE",
"371 363 OFFCURVE",
"300 310 CURVE SMOOTH",
"223 252 OFFCURVE",
"152 198 OFFCURVE",
"108 159 CURVE SMOOTH",
"64 120 OFFCURVE",
"2 55 OFFCURVE",
"2 39 CURVE SMOOTH",
"2 28 OFFCURVE",
"9 22 OFFCURVE",
"23 19 CURVE SMOOTH",
"83 7 OFFCURVE",
"204 -7 OFFCURVE",
"270 -7 CURVE SMOOTH"
);
}
);
userData = {
assembly = "NPUSHB[ ]	/* 24 values pushed */\0121 55 55 64 56 5 45 41 40 16 13 47 40 32 31 29 19 11 5 0 23 1 29 70 \012SROUND[ ]	/* SuperRound */\012MDAP[1]	/* MoveDirectAbsPt */\012SHZ[1]	/* ShiftZoneByLastPoint */\012RTG[ ]	/* RoundToGrid */\012SVTCA[0]	/* SetFreedomAndProjectionVectorToAxis */\012MDAP[1]	/* MoveDirectAbsPt */\012MDAP[1]	/* MoveDirectAbsPt */\012SVTCA[1]	/* SetFreedomAndProjectionVectorToAxis */\012MDAP[0]	/* MoveDirectAbsPt */\012MDAP[0]	/* MoveDirectAbsPt */\012MDAP[0]	/* MoveDirectAbsPt */\012MDAP[0]	/* MoveDirectAbsPt */\012MDAP[0]	/* MoveDirectAbsPt */\012MDAP[0]	/* MoveDirectAbsPt */\012MDAP[0]	/* MoveDirectAbsPt */\012MDAP[0]	/* MoveDirectAbsPt */\012SVTCA[0]	/* SetFreedomAndProjectionVectorToAxis */\012MDAP[0]	/* MoveDirectAbsPt */\012MDAP[0]	/* MoveDirectAbsPt */\012MDAP[0]	/* MoveDirectAbsPt */\012MDAP[0]	/* MoveDirectAbsPt */\012MDAP[0]	/* MoveDirectAbsPt */\012IUP[1]	/* InterpolateUntPts */\012IUP[0]	/* InterpolateUntPts */\012SVTCA[1]	/* SetFreedomAndProjectionVectorToAxis */\012MD[0]	/* MeasureDistance */\012ROUND[00]	/* Round */\012PUSHW[ ]	/* 2 values pushed */\01229 55 \012MD[0]	/* MeasureDistance */\012ROUND[00]	/* Round */\012SUB[ ]	/* Subtract */\012PUSHB[ ]	/* 1 value pushed */\01264 \012GT[ ]	/* GreaterThan */\012IF[ ]	/* If */\012SHPIX[ ]	/* ShiftZoneByPixel */\012SRP1[ ]	/* SetRefPoint1 */\012SHZ[1]	/* ShiftZoneByLastPoint */\012PUSHW[ ]	/* 2 values pushed */\01255 -64 \012SHPIX[ ]	/* ShiftZoneByPixel */\012EIF[ ]	/* EndIf */";
};
width = 545;
}
);
note = Z;
unicode = 005A;
},
{
glyphname = a;
lastChange = "2021-11-12 18:17:12 +0000";
layers = (
{
anchors = (
{
name = bottom;
position = "{114, 0}";
},
{
name = ogonek;
position = "{344, 10}";
},
{
name = top;
position = "{277, 347}";
}
);
background = {
paths = (
{
closed = 1;
nodes = (
"104 -25 OFFCURVE",
"160 4 OFFCURVE",
"221 62 CURVE",
"218 54 OFFCURVE",
"216 43 OFFCURVE",
"216 29 CURVE SMOOTH",
"216 -6 OFFCURVE",
"232 -23 OFFCURVE",
"265 -23 CURVE SMOOTH",
"300 -23 OFFCURVE",
"344 -5 OFFCURVE",
"398 32 CURVE SMOOTH",
"440 61 OFFCURVE",
"460 78 OFFCURVE",
"509 127 CURVE",
"512 131 OFFCURVE",
"513 135 OFFCURVE",
"513 138 CURVE SMOOTH",
"513 149 OFFCURVE",
"507 154 OFFCURVE",
"496 154 CURVE SMOOTH",
"492 154 OFFCURVE",
"488 152 OFFCURVE",
"485 149 CURVE SMOOTH",
"421 88 OFFCURVE",
"364 45 OFFCURVE",
"313 22 CURVE SMOOTH",
"297 15 OFFCURVE",
"284 11 OFFCURVE",
"275 11 CURVE SMOOTH",
"258 11 OFFCURVE",
"250 20 OFFCURVE",
"250 37 CURVE SMOOTH",
"250 61 OFFCURVE",
"263 92 OFFCURVE",
"288 129 CURVE SMOOTH",
"313 166 OFFCURVE",
"326 185 OFFCURVE",
"326 186 CURVE SMOOTH",
"326 197 OFFCURVE",
"321 202 OFFCURVE",
"310 202 CURVE SMOOTH",
"305 202 OFFCURVE",
"301 200 OFFCURVE",
"298 197 CURVE SMOOTH",
"279 175 OFFCURVE",
"264 158 OFFCURVE",
"255 147 CURVE SMOOTH",
"195 74 OFFCURVE",
"138 29 OFFCURVE",
"84 12 CURVE SMOOTH",
"76 9 OFFCURVE",
"67 8 OFFCURVE",
"58 8 CURVE SMOOTH",
"38 8 OFFCURVE",
"28 17 OFFCURVE",
"28 35 CURVE SMOOTH",
"28 62 OFFCURVE",
"38 94 OFFCURVE",
"59 130 CURVE SMOOTH",
"76 160 OFFCURVE",
"96 187 OFFCURVE",
"119 211 CURVE SMOOTH",
"180 273 OFFCURVE",
"231 304 OFFCURVE",
"272 304 CURVE SMOOTH",
"297 304 OFFCURVE",
"310 295 OFFCURVE",
"310 276 CURVE SMOOTH",
"310 272 OFFCURVE",
"309 267 OFFCURVE",
"307 260 CURVE SMOOTH",
"304 253 OFFCURVE",
"303 248 OFFCURVE",
"303 245 CURVE SMOOTH",
"303 234 OFFCURVE",
"309 228 OFFCURVE",
"321 228 CURVE SMOOTH",
"334 228 OFFCURVE",
"341 242 OFFCURVE",
"341 269 CURVE SMOOTH",
"341 311 OFFCURVE",
"320 332 OFFCURVE",
"277 332 CURVE SMOOTH",
"157 332 OFFCURVE",
"-6 151 OFFCURVE",
"-6 30 CURVE SMOOTH",
"-6 -7 OFFCURVE",
"13 -25 OFFCURVE",
"52 -25 CURVE SMOOTH"
);
}
);
};
layerId = "5D3CF454-A725-4551-B6FA-6F6FD8C18533";
paths = (
{
closed = 1;
nodes = (
"104 -10 OFFCURVE",
"160 19 OFFCURVE",
"221 77 CURVE",
"218 69 OFFCURVE",
"216 58 OFFCURVE",
"216 44 CURVE SMOOTH",
"216 9 OFFCURVE",
"232 -8 OFFCURVE",
"265 -8 CURVE SMOOTH",
"300 -8 OFFCURVE",
"344 10 OFFCURVE",
"398 47 CURVE SMOOTH",
"440 76 OFFCURVE",
"460 93 OFFCURVE",
"509 142 CURVE",
"512 146 OFFCURVE",
"513 150 OFFCURVE",
"513 153 CURVE SMOOTH",
"513 164 OFFCURVE",
"507 169 OFFCURVE",
"496 169 CURVE SMOOTH",
"492 169 OFFCURVE",
"488 167 OFFCURVE",
"485 164 CURVE SMOOTH",
"421 103 OFFCURVE",
"364 60 OFFCURVE",
"322 41 CURVE SMOOTH",
"297 30 OFFCURVE",
"284 26 OFFCURVE",
"275 26 CURVE SMOOTH",
"258 26 OFFCURVE",
"250 35 OFFCURVE",
"250 52 CURVE SMOOTH",
"250 76 OFFCURVE",
"263 107 OFFCURVE",
"288 144 CURVE SMOOTH",
"313 181 OFFCURVE",
"324 198 OFFCURVE",
"326 201 CURVE",
"326 211 OFFCURVE",
"321 217 OFFCURVE",
"310 217 CURVE SMOOTH",
"305 217 OFFCURVE",
"301 215 OFFCURVE",
"298 212 CURVE SMOOTH",
"279 190 OFFCURVE",
"264 173 OFFCURVE",
"255 162 CURVE SMOOTH",
"224 124 OFFCURVE",
"194 94 OFFCURVE",
"165 72 CURVE SMOOTH",
"136 49 OFFCURVE",
"93 23 OFFCURVE",
"58 23 CURVE SMOOTH",
"38 23 OFFCURVE",
"28 32 OFFCURVE",
"28 50 CURVE SMOOTH",
"28 105 OFFCURVE",
"74 179 OFFCURVE",
"119 226 CURVE SMOOTH",
"180 288 OFFCURVE",
"231 319 OFFCURVE",
"272 319 CURVE SMOOTH",
"297 319 OFFCURVE",
"310 310 OFFCURVE",
"310 291 CURVE SMOOTH",
"310 279 OFFCURVE",
"303 269 OFFCURVE",
"303 260 CURVE SMOOTH",
"303 249 OFFCURVE",
"309 243 OFFCURVE",
"321 243 CURVE SMOOTH",
"334 243 OFFCURVE",
"341 257 OFFCURVE",
"341 284 CURVE SMOOTH",
"341 324 OFFCURVE",
"318 347 OFFCURVE",
"277 347 CURVE SMOOTH",
"157 347 OFFCURVE",
"-6 166 OFFCURVE",
"-6 45 CURVE SMOOTH",
"-6 8 OFFCURVE",
"13 -10 OFFCURVE",
"52 -10 CURVE SMOOTH"
);
}
);
userData = {
assembly = "NPUSHB[ ]	/* 34 values pushed */\0121 60 60 64 61 58 56 50 43 35 27 20 9 1 0 58 48 45 33 25 22 18 13 9 7 1 0 5 11 16 2 1 13 70 \012SROUND[ ]	/* SuperRound */\012MDAP[1]	/* MoveDirectAbsPt */\012SHZ[1]	/* ShiftZoneByLastPoint */\012RTG[ ]	/* RoundToGrid */\012SVTCA[0]	/* SetFreedomAndProjectionVectorToAxis */\012MIAP[1]	/* MoveIndirectAbsPt */\012MDAP[1]	/* MoveDirectAbsPt */\012ALIGNRP[ ]	/* AlignRelativePt */\012SVTCA[1]	/* SetFreedomAndProjectionVectorToAxis */\012MDAP[0]	/* MoveDirectAbsPt */\012MDAP[0]	/* MoveDirectAbsPt */\012MDAP[0]	/* MoveDirectAbsPt */\012MDAP[0]	/* MoveDirectAbsPt */\012MDAP[0]	/* MoveDirectAbsPt */\012MDAP[0]	/* MoveDirectAbsPt */\012MDAP[0]	/* MoveDirectAbsPt */\012MDAP[0]	/* MoveDirectAbsPt */\012MDAP[0]	/* MoveDirectAbsPt */\012MDAP[0]	/* MoveDirectAbsPt */\012MDAP[0]	/* MoveDirectAbsPt */\012MDAP[0]	/* MoveDirectAbsPt */\012SVTCA[0]	/* SetFreedomAndProjectionVectorToAxis */\012MDAP[0]	/* MoveDirectAbsPt */\012MDAP[0]	/* MoveDirectAbsPt */\012MDAP[0]	/* MoveDirectAbsPt */\012MDAP[0]	/* MoveDirectAbsPt */\012MDAP[0]	/* MoveDirectAbsPt */\012MDAP[0]	/* MoveDirectAbsPt */\012MDAP[0]	/* MoveDirectAbsPt */\012MDAP[0]	/* MoveDirectAbsPt */\012MDAP[0]	/* MoveDirectAbsPt */\012IUP[1]	/* InterpolateUntPts */\012IUP[0]	/* InterpolateUntPts */\012SVTCA[1]	/* SetFreedomAndProjectionVectorToAxis */\012MD[0]	/* MeasureDistance */\012ROUND[00]	/* Round */\012PUSHW[ ]	/* 2 values pushed */\01213 60 \012MD[0]	/* MeasureDistance */\012ROUND[00]	/* Round */\012SUB[ ]	/* Subtract */\012PUSHB[ ]	/* 1 value pushed */\01264 \012GT[ ]	/* GreaterThan */\012IF[ ]	/* If */\012SHPIX[ ]	/* ShiftZoneByPixel */\012SRP1[ ]	/* SetRefPoint1 */\012SHZ[1]	/* ShiftZoneByLastPoint */\012PUSHW[ ]	/* 2 values pushed */\01260 -64 \012SHPIX[ ]	/* ShiftZoneByPixel */\012EIF[ ]	/* EndIf */";
};
width = 467;
}
);
note = a;
unicode = 0061;
},
{
glyphname = aring;
lastChange = "2021-11-12 18:12:37 +0000";
layers = (
{
background = {
paths = (
{
closed = 1;
nodes = (
"104 -25 OFFCURVE",
"160 4 OFFCURVE",
"221 62 CURVE",
"218 54 OFFCURVE",
"216 43 OFFCURVE",
"216 29 CURVE SMOOTH",
"216 -6 OFFCURVE",
"232 -23 OFFCURVE",
"265 -23 CURVE SMOOTH",
"300 -23 OFFCURVE",
"344 -5 OFFCURVE",
"398 32 CURVE SMOOTH",
"441 61 OFFCURVE",
"478 93 OFFCURVE",
"510 128 CURVE SMOOTH",
"509 127 LINE",
"512 131 OFFCURVE",
"513 135 OFFCURVE",
"513 138 CURVE SMOOTH",
"513 149 OFFCURVE",
"507 154 OFFCURVE",
"496 154 CURVE SMOOTH",
"492 154 OFFCURVE",
"488 152 OFFCURVE",
"485 149 CURVE SMOOTH",
"421 88 OFFCURVE",
"364 45 OFFCURVE",
"313 22 CURVE SMOOTH",
"297 15 OFFCURVE",
"284 11 OFFCURVE",
"275 11 CURVE SMOOTH",
"258 11 OFFCURVE",
"250 20 OFFCURVE",
"250 37 CURVE SMOOTH",
"250 61 OFFCURVE",
"263 92 OFFCURVE",
"288 129 CURVE SMOOTH",
"313 166 OFFCURVE",
"326 185 OFFCURVE",
"326 186 CURVE SMOOTH",
"326 197 OFFCURVE",
"321 202 OFFCURVE",
"310 202 CURVE SMOOTH",
"305 202 OFFCURVE",
"301 200 OFFCURVE",
"298 197 CURVE SMOOTH",
"279 175 OFFCURVE",
"264 158 OFFCURVE",
"255 147 CURVE SMOOTH",
"195 74 OFFCURVE",
"138 29 OFFCURVE",
"84 12 CURVE SMOOTH",
"76 9 OFFCURVE",
"67 8 OFFCURVE",
"58 8 CURVE SMOOTH",
"38 8 OFFCURVE",
"28 17 OFFCURVE",
"28 35 CURVE SMOOTH",
"28 62 OFFCURVE",
"38 94 OFFCURVE",
"59 130 CURVE SMOOTH",
"76 160 OFFCURVE",
"96 187 OFFCURVE",
"119 211 CURVE SMOOTH",
"180 273 OFFCURVE",
"231 304 OFFCURVE",
"272 304 CURVE SMOOTH",
"297 304 OFFCURVE",
"310 295 OFFCURVE",
"310 276 CURVE SMOOTH",
"310 272 OFFCURVE",
"309 267 OFFCURVE",
"307 260 CURVE SMOOTH",
"304 253 OFFCURVE",
"303 248 OFFCURVE",
"303 245 CURVE SMOOTH",
"303 234 OFFCURVE",
"309 228 OFFCURVE",
"321 228 CURVE SMOOTH",
"334 228 OFFCURVE",
"341 242 OFFCURVE",
"341 269 CURVE SMOOTH",
"341 311 OFFCURVE",
"320 332 OFFCURVE",
"277 332 CURVE SMOOTH",
"157 332 OFFCURVE",
"-6 151 OFFCURVE",
"-6 30 CURVE SMOOTH",
"-6 -7 OFFCURVE",
"13 -25 OFFCURVE",
"52 -25 CURVE SMOOTH"
);
},
{
closed = 1;
nodes = (
"324 351 OFFCURVE",
"375 392 OFFCURVE",
"375 427 CURVE SMOOTH",
"375 467 OFFCURVE",
"345 491 OFFCURVE",
"309 491 CURVE SMOOTH",
"289 491 OFFCURVE",
"272 485 OFFCURVE",
"258 472 CURVE SMOOTH",
"242 457 OFFCURVE",
"234 438 OFFCURVE",
"234 415 CURVE SMOOTH",
"234 382 OFFCURVE",
"258 351 OFFCURVE",
"291 351 CURVE SMOOTH"
);
},
{
closed = 1;
nodes = (
"272 375 OFFCURVE",
"258 394 OFFCURVE",
"258 415 CURVE SMOOTH",
"258 447 OFFCURVE",
"281 467 OFFCURVE",
"308 467 CURVE SMOOTH",
"337 467 OFFCURVE",
"351 454 OFFCURVE",
"351 427 CURVE SMOOTH",
"351 407 OFFCURVE",
"314 375 OFFCURVE",
"291 375 CURVE SMOOTH"
);
}
);
};
components = (
{
name = a;
},
{
name = ringcomb;
transform = "{1, 0, 0, 1, 236, -18}";
}
);
layerId = "5D3CF454-A725-4551-B6FA-6F6FD8C18533";
userData = {
assembly = "NPUSHB[ ]	/* 42 values pushed */\0121 84 84 64 85 58 81 75 63 56 50 43 35 27 20 9 1 0 78 73 66 60 58 48 45 33 25 22 18 13 9 7 1 0 70 5 11 16 2 1 13 70 \012SROUND[ ]	/* SuperRound */\012MDAP[1]	/* MoveDirectAbsPt */\012SHZ[1]	/* ShiftZoneByLastPoint */\012RTG[ ]	/* RoundToGrid */\012SVTCA[0]	/* SetFreedomAndProjectionVectorToAxis */\012MIAP[1]	/* MoveIndirectAbsPt */\012MDAP[1]	/* MoveDirectAbsPt */\012ALIGNRP[ ]	/* AlignRelativePt */\012MDAP[1]	/* MoveDirectAbsPt */\012SVTCA[1]	/* SetFreedomAndProjectionVectorToAxis */\012MDAP[0]	/* MoveDirectAbsPt */\012MDAP[0]	/* MoveDirectAbsPt */\012MDAP[0]	/* MoveDirectAbsPt */\012MDAP[0]	/* MoveDirectAbsPt */\012MDAP[0]	/* MoveDirectAbsPt */\012MDAP[0]	/* MoveDirectAbsPt */\012MDAP[0]	/* MoveDirectAbsPt */\012MDAP[0]	/* MoveDirectAbsPt */\012MDAP[0]	/* MoveDirectAbsPt */\012MDAP[0]	/* MoveDirectAbsPt */\012MDAP[0]	/* MoveDirectAbsPt */\012MDAP[0]	/* MoveDirectAbsPt */\012MDAP[0]	/* MoveDirectAbsPt */\012MDAP[0]	/* MoveDirectAbsPt */\012MDAP[0]	/* MoveDirectAbsPt */\012MDAP[0]	/* MoveDirectAbsPt */\012SVTCA[0]	/* SetFreedomAndProjectionVectorToAxis */\012MDAP[0]	/* MoveDirectAbsPt */\012MDAP[0]	/* MoveDirectAbsPt */\012MDAP[0]	/* MoveDirectAbsPt */\012MDAP[0]	/* MoveDirectAbsPt */\012MDAP[0]	/* MoveDirectAbsPt */\012MDAP[0]	/* MoveDirectAbsPt */\012MDAP[0]	/* MoveDirectAbsPt */\012MDAP[0]	/* MoveDirectAbsPt */\012MDAP[0]	/* MoveDirectAbsPt */\012MDAP[0]	/* MoveDirectAbsPt */\012MDAP[0]	/* MoveDirectAbsPt */\012MDAP[0]	/* MoveDirectAbsPt */\012IUP[1]	/* InterpolateUntPts */\012IUP[0]	/* InterpolateUntPts */\012SVTCA[1]	/* SetFreedomAndProjectionVectorToAxis */\012MD[0]	/* MeasureDistance */\012ROUND[00]	/* Round */\012PUSHW[ ]	/* 2 values pushed */\01213 84 \012MD[0]	/* MeasureDistance */\012ROUND[00]	/* Round */\012SUB[ ]	/* Subtract */\012PUSHB[ ]	/* 1 value pushed */\01264 \012GT[ ]	/* GreaterThan */\012IF[ ]	/* If */\012SHPIX[ ]	/* ShiftZoneByPixel */\012SRP1[ ]	/* SetRefPoint1 */\012SHZ[1]	/* ShiftZoneByLastPoint */\012PUSHW[ ]	/* 2 values pushed */\01284 -64 \012SHPIX[ ]	/* ShiftZoneByPixel */\012EIF[ ]	/* EndIf */";
};
width = 467;
}
);
note = aring;
unicode = 00E5;
},
